<svg xmlns="http://www.w3.org/2000/svg" xmlns:xlink="http://www.w3.org/1999/xlink" id="body_1" preserveAspectRatio="xMinYMin meet" viewBox="0 0 793 1123"><g transform="matrix(1.333333 0 0 1.333333 0 0)"><g><g clip-path="url(#1)"><path transform="matrix(1 0 0 -1 0 842)" d="M90 694.578L171.649 694.578" stroke="#0000FF" stroke-width="0.686" fill="none" /><path transform="matrix(1 0 0 -1 0 842)" d="M188.456 694.578L273.969 694.578" stroke="#0000FF" stroke-width="0.686" fill="none" /><path transform="matrix(1 0 0 -1 0 842)" d="M90 243.12L505 243.12L505 243.12L505 244.12L505 244.12L90 244.12z" stroke="#999999" stroke-width="1" fill="none" /><path transform="matrix(1 0 0 -1 0 842)" d="M90 161.6979L171.649 161.6979" stroke="#0000FF" stroke-width="0.686" fill="none" /><path transform="matrix(1 0 0 -1 0 842)" d="M188.456 161.6979L273.969 161.6979" stroke="#0000FF" stroke-width="0.686" fill="none" /></g></g></g><defs><clipPath id="1"><path d="M0 842L0 0L0 0L595 0L595 0L595 842L595 842L0 842z" /></clipPath></defs></svg>