<svg xmlns="http://www.w3.org/2000/svg" xmlns:xlink="http://www.w3.org/1999/xlink" id="body_2" preserveAspectRatio="xMinYMin meet" viewBox="0 0 793 1123"><g transform="matrix(1.333333 0 0 1.333333 0 0)"><g><g clip-path="url(#1)"><path transform="matrix(1 0 0 -1 0 842)" d="M90 708.12L505 708.12L505 708.12L505 709.12L505 709.12L90 709.12z" stroke="#999999" stroke-width="1" fill="none" /><path transform="matrix(1 0 0 -1 0 842)" d="M90 626.698L171.649 626.698" stroke="#0000FF" stroke-width="0.686" fill="none" /><path transform="matrix(1 0 0 -1 0 842)" d="M188.456 626.698L273.969 626.698" stroke="#0000FF" stroke-width="0.686" fill="none" /><path transform="matrix(1 0 0 -1 0 842)" d="M90 492.877L505 492.877L505 492.877L505 493.877L505 493.877L90 493.877z" stroke="#999999" stroke-width="1" fill="none" /></g></g></g><defs><clipPath id="1"><path d="M0 842L0 0L0 0L595 0L595 0L595 842L595 842L0 842z" /></clipPath></defs></svg>