<svg xmlns="http://www.w3.org/2000/svg" xmlns:xlink="http://www.w3.org/1999/xlink" id="body_3" preserveAspectRatio="xMinYMin meet" viewBox="0 0 793 1121"><g transform="matrix(1.333333 0 0 1.333333 0 0)"><g><g clip-path="url(#1)"><path transform="matrix(1 0 0 -1 0 841)" d="M57 681.22L147.024 681.22L147.024 681.22L147.024 696.22L147.024 696.22L57 696.22z" stroke="none" fill="#FFFFFF" fill-rule="evenodd" /><path transform="matrix(1 0 0 -1 0 841)" d="M57 650.26L147.024 650.26L147.024 650.26L147.024 665.26L147.024 665.26L57 665.26z" stroke="none" fill="#FFFFFF" fill-rule="evenodd" /><path transform="matrix(1 0 0 -1 0 841)" d="M57 665.26L147.024 665.26L147.024 665.26L147.024 681.22L147.024 681.22L57 681.22z" stroke="none" fill="#FFFFFF" fill-rule="evenodd" /><path transform="matrix(1 0 0 -1 0 841)" d="M147.5 681.22L326.47 681.22L326.47 681.22L326.47 696.22L326.47 696.22L147.5 696.22z" stroke="none" fill="#FFFFFF" fill-rule="evenodd" /><path transform="matrix(1 0 0 -1 0 841)" d="M147.5 650.26L326.47 650.26L326.47 650.26L326.47 665.26L326.47 665.26L147.5 665.26z" stroke="none" fill="#FFFFFF" fill-rule="evenodd" /><path transform="matrix(1 0 0 -1 0 841)" d="M147.5 665.26L326.47 665.26L326.47 665.26L326.47 681.22L326.47 681.22L147.5 681.22z" stroke="none" fill="#FFFFFF" fill-rule="evenodd" /><path transform="matrix(1 0 0 -1 0 841)" d="M327.07 681.22L473.13 681.22L473.13 681.22L473.13 696.22L473.13 696.22L327.07 696.22z" stroke="none" fill="#FFFFFF" fill-rule="evenodd" /><path transform="matrix(1 0 0 -1 0 841)" d="M327.07 650.26L473.13 650.26L473.13 650.26L473.13 665.26L473.13 665.26L327.07 665.26z" stroke="none" fill="#FFFFFF" fill-rule="evenodd" /><path transform="matrix(1 0 0 -1 0 841)" d="M327.07 665.26L473.13 665.26L473.13 665.26L473.13 681.22L473.13 681.22L327.07 681.22z" stroke="none" fill="#FFFFFF" fill-rule="evenodd" /><path transform="matrix(1 0 0 -1 0 841)" d="M473.62 689.14L534.82 689.14L534.82 689.14L534.82 696.22L534.82 696.22L473.62 696.22z" stroke="none" fill="#FFFFFF" fill-rule="evenodd" /><path transform="matrix(1 0 0 -1 0 841)" d="M473.62 650.26L534.82 650.26L534.82 650.26L534.82 657.34L534.82 657.34L473.62 657.34z" stroke="none" fill="#FFFFFF" fill-rule="evenodd" /><path transform="matrix(1 0 0 -1 0 841)" d="M473.62 673.18L534.82 673.18L534.82 673.18L534.82 689.14L534.82 689.14L473.62 689.14z" stroke="none" fill="#FFFFFF" fill-rule="evenodd" /><path transform="matrix(1 0 0 -1 0 841)" d="M473.62 657.34L534.82 657.34L534.82 657.34L534.82 673.1801L534.82 673.1801L473.62 673.1801z" stroke="none" fill="#FFFFFF" fill-rule="evenodd" /><path transform="matrix(1 0 0 -1 0 841)" d="M56.4 696.34L56.88 696.34L56.88 696.34L56.88 696.82L56.88 696.82L56.4 696.82z" stroke="none" fill="#000000" fill-rule="evenodd" /><path transform="matrix(1 0 0 -1 0 841)" d="M56.4 696.34L56.88 696.34L56.88 696.34L56.88 696.82L56.88 696.82L56.4 696.82z" stroke="none" fill="#000000" fill-rule="evenodd" /><path transform="matrix(1 0 0 -1 0 841)" d="M56.88 696.34L146.904 696.34L146.904 696.34L146.904 696.82L146.904 696.82L56.88 696.82z" stroke="none" fill="#000000" fill-rule="evenodd" /><path transform="matrix(1 0 0 -1 0 841)" d="M146.9 696.34L147.38 696.34L147.38 696.34L147.38 696.82L147.38 696.82L146.9 696.82z" stroke="none" fill="#000000" fill-rule="evenodd" /><path transform="matrix(1 0 0 -1 0 841)" d="M147.38 696.34L326.47 696.34L326.47 696.34L326.47 696.82L326.47 696.82L147.38 696.82z" stroke="none" fill="#000000" fill-rule="evenodd" /><path transform="matrix(1 0 0 -1 0 841)" d="M326.47 696.34L326.95 696.34L326.95 696.34L326.95 696.82L326.95 696.82L326.47 696.82z" stroke="none" fill="#000000" fill-rule="evenodd" /><path transform="matrix(1 0 0 -1 0 841)" d="M326.95 696.34L473.01 696.34L473.01 696.34L473.01 696.82L473.01 696.82L326.95 696.82z" stroke="none" fill="#000000" fill-rule="evenodd" /><path transform="matrix(1 0 0 -1 0 841)" d="M473.02 696.34L473.5 696.34L473.5 696.34L473.5 696.82L473.5 696.82L473.02 696.82z" stroke="none" fill="#000000" fill-rule="evenodd" /><path transform="matrix(1 0 0 -1 0 841)" d="M473.5 696.34L534.7 696.34L534.7 696.34L534.7 696.82L534.7 696.82L473.5 696.82z" stroke="none" fill="#000000" fill-rule="evenodd" /><path transform="matrix(1 0 0 -1 0 841)" d="M534.7 696.34L535.1801 696.34L535.1801 696.34L535.1801 696.82L535.1801 696.82L534.7 696.82z" stroke="none" fill="#000000" fill-rule="evenodd" /><path transform="matrix(1 0 0 -1 0 841)" d="M534.7 696.34L535.1801 696.34L535.1801 696.34L535.1801 696.82L535.1801 696.82L534.7 696.82z" stroke="none" fill="#000000" fill-rule="evenodd" /><path transform="matrix(1 0 0 -1 0 841)" d="M56.4 650.26L56.88 650.26L56.88 650.26L56.88 696.34L56.88 696.34L56.4 696.34z" stroke="none" fill="#000000" fill-rule="evenodd" /><path transform="matrix(1 0 0 -1 0 841)" d="M146.9 650.26L147.38 650.26L147.38 650.26L147.38 696.34L147.38 696.34L146.9 696.34z" stroke="none" fill="#000000" fill-rule="evenodd" /><path transform="matrix(1 0 0 -1 0 841)" d="M326.47 650.26L326.95 650.26L326.95 650.26L326.95 696.34L326.95 696.34L326.47 696.34z" stroke="none" fill="#000000" fill-rule="evenodd" /><path transform="matrix(1 0 0 -1 0 841)" d="M473.02 650.26L473.5 650.26L473.5 650.26L473.5 696.34L473.5 696.34L473.02 696.34z" stroke="none" fill="#000000" fill-rule="evenodd" /><path transform="matrix(1 0 0 -1 0 841)" d="M534.7 650.26L535.1801 650.26L535.1801 650.26L535.1801 696.34L535.1801 696.34L534.7 696.34z" stroke="none" fill="#000000" fill-rule="evenodd" /><path transform="matrix(1 0 0 -1 0 841)" d="M57 630.46L147.024 630.46L147.024 630.46L147.024 633.82L147.024 633.82L57 633.82z" stroke="none" fill="#FFFFFF" fill-rule="evenodd" /><path transform="matrix(1 0 0 -1 0 841)" d="M57 633.82L147.024 633.82L147.024 633.82L147.024 649.66L147.024 649.66L57 649.66z" stroke="none" fill="#FFFFFF" fill-rule="evenodd" /><path transform="matrix(1 0 0 -1 0 841)" d="M147.5 630.46L326.47 630.46L326.47 630.46L326.47 633.82L326.47 633.82L147.5 633.82z" stroke="none" fill="#FFFFFF" fill-rule="evenodd" /><path transform="matrix(1 0 0 -1 0 841)" d="M147.5 633.82L326.47 633.82L326.47 633.82L326.47 649.66L326.47 649.66L147.5 649.66z" stroke="none" fill="#FFFFFF" fill-rule="evenodd" /><path transform="matrix(1 0 0 -1 0 841)" d="M327.07 630.46L473.13 630.46L473.13 630.46L473.13 633.82L473.13 633.82L327.07 633.82z" stroke="none" fill="#FFFFFF" fill-rule="evenodd" /><path transform="matrix(1 0 0 -1 0 841)" d="M327.07 633.82L473.13 633.82L473.13 633.82L473.13 649.66L473.13 649.66L327.07 649.66z" stroke="none" fill="#FFFFFF" fill-rule="evenodd" /><path transform="matrix(1 0 0 -1 0 841)" d="M473.62 630.46L534.82 630.46L534.82 630.46L534.82 633.82L534.82 633.82L473.62 633.82z" stroke="none" fill="#FFFFFF" fill-rule="evenodd" /><path transform="matrix(1 0 0 -1 0 841)" d="M473.62 633.82L534.82 633.82L534.82 633.82L534.82 649.66L534.82 649.66L473.62 649.66z" stroke="none" fill="#FFFFFF" fill-rule="evenodd" /><path transform="matrix(1 0 0 -1 0 841)" d="M56.4 649.78L56.88 649.78L56.88 649.78L56.88 650.26L56.88 650.26L56.4 650.26z" stroke="none" fill="#000000" fill-rule="evenodd" /><path transform="matrix(1 0 0 -1 0 841)" d="M56.88 649.78L146.904 649.78L146.904 649.78L146.904 650.26L146.904 650.26L56.88 650.26z" stroke="none" fill="#000000" fill-rule="evenodd" /><path transform="matrix(1 0 0 -1 0 841)" d="M146.9 649.78L147.38 649.78L147.38 649.78L147.38 650.26L147.38 650.26L146.9 650.26z" stroke="none" fill="#000000" fill-rule="evenodd" /><path transform="matrix(1 0 0 -1 0 841)" d="M147.38 649.78L326.47 649.78L326.47 649.78L326.47 650.26L326.47 650.26L147.38 650.26z" stroke="none" fill="#000000" fill-rule="evenodd" /><path transform="matrix(1 0 0 -1 0 841)" d="M326.47 649.78L326.95 649.78L326.95 649.78L326.95 650.26L326.95 650.26L326.47 650.26z" stroke="none" fill="#000000" fill-rule="evenodd" /><path transform="matrix(1 0 0 -1 0 841)" d="M326.95 649.78L473.01 649.78L473.01 649.78L473.01 650.26L473.01 650.26L326.95 650.26z" stroke="none" fill="#000000" fill-rule="evenodd" /><path transform="matrix(1 0 0 -1 0 841)" d="M473.02 649.78L473.5 649.78L473.5 649.78L473.5 650.26L473.5 650.26L473.02 650.26z" stroke="none" fill="#000000" fill-rule="evenodd" /><path transform="matrix(1 0 0 -1 0 841)" d="M473.5 649.78L534.7 649.78L534.7 649.78L534.7 650.26L534.7 650.26L473.5 650.26z" stroke="none" fill="#000000" fill-rule="evenodd" /><path transform="matrix(1 0 0 -1 0 841)" d="M534.7 649.78L535.1801 649.78L535.1801 649.78L535.1801 650.26L535.1801 650.26L534.7 650.26z" stroke="none" fill="#000000" fill-rule="evenodd" /><path transform="matrix(1 0 0 -1 0 841)" d="M56.4 630.46L56.88 630.46L56.88 630.46L56.88 649.78L56.88 649.78L56.4 649.78z" stroke="none" fill="#000000" fill-rule="evenodd" /><path transform="matrix(1 0 0 -1 0 841)" d="M146.9 630.46L147.38 630.46L147.38 630.46L147.38 649.78L147.38 649.78L146.9 649.78z" stroke="none" fill="#000000" fill-rule="evenodd" /><path transform="matrix(1 0 0 -1 0 841)" d="M326.47 630.46L326.95 630.46L326.95 630.46L326.95 649.78L326.95 649.78L326.47 649.78z" stroke="none" fill="#000000" fill-rule="evenodd" /><path transform="matrix(1 0 0 -1 0 841)" d="M473.02 630.46L473.5 630.46L473.5 630.46L473.5 649.78L473.5 649.78L473.02 649.78z" stroke="none" fill="#000000" fill-rule="evenodd" /><path transform="matrix(1 0 0 -1 0 841)" d="M534.7 630.46L535.1801 630.46L535.1801 630.46L535.1801 649.78L535.1801 649.78L534.7 649.78z" stroke="none" fill="#000000" fill-rule="evenodd" /><path transform="matrix(1 0 0 -1 0 841)" d="M57 627.22L147.264 627.22L147.264 627.22L147.264 629.98L147.264 629.98L57 629.98z" stroke="none" fill="#FFFFFF" fill-rule="evenodd" /><path transform="matrix(1 0 0 -1 0 841)" d="M57 611.38L59.4 611.38L59.4 611.38L59.4 627.22L59.4 627.22L57 627.22z" stroke="none" fill="#FFFFFF" fill-rule="evenodd" /><path transform="matrix(1 0 0 -1 0 841)" d="M144.5 611.38L147.26 611.38L147.26 611.38L147.26 627.22L147.26 627.22L144.5 627.22z" stroke="none" fill="#FFFFFF" fill-rule="evenodd" /><path transform="matrix(1 0 0 -1 0 841)" d="M57 602.02L147.264 602.02L147.264 602.02L147.264 611.38L147.264 611.38L57 611.38z" stroke="none" fill="#FFFFFF" fill-rule="evenodd" /><path transform="matrix(1 0 0 -1 0 841)" d="M59.4 611.38L144.504 611.38L144.504 611.38L144.504 627.22L144.504 627.22L59.4 627.22z" stroke="none" fill="#FFFFFF" fill-rule="evenodd" /><path transform="matrix(1 0 0 -1 0 841)" d="M147.5 627.22L326.71 627.22L326.71 627.22L326.71 629.98L326.71 629.98L147.5 629.98z" stroke="none" fill="#FFFFFF" fill-rule="evenodd" /><path transform="matrix(1 0 0 -1 0 841)" d="M147.5 611.38L150.02 611.38L150.02 611.38L150.02 627.22L150.02 627.22L147.5 627.22z" stroke="none" fill="#FFFFFF" fill-rule="evenodd" /><path transform="matrix(1 0 0 -1 0 841)" d="M324.07 611.38L326.71 611.38L326.71 611.38L326.71 627.22L326.71 627.22L324.07 627.22z" stroke="none" fill="#FFFFFF" fill-rule="evenodd" /><path transform="matrix(1 0 0 -1 0 841)" d="M147.5 602.02L326.71 602.02L326.71 602.02L326.71 611.38L326.71 611.38L147.5 611.38z" stroke="none" fill="#FFFFFF" fill-rule="evenodd" /><path transform="matrix(1 0 0 -1 0 841)" d="M150.02 611.38L324.07 611.38L324.07 611.38L324.07 627.22L324.07 627.22L150.02 627.22z" stroke="none" fill="#FFFFFF" fill-rule="evenodd" /><path transform="matrix(1 0 0 -1 0 841)" d="M327.07 627.22L473.37 627.22L473.37 627.22L473.37 629.98L473.37 629.98L327.07 629.98z" stroke="none" fill="#FFFFFF" fill-rule="evenodd" /><path transform="matrix(1 0 0 -1 0 841)" d="M327.07 611.38L329.47 611.38L329.47 611.38L329.47 627.22L329.47 627.22L327.07 627.22z" stroke="none" fill="#FFFFFF" fill-rule="evenodd" /><path transform="matrix(1 0 0 -1 0 841)" d="M470.62 611.38L473.38 611.38L473.38 611.38L473.38 627.22L473.38 627.22L470.62 627.22z" stroke="none" fill="#FFFFFF" fill-rule="evenodd" /><path transform="matrix(1 0 0 -1 0 841)" d="M327.07 602.02L473.37 602.02L473.37 602.02L473.37 611.38L473.37 611.38L327.07 611.38z" stroke="none" fill="#FFFFFF" fill-rule="evenodd" /><path transform="matrix(1 0 0 -1 0 841)" d="M329.47 611.38L470.61 611.38L470.61 611.38L470.61 627.22L470.61 627.22L329.47 627.22z" stroke="none" fill="#FFFFFF" fill-rule="evenodd" /><path transform="matrix(1 0 0 -1 0 841)" d="M473.62 627.22L534.82 627.22L534.82 627.22L534.82 629.98L534.82 629.98L473.62 629.98z" stroke="none" fill="#FFFFFF" fill-rule="evenodd" /><path transform="matrix(1 0 0 -1 0 841)" d="M473.62 611.38L476.14 611.38L476.14 611.38L476.14 627.22L476.14 627.22L473.62 627.22z" stroke="none" fill="#FFFFFF" fill-rule="evenodd" /><path transform="matrix(1 0 0 -1 0 841)" d="M532.3 611.38L534.82 611.38L534.82 611.38L534.82 627.22L534.82 627.22L532.3 627.22z" stroke="none" fill="#FFFFFF" fill-rule="evenodd" /><path transform="matrix(1 0 0 -1 0 841)" d="M473.62 602.02L534.82 602.02L534.82 602.02L534.82 611.38L534.82 611.38L473.62 611.38z" stroke="none" fill="#FFFFFF" fill-rule="evenodd" /><path transform="matrix(1 0 0 -1 0 841)" d="M476.14 611.38L532.3 611.38L532.3 611.38L532.3 627.22L532.3 627.22L476.14 627.22z" stroke="none" fill="#FFFFFF" fill-rule="evenodd" /><path transform="matrix(1 0 0 -1 0 841)" d="M56.4 627.22L56.88 627.22L56.88 627.22L56.88 630.46L56.88 630.46L56.4 630.46z" stroke="none" fill="#000000" fill-rule="evenodd" /><path transform="matrix(1 0 0 -1 0 841)" d="M56.88 629.98L146.904 629.98L146.904 629.98L146.904 630.46L146.904 630.46L56.88 630.46z" stroke="none" fill="#000000" fill-rule="evenodd" /><path transform="matrix(1 0 0 -1 0 841)" d="M56.88 627.22L146.904 627.22L146.904 627.22L146.904 629.98L146.904 629.98L56.88 629.98z" stroke="none" fill="#FFFFFF" fill-rule="evenodd" /><path transform="matrix(1 0 0 -1 0 841)" d="M146.9 627.22L147.38 627.22L147.38 627.22L147.38 630.46L147.38 630.46L146.9 630.46z" stroke="none" fill="#000000" fill-rule="evenodd" /><path transform="matrix(1 0 0 -1 0 841)" d="M147.38 629.98L326.47 629.98L326.47 629.98L326.47 630.46L326.47 630.46L147.38 630.46z" stroke="none" fill="#000000" fill-rule="evenodd" /><path transform="matrix(1 0 0 -1 0 841)" d="M147.38 627.22L326.47 627.22L326.47 627.22L326.47 629.98L326.47 629.98L147.38 629.98z" stroke="none" fill="#FFFFFF" fill-rule="evenodd" /><path transform="matrix(1 0 0 -1 0 841)" d="M326.47 627.22L326.95 627.22L326.95 627.22L326.95 630.46L326.95 630.46L326.47 630.46z" stroke="none" fill="#000000" fill-rule="evenodd" /><path transform="matrix(1 0 0 -1 0 841)" d="M326.95 629.98L473.01 629.98L473.01 629.98L473.01 630.46L473.01 630.46L326.95 630.46z" stroke="none" fill="#000000" fill-rule="evenodd" /><path transform="matrix(1 0 0 -1 0 841)" d="M326.95 627.22L473.01 627.22L473.01 627.22L473.01 629.98L473.01 629.98L326.95 629.98z" stroke="none" fill="#FFFFFF" fill-rule="evenodd" /><path transform="matrix(1 0 0 -1 0 841)" d="M473.02 627.22L473.5 627.22L473.5 627.22L473.5 630.46L473.5 630.46L473.02 630.46z" stroke="none" fill="#000000" fill-rule="evenodd" /><path transform="matrix(1 0 0 -1 0 841)" d="M473.5 629.98L534.7 629.98L534.7 629.98L534.7 630.46L534.7 630.46L473.5 630.46z" stroke="none" fill="#000000" fill-rule="evenodd" /><path transform="matrix(1 0 0 -1 0 841)" d="M473.5 627.22L534.7 627.22L534.7 627.22L534.7 629.98L534.7 629.98L473.5 629.98z" stroke="none" fill="#FFFFFF" fill-rule="evenodd" /><path transform="matrix(1 0 0 -1 0 841)" d="M534.7 627.22L535.1801 627.22L535.1801 627.22L535.1801 630.46L535.1801 630.46L534.7 630.46z" stroke="none" fill="#000000" fill-rule="evenodd" /><path transform="matrix(1 0 0 -1 0 841)" d="M56.64 602.02L147.144 602.02L147.144 602.02L147.144 604.78L147.144 604.78L56.64 604.78z" stroke="none" fill="#FFFFFF" fill-rule="evenodd" /><path transform="matrix(1 0 0 -1 0 841)" d="M56.4 602.02L56.88 602.02L56.88 602.02L56.88 627.22L56.88 627.22L56.4 627.22z" stroke="none" fill="#000000" fill-rule="evenodd" /><path transform="matrix(1 0 0 -1 0 841)" d="M147.14 602.02L326.71 602.02L326.71 602.02L326.71 604.78L326.71 604.78L147.14 604.78z" stroke="none" fill="#FFFFFF" fill-rule="evenodd" /><path transform="matrix(1 0 0 -1 0 841)" d="M146.9 602.02L147.38 602.02L147.38 602.02L147.38 627.22L147.38 627.22L146.9 627.22z" stroke="none" fill="#000000" fill-rule="evenodd" /><path transform="matrix(1 0 0 -1 0 841)" d="M326.71 602.02L473.25 602.02L473.25 602.02L473.25 604.78L473.25 604.78L326.71 604.78z" stroke="none" fill="#FFFFFF" fill-rule="evenodd" /><path transform="matrix(1 0 0 -1 0 841)" d="M326.47 602.02L326.95 602.02L326.95 602.02L326.95 627.22L326.95 627.22L326.47 627.22z" stroke="none" fill="#000000" fill-rule="evenodd" /><path transform="matrix(1 0 0 -1 0 841)" d="M473.26 602.02L534.94 602.02L534.94 602.02L534.94 604.78L534.94 604.78L473.26 604.78z" stroke="none" fill="#FFFFFF" fill-rule="evenodd" /><path transform="matrix(1 0 0 -1 0 841)" d="M473.02 602.02L473.5 602.02L473.5 602.02L473.5 627.22L473.5 627.22L473.02 627.22z" stroke="none" fill="#000000" fill-rule="evenodd" /><path transform="matrix(1 0 0 -1 0 841)" d="M534.7 602.02L535.1801 602.02L535.1801 602.02L535.1801 627.22L535.1801 627.22L534.7 627.22z" stroke="none" fill="#000000" fill-rule="evenodd" /><path transform="matrix(1 0 0 -1 0 841)" d="M57 582.58L147.024 582.58L147.024 582.58L147.024 585.7L147.024 585.7L57 585.7z" stroke="none" fill="#FFFFFF" fill-rule="evenodd" /><path transform="matrix(1 0 0 -1 0 841)" d="M57 585.7L147.024 585.7L147.024 585.7L147.024 601.54L147.024 601.54L57 601.54z" stroke="none" fill="#FFFFFF" fill-rule="evenodd" /><path transform="matrix(1 0 0 -1 0 841)" d="M147.5 582.58L326.47 582.58L326.47 582.58L326.47 585.7L326.47 585.7L147.5 585.7z" stroke="none" fill="#FFFFFF" fill-rule="evenodd" /><path transform="matrix(1 0 0 -1 0 841)" d="M147.5 585.7L326.47 585.7L326.47 585.7L326.47 601.54L326.47 601.54L147.5 601.54z" stroke="none" fill="#FFFFFF" fill-rule="evenodd" /><path transform="matrix(1 0 0 -1 0 841)" d="M327.07 582.58L473.13 582.58L473.13 582.58L473.13 585.7L473.13 585.7L327.07 585.7z" stroke="none" fill="#FFFFFF" fill-rule="evenodd" /><path transform="matrix(1 0 0 -1 0 841)" d="M327.07 585.7L473.13 585.7L473.13 585.7L473.13 601.54L473.13 601.54L327.07 601.54z" stroke="none" fill="#FFFFFF" fill-rule="evenodd" /><path transform="matrix(1 0 0 -1 0 841)" d="M473.62 582.58L534.82 582.58L534.82 582.58L534.82 585.7L534.82 585.7L473.62 585.7z" stroke="none" fill="#FFFFFF" fill-rule="evenodd" /><path transform="matrix(1 0 0 -1 0 841)" d="M473.62 585.7L534.82 585.7L534.82 585.7L534.82 601.54L534.82 601.54L473.62 601.54z" stroke="none" fill="#FFFFFF" fill-rule="evenodd" /><path transform="matrix(1 0 0 -1 0 841)" d="M56.4 601.54L56.88 601.54L56.88 601.54L56.88 602.02L56.88 602.02L56.4 602.02z" stroke="none" fill="#000000" fill-rule="evenodd" /><path transform="matrix(1 0 0 -1 0 841)" d="M56.88 601.54L146.904 601.54L146.904 601.54L146.904 602.02L146.904 602.02L56.88 602.02z" stroke="none" fill="#000000" fill-rule="evenodd" /><path transform="matrix(1 0 0 -1 0 841)" d="M146.9 601.54L147.38 601.54L147.38 601.54L147.38 602.02L147.38 602.02L146.9 602.02z" stroke="none" fill="#000000" fill-rule="evenodd" /><path transform="matrix(1 0 0 -1 0 841)" d="M147.38 601.54L326.47 601.54L326.47 601.54L326.47 602.02L326.47 602.02L147.38 602.02z" stroke="none" fill="#000000" fill-rule="evenodd" /><path transform="matrix(1 0 0 -1 0 841)" d="M326.47 601.54L326.95 601.54L326.95 601.54L326.95 602.02L326.95 602.02L326.47 602.02z" stroke="none" fill="#000000" fill-rule="evenodd" /><path transform="matrix(1 0 0 -1 0 841)" d="M326.95 601.54L473.01 601.54L473.01 601.54L473.01 602.02L473.01 602.02L326.95 602.02z" stroke="none" fill="#000000" fill-rule="evenodd" /><path transform="matrix(1 0 0 -1 0 841)" d="M473.02 601.54L473.5 601.54L473.5 601.54L473.5 602.02L473.5 602.02L473.02 602.02z" stroke="none" fill="#000000" fill-rule="evenodd" /><path transform="matrix(1 0 0 -1 0 841)" d="M473.5 601.54L534.7 601.54L534.7 601.54L534.7 602.02L534.7 602.02L473.5 602.02z" stroke="none" fill="#000000" fill-rule="evenodd" /><path transform="matrix(1 0 0 -1 0 841)" d="M534.7 601.54L535.1801 601.54L535.1801 601.54L535.1801 602.02L535.1801 602.02L534.7 602.02z" stroke="none" fill="#000000" fill-rule="evenodd" /><path transform="matrix(1 0 0 -1 0 841)" d="M56.4 582.58L56.88 582.58L56.88 582.58L56.88 601.54L56.88 601.54L56.4 601.54z" stroke="none" fill="#000000" fill-rule="evenodd" /><path transform="matrix(1 0 0 -1 0 841)" d="M146.9 582.58L147.38 582.58L147.38 582.58L147.38 601.54L147.38 601.54L146.9 601.54z" stroke="none" fill="#000000" fill-rule="evenodd" /><path transform="matrix(1 0 0 -1 0 841)" d="M326.47 582.58L326.95 582.58L326.95 582.58L326.95 601.54L326.95 601.54L326.47 601.54z" stroke="none" fill="#000000" fill-rule="evenodd" /><path transform="matrix(1 0 0 -1 0 841)" d="M473.02 582.58L473.5 582.58L473.5 582.58L473.5 601.54L473.5 601.54L473.02 601.54z" stroke="none" fill="#000000" fill-rule="evenodd" /><path transform="matrix(1 0 0 -1 0 841)" d="M534.7 582.58L535.1801 582.58L535.1801 582.58L535.1801 601.54L535.1801 601.54L534.7 601.54z" stroke="none" fill="#000000" fill-rule="evenodd" /><path transform="matrix(1 0 0 -1 0 841)" d="M57 502.87L147.024 502.87L147.024 502.87L147.024 566.11L147.024 566.11L57 566.11z" stroke="none" fill="#FFFFFF" fill-rule="evenodd" /><path transform="matrix(1 0 0 -1 0 841)" d="M57 566.11L147.024 566.11L147.024 566.11L147.024 582.094L147.024 582.094L57 582.094z" stroke="none" fill="#FFFFFF" fill-rule="evenodd" /><path transform="matrix(1 0 0 -1 0 841)" d="M147.5 502.87L326.47 502.87L326.47 502.87L326.47 550.27L326.47 550.27L147.5 550.27z" stroke="none" fill="#FFFFFF" fill-rule="evenodd" /><path transform="matrix(1 0 0 -1 0 841)" d="M147.5 566.11L326.47 566.11L326.47 566.11L326.47 582.094L326.47 582.094L147.5 582.094z" stroke="none" fill="#FFFFFF" fill-rule="evenodd" /><path transform="matrix(1 0 0 -1 0 841)" d="M147.5 550.27L326.47 550.27L326.47 550.27L326.47 566.11L326.47 566.11L147.5 566.11z" stroke="none" fill="#FFFFFF" fill-rule="evenodd" /><path transform="matrix(1 0 0 -1 0 841)" d="M327.07 566.11L473.13 566.11L473.13 566.11L473.13 582.094L473.13 582.094L327.07 582.094z" stroke="none" fill="#FFFFFF" fill-rule="evenodd" /><path transform="matrix(1 0 0 -1 0 841)" d="M327.07 550.27L473.13 550.27L473.13 550.27L473.13 566.11L473.13 566.11L327.07 566.11z" stroke="none" fill="#FFFFFF" fill-rule="evenodd" /><path transform="matrix(1 0 0 -1 0 841)" d="M327.07 534.43L473.13 534.43L473.13 534.43L473.13 550.27L473.13 550.27L327.07 550.27z" stroke="none" fill="#FFFFFF" fill-rule="evenodd" /><path transform="matrix(1 0 0 -1 0 841)" d="M327.07 518.59L473.13 518.59L473.13 518.59L473.13 534.4301L473.13 534.4301L327.07 534.4301z" stroke="none" fill="#FFFFFF" fill-rule="evenodd" /><path transform="matrix(1 0 0 -1 0 841)" d="M327.07 502.87L473.13 502.87L473.13 502.87L473.13 518.59L473.13 518.59L327.07 518.59z" stroke="none" fill="#FFFFFF" fill-rule="evenodd" /><path transform="matrix(1 0 0 -1 0 841)" d="M473.62 502.87L534.82 502.87L534.82 502.87L534.82 566.11L534.82 566.11L473.62 566.11z" stroke="none" fill="#FFFFFF" fill-rule="evenodd" /><path transform="matrix(1 0 0 -1 0 841)" d="M473.62 566.11L534.82 566.11L534.82 566.11L534.82 582.094L534.82 582.094L473.62 582.094z" stroke="none" fill="#FFFFFF" fill-rule="evenodd" /><path transform="matrix(1 0 0 -1 0 841)" d="M56.4 582.1L56.88 582.1L56.88 582.1L56.88 582.58L56.88 582.58L56.4 582.58z" stroke="none" fill="#000000" fill-rule="evenodd" /><path transform="matrix(1 0 0 -1 0 841)" d="M56.88 582.1L146.904 582.1L146.904 582.1L146.904 582.58L146.904 582.58L56.88 582.58z" stroke="none" fill="#000000" fill-rule="evenodd" /><path transform="matrix(1 0 0 -1 0 841)" d="M146.9 582.1L147.38 582.1L147.38 582.1L147.38 582.58L147.38 582.58L146.9 582.58z" stroke="none" fill="#000000" fill-rule="evenodd" /><path transform="matrix(1 0 0 -1 0 841)" d="M147.38 582.1L326.47 582.1L326.47 582.1L326.47 582.58L326.47 582.58L147.38 582.58z" stroke="none" fill="#000000" fill-rule="evenodd" /><path transform="matrix(1 0 0 -1 0 841)" d="M326.47 582.1L326.95 582.1L326.95 582.1L326.95 582.58L326.95 582.58L326.47 582.58z" stroke="none" fill="#000000" fill-rule="evenodd" /><path transform="matrix(1 0 0 -1 0 841)" d="M326.95 582.1L473.01 582.1L473.01 582.1L473.01 582.58L473.01 582.58L326.95 582.58z" stroke="none" fill="#000000" fill-rule="evenodd" /><path transform="matrix(1 0 0 -1 0 841)" d="M473.02 582.1L473.5 582.1L473.5 582.1L473.5 582.58L473.5 582.58L473.02 582.58z" stroke="none" fill="#000000" fill-rule="evenodd" /><path transform="matrix(1 0 0 -1 0 841)" d="M473.5 582.1L534.7 582.1L534.7 582.1L534.7 582.58L534.7 582.58L473.5 582.58z" stroke="none" fill="#000000" fill-rule="evenodd" /><path transform="matrix(1 0 0 -1 0 841)" d="M534.7 582.1L535.1801 582.1L535.1801 582.1L535.1801 582.58L535.1801 582.58L534.7 582.58z" stroke="none" fill="#000000" fill-rule="evenodd" /><path transform="matrix(1 0 0 -1 0 841)" d="M56.4 502.87L56.88 502.87L56.88 502.87L56.88 582.094L56.88 582.094L56.4 582.094z" stroke="none" fill="#000000" fill-rule="evenodd" /><path transform="matrix(1 0 0 -1 0 841)" d="M146.9 502.87L147.38 502.87L147.38 502.87L147.38 582.094L147.38 582.094L146.9 582.094z" stroke="none" fill="#000000" fill-rule="evenodd" /><path transform="matrix(1 0 0 -1 0 841)" d="M326.47 502.87L326.95 502.87L326.95 502.87L326.95 582.094L326.95 582.094L326.47 582.094z" stroke="none" fill="#000000" fill-rule="evenodd" /><path transform="matrix(1 0 0 -1 0 841)" d="M473.02 502.87L473.5 502.87L473.5 502.87L473.5 582.094L473.5 582.094L473.02 582.094z" stroke="none" fill="#000000" fill-rule="evenodd" /><path transform="matrix(1 0 0 -1 0 841)" d="M534.7 502.87L535.1801 502.87L535.1801 502.87L535.1801 582.094L535.1801 582.094L534.7 582.094z" stroke="none" fill="#000000" fill-rule="evenodd" /><path transform="matrix(1 0 0 -1 0 841)" d="M57 483.67L147.024 483.67L147.024 483.67L147.024 486.43L147.024 486.43L57 486.43z" stroke="none" fill="#FFFFFF" fill-rule="evenodd" /><path transform="matrix(1 0 0 -1 0 841)" d="M57 486.43L147.024 486.43L147.024 486.43L147.024 502.39L147.024 502.39L57 502.39z" stroke="none" fill="#FFFFFF" fill-rule="evenodd" /><path transform="matrix(1 0 0 -1 0 841)" d="M147.5 483.67L326.47 483.67L326.47 483.67L326.47 486.43L326.47 486.43L147.5 486.43z" stroke="none" fill="#FFFFFF" fill-rule="evenodd" /><path transform="matrix(1 0 0 -1 0 841)" d="M147.5 486.43L326.47 486.43L326.47 486.43L326.47 502.39L326.47 502.39L147.5 502.39z" stroke="none" fill="#FFFFFF" fill-rule="evenodd" /><path transform="matrix(1 0 0 -1 0 841)" d="M327.07 483.67L473.13 483.67L473.13 483.67L473.13 486.43L473.13 486.43L327.07 486.43z" stroke="none" fill="#FFFFFF" fill-rule="evenodd" /><path transform="matrix(1 0 0 -1 0 841)" d="M327.07 486.43L473.13 486.43L473.13 486.43L473.13 502.39L473.13 502.39L327.07 502.39z" stroke="none" fill="#FFFFFF" fill-rule="evenodd" /><path transform="matrix(1 0 0 -1 0 841)" d="M473.62 483.67L534.82 483.67L534.82 483.67L534.82 486.43L534.82 486.43L473.62 486.43z" stroke="none" fill="#FFFFFF" fill-rule="evenodd" /><path transform="matrix(1 0 0 -1 0 841)" d="M473.62 486.43L534.82 486.43L534.82 486.43L534.82 502.39L534.82 502.39L473.62 502.39z" stroke="none" fill="#FFFFFF" fill-rule="evenodd" /><path transform="matrix(1 0 0 -1 0 841)" d="M56.4 502.39L56.88 502.39L56.88 502.39L56.88 502.87L56.88 502.87L56.4 502.87z" stroke="none" fill="#000000" fill-rule="evenodd" /><path transform="matrix(1 0 0 -1 0 841)" d="M56.88 502.39L146.904 502.39L146.904 502.39L146.904 502.87L146.904 502.87L56.88 502.87z" stroke="none" fill="#000000" fill-rule="evenodd" /><path transform="matrix(1 0 0 -1 0 841)" d="M146.9 502.39L147.38 502.39L147.38 502.39L147.38 502.87L147.38 502.87L146.9 502.87z" stroke="none" fill="#000000" fill-rule="evenodd" /><path transform="matrix(1 0 0 -1 0 841)" d="M147.38 502.39L326.47 502.39L326.47 502.39L326.47 502.87L326.47 502.87L147.38 502.87z" stroke="none" fill="#000000" fill-rule="evenodd" /><path transform="matrix(1 0 0 -1 0 841)" d="M326.47 502.39L326.95 502.39L326.95 502.39L326.95 502.87L326.95 502.87L326.47 502.87z" stroke="none" fill="#000000" fill-rule="evenodd" /><path transform="matrix(1 0 0 -1 0 841)" d="M326.95 502.39L473.01 502.39L473.01 502.39L473.01 502.87L473.01 502.87L326.95 502.87z" stroke="none" fill="#000000" fill-rule="evenodd" /><path transform="matrix(1 0 0 -1 0 841)" d="M473.02 502.39L473.5 502.39L473.5 502.39L473.5 502.87L473.5 502.87L473.02 502.87z" stroke="none" fill="#000000" fill-rule="evenodd" /><path transform="matrix(1 0 0 -1 0 841)" d="M473.5 502.39L534.7 502.39L534.7 502.39L534.7 502.87L534.7 502.87L473.5 502.87z" stroke="none" fill="#000000" fill-rule="evenodd" /><path transform="matrix(1 0 0 -1 0 841)" d="M534.7 502.39L535.1801 502.39L535.1801 502.39L535.1801 502.87L535.1801 502.87L534.7 502.87z" stroke="none" fill="#000000" fill-rule="evenodd" /><path transform="matrix(1 0 0 -1 0 841)" d="M56.4 483.67L56.88 483.67L56.88 483.67L56.88 502.39L56.88 502.39L56.4 502.39z" stroke="none" fill="#000000" fill-rule="evenodd" /><path transform="matrix(1 0 0 -1 0 841)" d="M146.9 483.67L147.38 483.67L147.38 483.67L147.38 502.39L147.38 502.39L146.9 502.39z" stroke="none" fill="#000000" fill-rule="evenodd" /><path transform="matrix(1 0 0 -1 0 841)" d="M326.47 483.67L326.95 483.67L326.95 483.67L326.95 502.39L326.95 502.39L326.47 502.39z" stroke="none" fill="#000000" fill-rule="evenodd" /><path transform="matrix(1 0 0 -1 0 841)" d="M473.02 483.67L473.5 483.67L473.5 483.67L473.5 502.39L473.5 502.39L473.02 502.39z" stroke="none" fill="#000000" fill-rule="evenodd" /><path transform="matrix(1 0 0 -1 0 841)" d="M534.7 483.67L535.1801 483.67L535.1801 483.67L535.1801 502.39L535.1801 502.39L534.7 502.39z" stroke="none" fill="#000000" fill-rule="evenodd" /><path transform="matrix(1 0 0 -1 0 841)" d="M57 464.23L147.024 464.23L147.024 464.23L147.024 467.23L147.024 467.23L57 467.23z" stroke="none" fill="#FFFFFF" fill-rule="evenodd" /><path transform="matrix(1 0 0 -1 0 841)" d="M57 467.23L147.024 467.23L147.024 467.23L147.024 483.19L147.024 483.19L57 483.19z" stroke="none" fill="#FFFFFF" fill-rule="evenodd" /><path transform="matrix(1 0 0 -1 0 841)" d="M147.5 464.23L326.47 464.23L326.47 464.23L326.47 467.23L326.47 467.23L147.5 467.23z" stroke="none" fill="#FFFFFF" fill-rule="evenodd" /><path transform="matrix(1 0 0 -1 0 841)" d="M147.5 467.23L326.47 467.23L326.47 467.23L326.47 483.19L326.47 483.19L147.5 483.19z" stroke="none" fill="#FFFFFF" fill-rule="evenodd" /><path transform="matrix(1 0 0 -1 0 841)" d="M327.07 464.23L473.13 464.23L473.13 464.23L473.13 467.23L473.13 467.23L327.07 467.23z" stroke="none" fill="#FFFFFF" fill-rule="evenodd" /><path transform="matrix(1 0 0 -1 0 841)" d="M327.07 467.23L473.13 467.23L473.13 467.23L473.13 483.19L473.13 483.19L327.07 483.19z" stroke="none" fill="#FFFFFF" fill-rule="evenodd" /><path transform="matrix(1 0 0 -1 0 841)" d="M473.62 464.23L534.82 464.23L534.82 464.23L534.82 467.23L534.82 467.23L473.62 467.23z" stroke="none" fill="#FFFFFF" fill-rule="evenodd" /><path transform="matrix(1 0 0 -1 0 841)" d="M473.62 467.23L534.82 467.23L534.82 467.23L534.82 483.19L534.82 483.19L473.62 483.19z" stroke="none" fill="#FFFFFF" fill-rule="evenodd" /><path transform="matrix(1 0 0 -1 0 841)" d="M56.4 483.19L56.88 483.19L56.88 483.19L56.88 483.67L56.88 483.67L56.4 483.67z" stroke="none" fill="#000000" fill-rule="evenodd" /><path transform="matrix(1 0 0 -1 0 841)" d="M56.88 483.19L146.904 483.19L146.904 483.19L146.904 483.67L146.904 483.67L56.88 483.67z" stroke="none" fill="#000000" fill-rule="evenodd" /><path transform="matrix(1 0 0 -1 0 841)" d="M146.9 483.19L147.38 483.19L147.38 483.19L147.38 483.67L147.38 483.67L146.9 483.67z" stroke="none" fill="#000000" fill-rule="evenodd" /><path transform="matrix(1 0 0 -1 0 841)" d="M147.38 483.19L326.47 483.19L326.47 483.19L326.47 483.67L326.47 483.67L147.38 483.67z" stroke="none" fill="#000000" fill-rule="evenodd" /><path transform="matrix(1 0 0 -1 0 841)" d="M326.47 483.19L326.95 483.19L326.95 483.19L326.95 483.67L326.95 483.67L326.47 483.67z" stroke="none" fill="#000000" fill-rule="evenodd" /><path transform="matrix(1 0 0 -1 0 841)" d="M326.95 483.19L473.01 483.19L473.01 483.19L473.01 483.67L473.01 483.67L326.95 483.67z" stroke="none" fill="#000000" fill-rule="evenodd" /><path transform="matrix(1 0 0 -1 0 841)" d="M473.02 483.19L473.5 483.19L473.5 483.19L473.5 483.67L473.5 483.67L473.02 483.67z" stroke="none" fill="#000000" fill-rule="evenodd" /><path transform="matrix(1 0 0 -1 0 841)" d="M473.5 483.19L534.7 483.19L534.7 483.19L534.7 483.67L534.7 483.67L473.5 483.67z" stroke="none" fill="#000000" fill-rule="evenodd" /><path transform="matrix(1 0 0 -1 0 841)" d="M534.7 483.19L535.1801 483.19L535.1801 483.19L535.1801 483.67L535.1801 483.67L534.7 483.67z" stroke="none" fill="#000000" fill-rule="evenodd" /><path transform="matrix(1 0 0 -1 0 841)" d="M56.4 464.23L56.88 464.23L56.88 464.23L56.88 483.19L56.88 483.19L56.4 483.19z" stroke="none" fill="#000000" fill-rule="evenodd" /><path transform="matrix(1 0 0 -1 0 841)" d="M146.9 464.23L147.38 464.23L147.38 464.23L147.38 483.19L147.38 483.19L146.9 483.19z" stroke="none" fill="#000000" fill-rule="evenodd" /><path transform="matrix(1 0 0 -1 0 841)" d="M326.47 464.23L326.95 464.23L326.95 464.23L326.95 483.19L326.95 483.19L326.47 483.19z" stroke="none" fill="#000000" fill-rule="evenodd" /><path transform="matrix(1 0 0 -1 0 841)" d="M473.02 464.23L473.5 464.23L473.5 464.23L473.5 483.19L473.5 483.19L473.02 483.19z" stroke="none" fill="#000000" fill-rule="evenodd" /><path transform="matrix(1 0 0 -1 0 841)" d="M534.7 464.23L535.1801 464.23L535.1801 464.23L535.1801 483.19L535.1801 483.19L534.7 483.19z" stroke="none" fill="#000000" fill-rule="evenodd" /><path transform="matrix(1 0 0 -1 0 841)" d="M57 445.03L147.024 445.03L147.024 445.03L147.024 447.79L147.024 447.79L57 447.79z" stroke="none" fill="#FFFFFF" fill-rule="evenodd" /><path transform="matrix(1 0 0 -1 0 841)" d="M57 447.79L147.024 447.79L147.024 447.79L147.024 463.63L147.024 463.63L57 463.63z" stroke="none" fill="#FFFFFF" fill-rule="evenodd" /><path transform="matrix(1 0 0 -1 0 841)" d="M147.5 445.03L326.47 445.03L326.47 445.03L326.47 447.79L326.47 447.79L147.5 447.79z" stroke="none" fill="#FFFFFF" fill-rule="evenodd" /><path transform="matrix(1 0 0 -1 0 841)" d="M147.5 447.79L326.47 447.79L326.47 447.79L326.47 463.63L326.47 463.63L147.5 463.63z" stroke="none" fill="#FFFFFF" fill-rule="evenodd" /><path transform="matrix(1 0 0 -1 0 841)" d="M327.07 445.03L473.13 445.03L473.13 445.03L473.13 447.79L473.13 447.79L327.07 447.79z" stroke="none" fill="#FFFFFF" fill-rule="evenodd" /><path transform="matrix(1 0 0 -1 0 841)" d="M327.07 447.79L473.13 447.79L473.13 447.79L473.13 463.63L473.13 463.63L327.07 463.63z" stroke="none" fill="#FFFFFF" fill-rule="evenodd" /><path transform="matrix(1 0 0 -1 0 841)" d="M473.62 445.03L534.82 445.03L534.82 445.03L534.82 447.79L534.82 447.79L473.62 447.79z" stroke="none" fill="#FFFFFF" fill-rule="evenodd" /><path transform="matrix(1 0 0 -1 0 841)" d="M473.62 447.79L534.82 447.79L534.82 447.79L534.82 463.63L534.82 463.63L473.62 463.63z" stroke="none" fill="#FFFFFF" fill-rule="evenodd" /><path transform="matrix(1 0 0 -1 0 841)" d="M56.4 463.75L56.88 463.75L56.88 463.75L56.88 464.23L56.88 464.23L56.4 464.23z" stroke="none" fill="#000000" fill-rule="evenodd" /><path transform="matrix(1 0 0 -1 0 841)" d="M56.88 463.75L146.904 463.75L146.904 463.75L146.904 464.23L146.904 464.23L56.88 464.23z" stroke="none" fill="#000000" fill-rule="evenodd" /><path transform="matrix(1 0 0 -1 0 841)" d="M146.9 463.75L147.38 463.75L147.38 463.75L147.38 464.23L147.38 464.23L146.9 464.23z" stroke="none" fill="#000000" fill-rule="evenodd" /><path transform="matrix(1 0 0 -1 0 841)" d="M147.38 463.75L326.47 463.75L326.47 463.75L326.47 464.23L326.47 464.23L147.38 464.23z" stroke="none" fill="#000000" fill-rule="evenodd" /><path transform="matrix(1 0 0 -1 0 841)" d="M326.47 463.75L326.95 463.75L326.95 463.75L326.95 464.23L326.95 464.23L326.47 464.23z" stroke="none" fill="#000000" fill-rule="evenodd" /><path transform="matrix(1 0 0 -1 0 841)" d="M326.95 463.75L473.01 463.75L473.01 463.75L473.01 464.23L473.01 464.23L326.95 464.23z" stroke="none" fill="#000000" fill-rule="evenodd" /><path transform="matrix(1 0 0 -1 0 841)" d="M473.02 463.75L473.5 463.75L473.5 463.75L473.5 464.23L473.5 464.23L473.02 464.23z" stroke="none" fill="#000000" fill-rule="evenodd" /><path transform="matrix(1 0 0 -1 0 841)" d="M473.5 463.75L534.7 463.75L534.7 463.75L534.7 464.23L534.7 464.23L473.5 464.23z" stroke="none" fill="#000000" fill-rule="evenodd" /><path transform="matrix(1 0 0 -1 0 841)" d="M534.7 463.75L535.1801 463.75L535.1801 463.75L535.1801 464.23L535.1801 464.23L534.7 464.23z" stroke="none" fill="#000000" fill-rule="evenodd" /><path transform="matrix(1 0 0 -1 0 841)" d="M56.4 445.03L56.88 445.03L56.88 445.03L56.88 463.75L56.88 463.75L56.4 463.75z" stroke="none" fill="#000000" fill-rule="evenodd" /><path transform="matrix(1 0 0 -1 0 841)" d="M146.9 445.03L147.38 445.03L147.38 445.03L147.38 463.75L147.38 463.75L146.9 463.75z" stroke="none" fill="#000000" fill-rule="evenodd" /><path transform="matrix(1 0 0 -1 0 841)" d="M326.47 445.03L326.95 445.03L326.95 445.03L326.95 463.75L326.95 463.75L326.47 463.75z" stroke="none" fill="#000000" fill-rule="evenodd" /><path transform="matrix(1 0 0 -1 0 841)" d="M473.02 445.03L473.5 445.03L473.5 445.03L473.5 463.75L473.5 463.75L473.02 463.75z" stroke="none" fill="#000000" fill-rule="evenodd" /><path transform="matrix(1 0 0 -1 0 841)" d="M534.7 445.03L535.1801 445.03L535.1801 445.03L535.1801 463.75L535.1801 463.75L534.7 463.75z" stroke="none" fill="#000000" fill-rule="evenodd" /><path transform="matrix(1 0 0 -1 0 841)" d="M57 425.59L147.024 425.59L147.024 425.59L147.024 428.59L147.024 428.59L57 428.59z" stroke="none" fill="#FFFFFF" fill-rule="evenodd" /><path transform="matrix(1 0 0 -1 0 841)" d="M57 428.59L147.024 428.59L147.024 428.59L147.024 444.43L147.024 444.43L57 444.43z" stroke="none" fill="#FFFFFF" fill-rule="evenodd" /><path transform="matrix(1 0 0 -1 0 841)" d="M147.5 425.59L326.47 425.59L326.47 425.59L326.47 428.59L326.47 428.59L147.5 428.59z" stroke="none" fill="#FFFFFF" fill-rule="evenodd" /><path transform="matrix(1 0 0 -1 0 841)" d="M147.5 428.59L326.47 428.59L326.47 428.59L326.47 444.43L326.47 444.43L147.5 444.43z" stroke="none" fill="#FFFFFF" fill-rule="evenodd" /><path transform="matrix(1 0 0 -1 0 841)" d="M327.07 425.59L473.13 425.59L473.13 425.59L473.13 428.59L473.13 428.59L327.07 428.59z" stroke="none" fill="#FFFFFF" fill-rule="evenodd" /><path transform="matrix(1 0 0 -1 0 841)" d="M327.07 428.59L473.13 428.59L473.13 428.59L473.13 444.43L473.13 444.43L327.07 444.43z" stroke="none" fill="#FFFFFF" fill-rule="evenodd" /><path transform="matrix(1 0 0 -1 0 841)" d="M473.62 425.59L534.82 425.59L534.82 425.59L534.82 428.59L534.82 428.59L473.62 428.59z" stroke="none" fill="#FFFFFF" fill-rule="evenodd" /><path transform="matrix(1 0 0 -1 0 841)" d="M473.62 428.59L534.82 428.59L534.82 428.59L534.82 444.43L534.82 444.43L473.62 444.43z" stroke="none" fill="#FFFFFF" fill-rule="evenodd" /><path transform="matrix(1 0 0 -1 0 841)" d="M56.4 444.55L56.88 444.55L56.88 444.55L56.88 445.03L56.88 445.03L56.4 445.03z" stroke="none" fill="#000000" fill-rule="evenodd" /><path transform="matrix(1 0 0 -1 0 841)" d="M56.88 444.55L146.904 444.55L146.904 444.55L146.904 445.03L146.904 445.03L56.88 445.03z" stroke="none" fill="#000000" fill-rule="evenodd" /><path transform="matrix(1 0 0 -1 0 841)" d="M146.9 444.55L147.38 444.55L147.38 444.55L147.38 445.03L147.38 445.03L146.9 445.03z" stroke="none" fill="#000000" fill-rule="evenodd" /><path transform="matrix(1 0 0 -1 0 841)" d="M147.38 444.55L326.47 444.55L326.47 444.55L326.47 445.03L326.47 445.03L147.38 445.03z" stroke="none" fill="#000000" fill-rule="evenodd" /><path transform="matrix(1 0 0 -1 0 841)" d="M326.47 444.55L326.95 444.55L326.95 444.55L326.95 445.03L326.95 445.03L326.47 445.03z" stroke="none" fill="#000000" fill-rule="evenodd" /><path transform="matrix(1 0 0 -1 0 841)" d="M326.95 444.55L473.01 444.55L473.01 444.55L473.01 445.03L473.01 445.03L326.95 445.03z" stroke="none" fill="#000000" fill-rule="evenodd" /><path transform="matrix(1 0 0 -1 0 841)" d="M473.02 444.55L473.5 444.55L473.5 444.55L473.5 445.03L473.5 445.03L473.02 445.03z" stroke="none" fill="#000000" fill-rule="evenodd" /><path transform="matrix(1 0 0 -1 0 841)" d="M473.5 444.55L534.7 444.55L534.7 444.55L534.7 445.03L534.7 445.03L473.5 445.03z" stroke="none" fill="#000000" fill-rule="evenodd" /><path transform="matrix(1 0 0 -1 0 841)" d="M534.7 444.55L535.1801 444.55L535.1801 444.55L535.1801 445.03L535.1801 445.03L534.7 445.03z" stroke="none" fill="#000000" fill-rule="evenodd" /><path transform="matrix(1 0 0 -1 0 841)" d="M56.4 425.59L56.88 425.59L56.88 425.59L56.88 444.55L56.88 444.55L56.4 444.55z" stroke="none" fill="#000000" fill-rule="evenodd" /><path transform="matrix(1 0 0 -1 0 841)" d="M146.9 425.59L147.38 425.59L147.38 425.59L147.38 444.55L147.38 444.55L146.9 444.55z" stroke="none" fill="#000000" fill-rule="evenodd" /><path transform="matrix(1 0 0 -1 0 841)" d="M326.47 425.59L326.95 425.59L326.95 425.59L326.95 444.55L326.95 444.55L326.47 444.55z" stroke="none" fill="#000000" fill-rule="evenodd" /><path transform="matrix(1 0 0 -1 0 841)" d="M473.02 425.59L473.5 425.59L473.5 425.59L473.5 444.55L473.5 444.55L473.02 444.55z" stroke="none" fill="#000000" fill-rule="evenodd" /><path transform="matrix(1 0 0 -1 0 841)" d="M534.7 425.59L535.1801 425.59L535.1801 425.59L535.1801 444.55L535.1801 444.55L534.7 444.55z" stroke="none" fill="#000000" fill-rule="evenodd" /><path transform="matrix(1 0 0 -1 0 841)" d="M57 378.41L147.024 378.41L147.024 378.41L147.024 409.154L147.024 409.154L57 409.154z" stroke="none" fill="#FFFFFF" fill-rule="evenodd" /><path transform="matrix(1 0 0 -1 0 841)" d="M57 409.15L147.024 409.15L147.024 409.15L147.024 424.99L147.024 424.99L57 424.99z" stroke="none" fill="#FFFFFF" fill-rule="evenodd" /><path transform="matrix(1 0 0 -1 0 841)" d="M147.5 409.15L326.47 409.15L326.47 409.15L326.47 424.99L326.47 424.99L147.5 424.99z" stroke="none" fill="#FFFFFF" fill-rule="evenodd" /><path transform="matrix(1 0 0 -1 0 841)" d="M147.5 393.29L326.47 393.29L326.47 393.29L326.47 409.154L326.47 409.154L147.5 409.154z" stroke="none" fill="#FFFFFF" fill-rule="evenodd" /><path transform="matrix(1 0 0 -1 0 841)" d="M147.5 378.41L326.47 378.41L326.47 378.41L326.47 393.29L326.47 393.29L147.5 393.29z" stroke="none" fill="#FFFFFF" fill-rule="evenodd" /><path transform="matrix(1 0 0 -1 0 841)" d="M327.07 378.41L473.13 378.41L473.13 378.41L473.13 409.154L473.13 409.154L327.07 409.154z" stroke="none" fill="#FFFFFF" fill-rule="evenodd" /><path transform="matrix(1 0 0 -1 0 841)" d="M327.07 409.15L473.13 409.15L473.13 409.15L473.13 424.99L473.13 424.99L327.07 424.99z" stroke="none" fill="#FFFFFF" fill-rule="evenodd" /><path transform="matrix(1 0 0 -1 0 841)" d="M473.62 378.41L534.82 378.41L534.82 378.41L534.82 409.154L534.82 409.154L473.62 409.154z" stroke="none" fill="#FFFFFF" fill-rule="evenodd" /><path transform="matrix(1 0 0 -1 0 841)" d="M473.62 409.15L534.82 409.15L534.82 409.15L534.82 424.99L534.82 424.99L473.62 424.99z" stroke="none" fill="#FFFFFF" fill-rule="evenodd" /><path transform="matrix(1 0 0 -1 0 841)" d="M56.4 425.11L56.88 425.11L56.88 425.11L56.88 425.59L56.88 425.59L56.4 425.59z" stroke="none" fill="#000000" fill-rule="evenodd" /><path transform="matrix(1 0 0 -1 0 841)" d="M56.88 425.11L146.904 425.11L146.904 425.11L146.904 425.59L146.904 425.59L56.88 425.59z" stroke="none" fill="#000000" fill-rule="evenodd" /><path transform="matrix(1 0 0 -1 0 841)" d="M146.9 425.11L147.38 425.11L147.38 425.11L147.38 425.59L147.38 425.59L146.9 425.59z" stroke="none" fill="#000000" fill-rule="evenodd" /><path transform="matrix(1 0 0 -1 0 841)" d="M147.38 425.11L326.47 425.11L326.47 425.11L326.47 425.59L326.47 425.59L147.38 425.59z" stroke="none" fill="#000000" fill-rule="evenodd" /><path transform="matrix(1 0 0 -1 0 841)" d="M326.47 425.11L326.95 425.11L326.95 425.11L326.95 425.59L326.95 425.59L326.47 425.59z" stroke="none" fill="#000000" fill-rule="evenodd" /><path transform="matrix(1 0 0 -1 0 841)" d="M326.95 425.11L473.01 425.11L473.01 425.11L473.01 425.59L473.01 425.59L326.95 425.59z" stroke="none" fill="#000000" fill-rule="evenodd" /><path transform="matrix(1 0 0 -1 0 841)" d="M473.02 425.11L473.5 425.11L473.5 425.11L473.5 425.59L473.5 425.59L473.02 425.59z" stroke="none" fill="#000000" fill-rule="evenodd" /><path transform="matrix(1 0 0 -1 0 841)" d="M473.5 425.11L534.7 425.11L534.7 425.11L534.7 425.59L534.7 425.59L473.5 425.59z" stroke="none" fill="#000000" fill-rule="evenodd" /><path transform="matrix(1 0 0 -1 0 841)" d="M534.7 425.11L535.1801 425.11L535.1801 425.11L535.1801 425.59L535.1801 425.59L534.7 425.59z" stroke="none" fill="#000000" fill-rule="evenodd" /><path transform="matrix(1 0 0 -1 0 841)" d="M56.4 378.41L56.88 378.41L56.88 378.41L56.88 425.114L56.88 425.114L56.4 425.114z" stroke="none" fill="#000000" fill-rule="evenodd" /><path transform="matrix(1 0 0 -1 0 841)" d="M146.9 378.41L147.38 378.41L147.38 378.41L147.38 425.114L147.38 425.114L146.9 425.114z" stroke="none" fill="#000000" fill-rule="evenodd" /><path transform="matrix(1 0 0 -1 0 841)" d="M326.47 378.41L326.95 378.41L326.95 378.41L326.95 425.114L326.95 425.114L326.47 425.114z" stroke="none" fill="#000000" fill-rule="evenodd" /><path transform="matrix(1 0 0 -1 0 841)" d="M473.02 378.41L473.5 378.41L473.5 378.41L473.5 425.114L473.5 425.114L473.02 425.114z" stroke="none" fill="#000000" fill-rule="evenodd" /><path transform="matrix(1 0 0 -1 0 841)" d="M534.7 378.41L535.1801 378.41L535.1801 378.41L535.1801 425.114L535.1801 425.114L534.7 425.114z" stroke="none" fill="#000000" fill-rule="evenodd" /><path transform="matrix(1 0 0 -1 0 841)" d="M57 329.81L147.024 329.81L147.024 329.81L147.024 362.09L147.024 362.09L57 362.09z" stroke="none" fill="#FFFFFF" fill-rule="evenodd" /><path transform="matrix(1 0 0 -1 0 841)" d="M57 362.09L147.024 362.09L147.024 362.09L147.024 377.93L147.024 377.93L57 377.93z" stroke="none" fill="#FFFFFF" fill-rule="evenodd" /><path transform="matrix(1 0 0 -1 0 841)" d="M147.5 329.81L326.47 329.81L326.47 329.81L326.47 330.41L326.47 330.41L147.5 330.41z" stroke="none" fill="#FFFFFF" fill-rule="evenodd" /><path transform="matrix(1 0 0 -1 0 841)" d="M147.5 362.09L326.47 362.09L326.47 362.09L326.47 377.93L326.47 377.93L147.5 377.93z" stroke="none" fill="#FFFFFF" fill-rule="evenodd" /><path transform="matrix(1 0 0 -1 0 841)" d="M147.5 346.25L326.47 346.25L326.47 346.25L326.47 362.09L326.47 362.09L147.5 362.09z" stroke="none" fill="#FFFFFF" fill-rule="evenodd" /><path transform="matrix(1 0 0 -1 0 841)" d="M147.5 330.41L326.47 330.41L326.47 330.41L326.47 346.25L326.47 346.25L147.5 346.25z" stroke="none" fill="#FFFFFF" fill-rule="evenodd" /><path transform="matrix(1 0 0 -1 0 841)" d="M327.07 329.81L473.13 329.81L473.13 329.81L473.13 362.09L473.13 362.09L327.07 362.09z" stroke="none" fill="#FFFFFF" fill-rule="evenodd" /><path transform="matrix(1 0 0 -1 0 841)" d="M327.07 362.09L473.13 362.09L473.13 362.09L473.13 377.93L473.13 377.93L327.07 377.93z" stroke="none" fill="#FFFFFF" fill-rule="evenodd" /><path transform="matrix(1 0 0 -1 0 841)" d="M473.62 329.81L534.82 329.81L534.82 329.81L534.82 362.09L534.82 362.09L473.62 362.09z" stroke="none" fill="#FFFFFF" fill-rule="evenodd" /><path transform="matrix(1 0 0 -1 0 841)" d="M473.62 362.09L534.82 362.09L534.82 362.09L534.82 377.93L534.82 377.93L473.62 377.93z" stroke="none" fill="#FFFFFF" fill-rule="evenodd" /><path transform="matrix(1 0 0 -1 0 841)" d="M56.4 377.93L56.88 377.93L56.88 377.93L56.88 378.41L56.88 378.41L56.4 378.41z" stroke="none" fill="#000000" fill-rule="evenodd" /><path transform="matrix(1 0 0 -1 0 841)" d="M56.88 377.93L146.904 377.93L146.904 377.93L146.904 378.41L146.904 378.41L56.88 378.41z" stroke="none" fill="#000000" fill-rule="evenodd" /><path transform="matrix(1 0 0 -1 0 841)" d="M146.9 377.93L147.38 377.93L147.38 377.93L147.38 378.41L147.38 378.41L146.9 378.41z" stroke="none" fill="#000000" fill-rule="evenodd" /><path transform="matrix(1 0 0 -1 0 841)" d="M147.38 377.93L326.47 377.93L326.47 377.93L326.47 378.41L326.47 378.41L147.38 378.41z" stroke="none" fill="#000000" fill-rule="evenodd" /><path transform="matrix(1 0 0 -1 0 841)" d="M326.47 377.93L326.95 377.93L326.95 377.93L326.95 378.41L326.95 378.41L326.47 378.41z" stroke="none" fill="#000000" fill-rule="evenodd" /><path transform="matrix(1 0 0 -1 0 841)" d="M326.95 377.93L473.01 377.93L473.01 377.93L473.01 378.41L473.01 378.41L326.95 378.41z" stroke="none" fill="#000000" fill-rule="evenodd" /><path transform="matrix(1 0 0 -1 0 841)" d="M473.02 377.93L473.5 377.93L473.5 377.93L473.5 378.41L473.5 378.41L473.02 378.41z" stroke="none" fill="#000000" fill-rule="evenodd" /><path transform="matrix(1 0 0 -1 0 841)" d="M473.5 377.93L534.7 377.93L534.7 377.93L534.7 378.41L534.7 378.41L473.5 378.41z" stroke="none" fill="#000000" fill-rule="evenodd" /><path transform="matrix(1 0 0 -1 0 841)" d="M534.7 377.93L535.1801 377.93L535.1801 377.93L535.1801 378.41L535.1801 378.41L534.7 378.41z" stroke="none" fill="#000000" fill-rule="evenodd" /><path transform="matrix(1 0 0 -1 0 841)" d="M56.4 329.81L56.88 329.81L56.88 329.81L56.88 377.93L56.88 377.93L56.4 377.93z" stroke="none" fill="#000000" fill-rule="evenodd" /><path transform="matrix(1 0 0 -1 0 841)" d="M146.9 329.81L147.38 329.81L147.38 329.81L147.38 377.93L147.38 377.93L146.9 377.93z" stroke="none" fill="#000000" fill-rule="evenodd" /><path transform="matrix(1 0 0 -1 0 841)" d="M326.47 329.81L326.95 329.81L326.95 329.81L326.95 377.93L326.95 377.93L326.47 377.93z" stroke="none" fill="#000000" fill-rule="evenodd" /><path transform="matrix(1 0 0 -1 0 841)" d="M473.02 329.81L473.5 329.81L473.5 329.81L473.5 377.93L473.5 377.93L473.02 377.93z" stroke="none" fill="#000000" fill-rule="evenodd" /><path transform="matrix(1 0 0 -1 0 841)" d="M534.7 329.81L535.1801 329.81L535.1801 329.81L535.1801 377.93L535.1801 377.93L534.7 377.93z" stroke="none" fill="#000000" fill-rule="evenodd" /><path transform="matrix(1 0 0 -1 0 841)" d="M57 282.53L147.024 282.53L147.024 282.53L147.024 313.49L147.024 313.49L57 313.49z" stroke="none" fill="#FFFFFF" fill-rule="evenodd" /><path transform="matrix(1 0 0 -1 0 841)" d="M57 313.49L147.024 313.49L147.024 313.49L147.024 329.33L147.024 329.33L57 329.33z" stroke="none" fill="#FFFFFF" fill-rule="evenodd" /><path transform="matrix(1 0 0 -1 0 841)" d="M147.5 313.49L326.47 313.49L326.47 313.49L326.47 329.33L326.47 329.33L147.5 329.33z" stroke="none" fill="#FFFFFF" fill-rule="evenodd" /><path transform="matrix(1 0 0 -1 0 841)" d="M147.5 297.53L326.47 297.53L326.47 297.53L326.47 313.49L326.47 313.49L147.5 313.49z" stroke="none" fill="#FFFFFF" fill-rule="evenodd" /><path transform="matrix(1 0 0 -1 0 841)" d="M147.5 282.53L326.47 282.53L326.47 282.53L326.47 297.53L326.47 297.53L147.5 297.53z" stroke="none" fill="#FFFFFF" fill-rule="evenodd" /><path transform="matrix(1 0 0 -1 0 841)" d="M327.07 282.53L473.13 282.53L473.13 282.53L473.13 313.49L473.13 313.49L327.07 313.49z" stroke="none" fill="#FFFFFF" fill-rule="evenodd" /><path transform="matrix(1 0 0 -1 0 841)" d="M327.07 313.49L473.13 313.49L473.13 313.49L473.13 329.33L473.13 329.33L327.07 329.33z" stroke="none" fill="#FFFFFF" fill-rule="evenodd" /><path transform="matrix(1 0 0 -1 0 841)" d="M473.62 282.53L534.82 282.53L534.82 282.53L534.82 313.49L534.82 313.49L473.62 313.49z" stroke="none" fill="#FFFFFF" fill-rule="evenodd" /><path transform="matrix(1 0 0 -1 0 841)" d="M473.62 313.49L534.82 313.49L534.82 313.49L534.82 329.33L534.82 329.33L473.62 329.33z" stroke="none" fill="#FFFFFF" fill-rule="evenodd" /><path transform="matrix(1 0 0 -1 0 841)" d="M56.4 329.33L56.88 329.33L56.88 329.33L56.88 329.81L56.88 329.81L56.4 329.81z" stroke="none" fill="#000000" fill-rule="evenodd" /><path transform="matrix(1 0 0 -1 0 841)" d="M56.88 329.33L146.904 329.33L146.904 329.33L146.904 329.81L146.904 329.81L56.88 329.81z" stroke="none" fill="#000000" fill-rule="evenodd" /><path transform="matrix(1 0 0 -1 0 841)" d="M146.9 329.33L147.38 329.33L147.38 329.33L147.38 329.81L147.38 329.81L146.9 329.81z" stroke="none" fill="#000000" fill-rule="evenodd" /><path transform="matrix(1 0 0 -1 0 841)" d="M147.38 329.33L326.47 329.33L326.47 329.33L326.47 329.81L326.47 329.81L147.38 329.81z" stroke="none" fill="#000000" fill-rule="evenodd" /><path transform="matrix(1 0 0 -1 0 841)" d="M326.47 329.33L326.95 329.33L326.95 329.33L326.95 329.81L326.95 329.81L326.47 329.81z" stroke="none" fill="#000000" fill-rule="evenodd" /><path transform="matrix(1 0 0 -1 0 841)" d="M326.95 329.33L473.01 329.33L473.01 329.33L473.01 329.81L473.01 329.81L326.95 329.81z" stroke="none" fill="#000000" fill-rule="evenodd" /><path transform="matrix(1 0 0 -1 0 841)" d="M473.02 329.33L473.5 329.33L473.5 329.33L473.5 329.81L473.5 329.81L473.02 329.81z" stroke="none" fill="#000000" fill-rule="evenodd" /><path transform="matrix(1 0 0 -1 0 841)" d="M473.5 329.33L534.7 329.33L534.7 329.33L534.7 329.81L534.7 329.81L473.5 329.81z" stroke="none" fill="#000000" fill-rule="evenodd" /><path transform="matrix(1 0 0 -1 0 841)" d="M534.7 329.33L535.1801 329.33L535.1801 329.33L535.1801 329.81L535.1801 329.81L534.7 329.81z" stroke="none" fill="#000000" fill-rule="evenodd" /><path transform="matrix(1 0 0 -1 0 841)" d="M56.4 282.53L56.88 282.53L56.88 282.53L56.88 329.33L56.88 329.33L56.4 329.33z" stroke="none" fill="#000000" fill-rule="evenodd" /><path transform="matrix(1 0 0 -1 0 841)" d="M146.9 282.53L147.38 282.53L147.38 282.53L147.38 329.33L147.38 329.33L146.9 329.33z" stroke="none" fill="#000000" fill-rule="evenodd" /><path transform="matrix(1 0 0 -1 0 841)" d="M326.47 282.53L326.95 282.53L326.95 282.53L326.95 329.33L326.95 329.33L326.47 329.33z" stroke="none" fill="#000000" fill-rule="evenodd" /><path transform="matrix(1 0 0 -1 0 841)" d="M473.02 282.53L473.5 282.53L473.5 282.53L473.5 329.33L473.5 329.33L473.02 329.33z" stroke="none" fill="#000000" fill-rule="evenodd" /><path transform="matrix(1 0 0 -1 0 841)" d="M534.7 282.53L535.1801 282.53L535.1801 282.53L535.1801 329.33L535.1801 329.33L534.7 329.33z" stroke="none" fill="#000000" fill-rule="evenodd" /><path transform="matrix(1 0 0 -1 0 841)" d="M57 233.09L147.024 233.09L147.024 233.09L147.024 266.09L147.024 266.09L57 266.09z" stroke="none" fill="#FFFFFF" fill-rule="evenodd" /><path transform="matrix(1 0 0 -1 0 841)" d="M57 266.09L147.024 266.09L147.024 266.09L147.024 282.05L147.024 282.05L57 282.05z" stroke="none" fill="#FFFFFF" fill-rule="evenodd" /><path transform="matrix(1 0 0 -1 0 841)" d="M147.5 266.09L326.47 266.09L326.47 266.09L326.47 282.05L326.47 282.05L147.5 282.05z" stroke="none" fill="#FFFFFF" fill-rule="evenodd" /><path transform="matrix(1 0 0 -1 0 841)" d="M147.5 250.25L326.47 250.25L326.47 250.25L326.47 266.09L326.47 266.09L147.5 266.09z" stroke="none" fill="#FFFFFF" fill-rule="evenodd" /><path transform="matrix(1 0 0 -1 0 841)" d="M147.5 234.41L326.47 234.41L326.47 234.41L326.47 250.25L326.47 250.25L147.5 250.25z" stroke="none" fill="#FFFFFF" fill-rule="evenodd" /><path transform="matrix(1 0 0 -1 0 841)" d="M147.5 233.09L326.47 233.09L326.47 233.09L326.47 234.41L326.47 234.41L147.5 234.41z" stroke="none" fill="#FFFFFF" fill-rule="evenodd" /><g clip-path="url(#2)"></g><g clip-path="url(#3)"></g><path transform="matrix(1 0 0 -1 0 841)" d="M327.07 233.09L473.13 233.09L473.13 233.09L473.13 266.09L473.13 266.09L327.07 266.09z" stroke="none" fill="#FFFFFF" fill-rule="evenodd" /><path transform="matrix(1 0 0 -1 0 841)" d="M327.07 266.09L473.13 266.09L473.13 266.09L473.13 282.05L473.13 282.05L327.07 282.05z" stroke="none" fill="#FFFFFF" fill-rule="evenodd" /><path transform="matrix(1 0 0 -1 0 841)" d="M473.62 233.09L534.82 233.09L534.82 233.09L534.82 266.09L534.82 266.09L473.62 266.09z" stroke="none" fill="#FFFFFF" fill-rule="evenodd" /><path transform="matrix(1 0 0 -1 0 841)" d="M473.62 266.09L534.82 266.09L534.82 266.09L534.82 282.05L534.82 282.05L473.62 282.05z" stroke="none" fill="#FFFFFF" fill-rule="evenodd" /><path transform="matrix(1 0 0 -1 0 841)" d="M56.4 282.05L56.88 282.05L56.88 282.05L56.88 282.53L56.88 282.53L56.4 282.53z" stroke="none" fill="#000000" fill-rule="evenodd" /><path transform="matrix(1 0 0 -1 0 841)" d="M56.88 282.05L146.904 282.05L146.904 282.05L146.904 282.53L146.904 282.53L56.88 282.53z" stroke="none" fill="#000000" fill-rule="evenodd" /><path transform="matrix(1 0 0 -1 0 841)" d="M146.9 282.05L147.38 282.05L147.38 282.05L147.38 282.53L147.38 282.53L146.9 282.53z" stroke="none" fill="#000000" fill-rule="evenodd" /><path transform="matrix(1 0 0 -1 0 841)" d="M147.38 282.05L326.47 282.05L326.47 282.05L326.47 282.53L326.47 282.53L147.38 282.53z" stroke="none" fill="#000000" fill-rule="evenodd" /><path transform="matrix(1 0 0 -1 0 841)" d="M326.47 282.05L326.95 282.05L326.95 282.05L326.95 282.53L326.95 282.53L326.47 282.53z" stroke="none" fill="#000000" fill-rule="evenodd" /><path transform="matrix(1 0 0 -1 0 841)" d="M326.95 282.05L473.01 282.05L473.01 282.05L473.01 282.53L473.01 282.53L326.95 282.53z" stroke="none" fill="#000000" fill-rule="evenodd" /><path transform="matrix(1 0 0 -1 0 841)" d="M473.02 282.05L473.5 282.05L473.5 282.05L473.5 282.53L473.5 282.53L473.02 282.53z" stroke="none" fill="#000000" fill-rule="evenodd" /><path transform="matrix(1 0 0 -1 0 841)" d="M473.5 282.05L534.7 282.05L534.7 282.05L534.7 282.53L534.7 282.53L473.5 282.53z" stroke="none" fill="#000000" fill-rule="evenodd" /><path transform="matrix(1 0 0 -1 0 841)" d="M534.7 282.05L535.1801 282.05L535.1801 282.05L535.1801 282.53L535.1801 282.53L534.7 282.53z" stroke="none" fill="#000000" fill-rule="evenodd" /><path transform="matrix(1 0 0 -1 0 841)" d="M56.4 233.09L56.88 233.09L56.88 233.09L56.88 282.05L56.88 282.05L56.4 282.05z" stroke="none" fill="#000000" fill-rule="evenodd" /><path transform="matrix(1 0 0 -1 0 841)" d="M146.9 233.09L147.38 233.09L147.38 233.09L147.38 282.05L147.38 282.05L146.9 282.05z" stroke="none" fill="#000000" fill-rule="evenodd" /><path transform="matrix(1 0 0 -1 0 841)" d="M326.47 233.09L326.95 233.09L326.95 233.09L326.95 282.05L326.95 282.05L326.47 282.05z" stroke="none" fill="#000000" fill-rule="evenodd" /><path transform="matrix(1 0 0 -1 0 841)" d="M473.02 233.09L473.5 233.09L473.5 233.09L473.5 282.05L473.5 282.05L473.02 282.05z" stroke="none" fill="#000000" fill-rule="evenodd" /><path transform="matrix(1 0 0 -1 0 841)" d="M534.7 233.09L535.1801 233.09L535.1801 233.09L535.1801 282.05L535.1801 282.05L534.7 282.05z" stroke="none" fill="#000000" fill-rule="evenodd" /><path transform="matrix(1 0 0 -1 0 841)" d="M57 213.14L147.024 213.14L147.024 213.14L147.024 216.74L147.024 216.74L57 216.74z" stroke="none" fill="#FFFFFF" fill-rule="evenodd" /><path transform="matrix(1 0 0 -1 0 841)" d="M57 216.74L147.024 216.74L147.024 216.74L147.024 232.604L147.024 232.604L57 232.604z" stroke="none" fill="#FFFFFF" fill-rule="evenodd" /><path transform="matrix(1 0 0 -1 0 841)" d="M147.5 213.14L326.47 213.14L326.47 213.14L326.47 216.74L326.47 216.74L147.5 216.74z" stroke="none" fill="#FFFFFF" fill-rule="evenodd" /><path transform="matrix(1 0 0 -1 0 841)" d="M147.5 216.74L326.47 216.74L326.47 216.74L326.47 232.604L326.47 232.604L147.5 232.604z" stroke="none" fill="#FFFFFF" fill-rule="evenodd" /><path transform="matrix(1 0 0 -1 0 841)" d="M327.07 213.14L473.13 213.14L473.13 213.14L473.13 216.74L473.13 216.74L327.07 216.74z" stroke="none" fill="#FFFFFF" fill-rule="evenodd" /><path transform="matrix(1 0 0 -1 0 841)" d="M327.07 216.74L473.13 216.74L473.13 216.74L473.13 232.604L473.13 232.604L327.07 232.604z" stroke="none" fill="#FFFFFF" fill-rule="evenodd" /><path transform="matrix(1 0 0 -1 0 841)" d="M473.62 213.14L534.82 213.14L534.82 213.14L534.82 216.74L534.82 216.74L473.62 216.74z" stroke="none" fill="#FFFFFF" fill-rule="evenodd" /><path transform="matrix(1 0 0 -1 0 841)" d="M473.62 216.74L534.82 216.74L534.82 216.74L534.82 232.604L534.82 232.604L473.62 232.604z" stroke="none" fill="#FFFFFF" fill-rule="evenodd" /><path transform="matrix(1 0 0 -1 0 841)" d="M56.4 232.61L56.88 232.61L56.88 232.61L56.88 233.09L56.88 233.09L56.4 233.09z" stroke="none" fill="#000000" fill-rule="evenodd" /><path transform="matrix(1 0 0 -1 0 841)" d="M56.88 232.61L146.904 232.61L146.904 232.61L146.904 233.09L146.904 233.09L56.88 233.09z" stroke="none" fill="#000000" fill-rule="evenodd" /><path transform="matrix(1 0 0 -1 0 841)" d="M146.9 232.61L147.38 232.61L147.38 232.61L147.38 233.09L147.38 233.09L146.9 233.09z" stroke="none" fill="#000000" fill-rule="evenodd" /><path transform="matrix(1 0 0 -1 0 841)" d="M147.38 232.61L326.47 232.61L326.47 232.61L326.47 233.09L326.47 233.09L147.38 233.09z" stroke="none" fill="#000000" fill-rule="evenodd" /><path transform="matrix(1 0 0 -1 0 841)" d="M326.47 232.61L326.95 232.61L326.95 232.61L326.95 233.09L326.95 233.09L326.47 233.09z" stroke="none" fill="#000000" fill-rule="evenodd" /><path transform="matrix(1 0 0 -1 0 841)" d="M326.95 232.61L473.01 232.61L473.01 232.61L473.01 233.09L473.01 233.09L326.95 233.09z" stroke="none" fill="#000000" fill-rule="evenodd" /><path transform="matrix(1 0 0 -1 0 841)" d="M473.02 232.61L473.5 232.61L473.5 232.61L473.5 233.09L473.5 233.09L473.02 233.09z" stroke="none" fill="#000000" fill-rule="evenodd" /><path transform="matrix(1 0 0 -1 0 841)" d="M473.5 232.61L534.7 232.61L534.7 232.61L534.7 233.09L534.7 233.09L473.5 233.09z" stroke="none" fill="#000000" fill-rule="evenodd" /><path transform="matrix(1 0 0 -1 0 841)" d="M534.7 232.61L535.1801 232.61L535.1801 232.61L535.1801 233.09L535.1801 233.09L534.7 233.09z" stroke="none" fill="#000000" fill-rule="evenodd" /><path transform="matrix(1 0 0 -1 0 841)" d="M56.4 213.14L56.88 213.14L56.88 213.14L56.88 232.604L56.88 232.604L56.4 232.604z" stroke="none" fill="#000000" fill-rule="evenodd" /><path transform="matrix(1 0 0 -1 0 841)" d="M146.9 213.14L147.38 213.14L147.38 213.14L147.38 232.604L147.38 232.604L146.9 232.604z" stroke="none" fill="#000000" fill-rule="evenodd" /><path transform="matrix(1 0 0 -1 0 841)" d="M326.47 213.14L326.95 213.14L326.95 213.14L326.95 232.604L326.95 232.604L326.47 232.604z" stroke="none" fill="#000000" fill-rule="evenodd" /><path transform="matrix(1 0 0 -1 0 841)" d="M473.02 213.14L473.5 213.14L473.5 213.14L473.5 232.604L473.5 232.604L473.02 232.604z" stroke="none" fill="#000000" fill-rule="evenodd" /><path transform="matrix(1 0 0 -1 0 841)" d="M534.7 213.14L535.1801 213.14L535.1801 213.14L535.1801 232.604L535.1801 232.604L534.7 232.604z" stroke="none" fill="#000000" fill-rule="evenodd" /><path transform="matrix(1 0 0 -1 0 841)" d="M57 193.1L147.024 193.1L147.024 193.1L147.024 196.7L147.024 196.7L57 196.7z" stroke="none" fill="#FFFFFF" fill-rule="evenodd" /><path transform="matrix(1 0 0 -1 0 841)" d="M57 196.7L147.024 196.7L147.024 196.7L147.024 212.54L147.024 212.54L57 212.54z" stroke="none" fill="#FFFFFF" fill-rule="evenodd" /><path transform="matrix(1 0 0 -1 0 841)" d="M147.5 193.1L326.47 193.1L326.47 193.1L326.47 196.7L326.47 196.7L147.5 196.7z" stroke="none" fill="#FFFFFF" fill-rule="evenodd" /><path transform="matrix(1 0 0 -1 0 841)" d="M147.5 196.7L326.47 196.7L326.47 196.7L326.47 212.54L326.47 212.54L147.5 212.54z" stroke="none" fill="#FFFFFF" fill-rule="evenodd" /><path transform="matrix(1 0 0 -1 0 841)" d="M327.07 193.1L473.13 193.1L473.13 193.1L473.13 196.7L473.13 196.7L327.07 196.7z" stroke="none" fill="#FFFFFF" fill-rule="evenodd" /><path transform="matrix(1 0 0 -1 0 841)" d="M327.07 196.7L473.13 196.7L473.13 196.7L473.13 212.54L473.13 212.54L327.07 212.54z" stroke="none" fill="#FFFFFF" fill-rule="evenodd" /><path transform="matrix(1 0 0 -1 0 841)" d="M473.62 193.1L534.82 193.1L534.82 193.1L534.82 196.7L534.82 196.7L473.62 196.7z" stroke="none" fill="#FFFFFF" fill-rule="evenodd" /><path transform="matrix(1 0 0 -1 0 841)" d="M473.62 196.7L534.82 196.7L534.82 196.7L534.82 212.54L534.82 212.54L473.62 212.54z" stroke="none" fill="#FFFFFF" fill-rule="evenodd" /><path transform="matrix(1 0 0 -1 0 841)" d="M56.4 212.66L56.88 212.66L56.88 212.66L56.88 213.14L56.88 213.14L56.4 213.14z" stroke="none" fill="#000000" fill-rule="evenodd" /><path transform="matrix(1 0 0 -1 0 841)" d="M56.88 212.66L146.904 212.66L146.904 212.66L146.904 213.14L146.904 213.14L56.88 213.14z" stroke="none" fill="#000000" fill-rule="evenodd" /><path transform="matrix(1 0 0 -1 0 841)" d="M146.9 212.66L147.38 212.66L147.38 212.66L147.38 213.14L147.38 213.14L146.9 213.14z" stroke="none" fill="#000000" fill-rule="evenodd" /><path transform="matrix(1 0 0 -1 0 841)" d="M147.38 212.66L326.47 212.66L326.47 212.66L326.47 213.14L326.47 213.14L147.38 213.14z" stroke="none" fill="#000000" fill-rule="evenodd" /><path transform="matrix(1 0 0 -1 0 841)" d="M326.47 212.66L326.95 212.66L326.95 212.66L326.95 213.14L326.95 213.14L326.47 213.14z" stroke="none" fill="#000000" fill-rule="evenodd" /><path transform="matrix(1 0 0 -1 0 841)" d="M326.95 212.66L473.01 212.66L473.01 212.66L473.01 213.14L473.01 213.14L326.95 213.14z" stroke="none" fill="#000000" fill-rule="evenodd" /><path transform="matrix(1 0 0 -1 0 841)" d="M473.02 212.66L473.5 212.66L473.5 212.66L473.5 213.14L473.5 213.14L473.02 213.14z" stroke="none" fill="#000000" fill-rule="evenodd" /><path transform="matrix(1 0 0 -1 0 841)" d="M473.5 212.66L534.7 212.66L534.7 212.66L534.7 213.14L534.7 213.14L473.5 213.14z" stroke="none" fill="#000000" fill-rule="evenodd" /><path transform="matrix(1 0 0 -1 0 841)" d="M534.7 212.66L535.1801 212.66L535.1801 212.66L535.1801 213.14L535.1801 213.14L534.7 213.14z" stroke="none" fill="#000000" fill-rule="evenodd" /><path transform="matrix(1 0 0 -1 0 841)" d="M56.4 193.1L56.88 193.1L56.88 193.1L56.88 212.66L56.88 212.66L56.4 212.66z" stroke="none" fill="#000000" fill-rule="evenodd" /><path transform="matrix(1 0 0 -1 0 841)" d="M146.9 193.1L147.38 193.1L147.38 193.1L147.38 212.66L147.38 212.66L146.9 212.66z" stroke="none" fill="#000000" fill-rule="evenodd" /><path transform="matrix(1 0 0 -1 0 841)" d="M326.47 193.1L326.95 193.1L326.95 193.1L326.95 212.66L326.95 212.66L326.47 212.66z" stroke="none" fill="#000000" fill-rule="evenodd" /><path transform="matrix(1 0 0 -1 0 841)" d="M473.02 193.1L473.5 193.1L473.5 193.1L473.5 212.66L473.5 212.66L473.02 212.66z" stroke="none" fill="#000000" fill-rule="evenodd" /><path transform="matrix(1 0 0 -1 0 841)" d="M534.7 193.1L535.1801 193.1L535.1801 193.1L535.1801 212.66L535.1801 212.66L534.7 212.66z" stroke="none" fill="#000000" fill-rule="evenodd" /><path transform="matrix(1 0 0 -1 0 841)" d="M57 173.06L147.024 173.06L147.024 173.06L147.024 176.66L147.024 176.66L57 176.66z" stroke="none" fill="#FFFFFF" fill-rule="evenodd" /><g clip-path="url(#4)"><path transform="matrix(1 0 0 -1 0 841)" d="M57 176.66L147.024 176.66L147.024 176.66L147.024 192.62L147.024 192.62L57 192.62z" stroke="none" fill="#FFFFFF" fill-rule="evenodd" /></g><path transform="matrix(1 0 0 -1 0 841)" d="M147.5 173.06L326.47 173.06L326.47 173.06L326.47 176.66L326.47 176.66L147.5 176.66z" stroke="none" fill="#FFFFFF" fill-rule="evenodd" /><g clip-path="url(#5)"><path transform="matrix(1 0 0 -1 0 841)" d="M147.5 176.66L326.47 176.66L326.47 176.66L326.47 192.62L326.47 192.62L147.5 192.62z" stroke="none" fill="#FFFFFF" fill-rule="evenodd" /></g><path transform="matrix(1 0 0 -1 0 841)" d="M327.07 173.06L473.13 173.06L473.13 173.06L473.13 176.66L473.13 176.66L327.07 176.66z" stroke="none" fill="#FFFFFF" fill-rule="evenodd" /><g clip-path="url(#6)"><path transform="matrix(1 0 0 -1 0 841)" d="M327.07 176.66L473.13 176.66L473.13 176.66L473.13 192.62L473.13 192.62L327.07 192.62z" stroke="none" fill="#FFFFFF" fill-rule="evenodd" /></g><path transform="matrix(1 0 0 -1 0 841)" d="M473.62 173.06L534.82 173.06L534.82 173.06L534.82 176.66L534.82 176.66L473.62 176.66z" stroke="none" fill="#FFFFFF" fill-rule="evenodd" /><g clip-path="url(#7)"><path transform="matrix(1 0 0 -1 0 841)" d="M473.62 176.66L534.82 176.66L534.82 176.66L534.82 192.62L534.82 192.62L473.62 192.62z" stroke="none" fill="#FFFFFF" fill-rule="evenodd" /></g><path transform="matrix(1 0 0 -1 0 841)" d="M56.4 192.62L56.88 192.62L56.88 192.62L56.88 193.1L56.88 193.1L56.4 193.1z" stroke="none" fill="#000000" fill-rule="evenodd" /><path transform="matrix(1 0 0 -1 0 841)" d="M56.88 192.62L146.904 192.62L146.904 192.62L146.904 193.1L146.904 193.1L56.88 193.1z" stroke="none" fill="#000000" fill-rule="evenodd" /><path transform="matrix(1 0 0 -1 0 841)" d="M146.9 192.62L147.38 192.62L147.38 192.62L147.38 193.1L147.38 193.1L146.9 193.1z" stroke="none" fill="#000000" fill-rule="evenodd" /><path transform="matrix(1 0 0 -1 0 841)" d="M147.38 192.62L326.47 192.62L326.47 192.62L326.47 193.1L326.47 193.1L147.38 193.1z" stroke="none" fill="#000000" fill-rule="evenodd" /><path transform="matrix(1 0 0 -1 0 841)" d="M326.47 192.62L326.95 192.62L326.95 192.62L326.95 193.1L326.95 193.1L326.47 193.1z" stroke="none" fill="#000000" fill-rule="evenodd" /><path transform="matrix(1 0 0 -1 0 841)" d="M326.95 192.62L473.01 192.62L473.01 192.62L473.01 193.1L473.01 193.1L326.95 193.1z" stroke="none" fill="#000000" fill-rule="evenodd" /><path transform="matrix(1 0 0 -1 0 841)" d="M473.02 192.62L473.5 192.62L473.5 192.62L473.5 193.1L473.5 193.1L473.02 193.1z" stroke="none" fill="#000000" fill-rule="evenodd" /><path transform="matrix(1 0 0 -1 0 841)" d="M473.5 192.62L534.7 192.62L534.7 192.62L534.7 193.1L534.7 193.1L473.5 193.1z" stroke="none" fill="#000000" fill-rule="evenodd" /><path transform="matrix(1 0 0 -1 0 841)" d="M534.7 192.62L535.1801 192.62L535.1801 192.62L535.1801 193.1L535.1801 193.1L534.7 193.1z" stroke="none" fill="#000000" fill-rule="evenodd" /><path transform="matrix(1 0 0 -1 0 841)" d="M56.4 173.06L56.88 173.06L56.88 173.06L56.88 192.62L56.88 192.62L56.4 192.62z" stroke="none" fill="#000000" fill-rule="evenodd" /><path transform="matrix(1 0 0 -1 0 841)" d="M146.9 173.06L147.38 173.06L147.38 173.06L147.38 192.62L147.38 192.62L146.9 192.62z" stroke="none" fill="#000000" fill-rule="evenodd" /><path transform="matrix(1 0 0 -1 0 841)" d="M326.47 173.06L326.95 173.06L326.95 173.06L326.95 192.62L326.95 192.62L326.47 192.62z" stroke="none" fill="#000000" fill-rule="evenodd" /><path transform="matrix(1 0 0 -1 0 841)" d="M473.02 173.06L473.5 173.06L473.5 173.06L473.5 192.62L473.5 192.62L473.02 192.62z" stroke="none" fill="#000000" fill-rule="evenodd" /><path transform="matrix(1 0 0 -1 0 841)" d="M534.7 173.06L535.1801 173.06L535.1801 173.06L535.1801 192.62L535.1801 192.62L534.7 192.62z" stroke="none" fill="#000000" fill-rule="evenodd" /><path transform="matrix(1 0 0 -1 0 841)" d="M57 153.14L147.024 153.14L147.024 153.14L147.024 156.74L147.024 156.74L57 156.74z" stroke="none" fill="#FFFFFF" fill-rule="evenodd" /><path transform="matrix(1 0 0 -1 0 841)" d="M57 156.74L147.024 156.74L147.024 156.74L147.024 172.58L147.024 172.58L57 172.58z" stroke="none" fill="#FFFFFF" fill-rule="evenodd" /><path transform="matrix(1 0 0 -1 0 841)" d="M147.5 153.14L326.47 153.14L326.47 153.14L326.47 156.74L326.47 156.74L147.5 156.74z" stroke="none" fill="#FFFFFF" fill-rule="evenodd" /><path transform="matrix(1 0 0 -1 0 841)" d="M147.5 156.74L326.47 156.74L326.47 156.74L326.47 172.58L326.47 172.58L147.5 172.58z" stroke="none" fill="#FFFFFF" fill-rule="evenodd" /><path transform="matrix(1 0 0 -1 0 841)" d="M327.07 153.14L473.13 153.14L473.13 153.14L473.13 156.74L473.13 156.74L327.07 156.74z" stroke="none" fill="#FFFFFF" fill-rule="evenodd" /><path transform="matrix(1 0 0 -1 0 841)" d="M327.07 156.74L473.13 156.74L473.13 156.74L473.13 172.58L473.13 172.58L327.07 172.58z" stroke="none" fill="#FFFFFF" fill-rule="evenodd" /><path transform="matrix(1 0 0 -1 0 841)" d="M473.62 153.14L534.82 153.14L534.82 153.14L534.82 156.74L534.82 156.74L473.62 156.74z" stroke="none" fill="#FFFFFF" fill-rule="evenodd" /><path transform="matrix(1 0 0 -1 0 841)" d="M473.62 156.74L534.82 156.74L534.82 156.74L534.82 172.58L534.82 172.58L473.62 172.58z" stroke="none" fill="#FFFFFF" fill-rule="evenodd" /><path transform="matrix(1 0 0 -1 0 841)" d="M56.4 172.58L56.88 172.58L56.88 172.58L56.88 173.06L56.88 173.06L56.4 173.06z" stroke="none" fill="#000000" fill-rule="evenodd" /><path transform="matrix(1 0 0 -1 0 841)" d="M56.88 172.58L146.904 172.58L146.904 172.58L146.904 173.06L146.904 173.06L56.88 173.06z" stroke="none" fill="#000000" fill-rule="evenodd" /><path transform="matrix(1 0 0 -1 0 841)" d="M146.9 172.58L147.38 172.58L147.38 172.58L147.38 173.06L147.38 173.06L146.9 173.06z" stroke="none" fill="#000000" fill-rule="evenodd" /><path transform="matrix(1 0 0 -1 0 841)" d="M147.38 172.58L326.47 172.58L326.47 172.58L326.47 173.06L326.47 173.06L147.38 173.06z" stroke="none" fill="#000000" fill-rule="evenodd" /><path transform="matrix(1 0 0 -1 0 841)" d="M326.47 172.58L326.95 172.58L326.95 172.58L326.95 173.06L326.95 173.06L326.47 173.06z" stroke="none" fill="#000000" fill-rule="evenodd" /><path transform="matrix(1 0 0 -1 0 841)" d="M326.95 172.58L473.01 172.58L473.01 172.58L473.01 173.06L473.01 173.06L326.95 173.06z" stroke="none" fill="#000000" fill-rule="evenodd" /><path transform="matrix(1 0 0 -1 0 841)" d="M473.02 172.58L473.5 172.58L473.5 172.58L473.5 173.06L473.5 173.06L473.02 173.06z" stroke="none" fill="#000000" fill-rule="evenodd" /><path transform="matrix(1 0 0 -1 0 841)" d="M473.5 172.58L534.7 172.58L534.7 172.58L534.7 173.06L534.7 173.06L473.5 173.06z" stroke="none" fill="#000000" fill-rule="evenodd" /><path transform="matrix(1 0 0 -1 0 841)" d="M534.7 172.58L535.1801 172.58L535.1801 172.58L535.1801 173.06L535.1801 173.06L534.7 173.06z" stroke="none" fill="#000000" fill-rule="evenodd" /><path transform="matrix(1 0 0 -1 0 841)" d="M56.4 153.14L56.88 153.14L56.88 153.14L56.88 172.58L56.88 172.58L56.4 172.58z" stroke="none" fill="#000000" fill-rule="evenodd" /><path transform="matrix(1 0 0 -1 0 841)" d="M146.9 153.14L147.38 153.14L147.38 153.14L147.38 172.58L147.38 172.58L146.9 172.58z" stroke="none" fill="#000000" fill-rule="evenodd" /><path transform="matrix(1 0 0 -1 0 841)" d="M326.47 153.14L326.95 153.14L326.95 153.14L326.95 172.58L326.95 172.58L326.47 172.58z" stroke="none" fill="#000000" fill-rule="evenodd" /><path transform="matrix(1 0 0 -1 0 841)" d="M473.02 153.14L473.5 153.14L473.5 153.14L473.5 172.58L473.5 172.58L473.02 172.58z" stroke="none" fill="#000000" fill-rule="evenodd" /><path transform="matrix(1 0 0 -1 0 841)" d="M534.7 153.14L535.1801 153.14L535.1801 153.14L535.1801 172.58L535.1801 172.58L534.7 172.58z" stroke="none" fill="#000000" fill-rule="evenodd" /><path transform="matrix(1 0 0 -1 0 841)" d="M57 133.1L147.024 133.1L147.024 133.1L147.024 136.7L147.024 136.7L57 136.7z" stroke="none" fill="#FFFFFF" fill-rule="evenodd" /><path transform="matrix(1 0 0 -1 0 841)" d="M57 136.7L147.024 136.7L147.024 136.7L147.024 152.54L147.024 152.54L57 152.54z" stroke="none" fill="#FFFFFF" fill-rule="evenodd" /><path transform="matrix(1 0 0 -1 0 841)" d="M147.5 133.1L326.47 133.1L326.47 133.1L326.47 136.7L326.47 136.7L147.5 136.7z" stroke="none" fill="#FFFFFF" fill-rule="evenodd" /><path transform="matrix(1 0 0 -1 0 841)" d="M147.5 136.7L326.47 136.7L326.47 136.7L326.47 152.54L326.47 152.54L147.5 152.54z" stroke="none" fill="#FFFFFF" fill-rule="evenodd" /><path transform="matrix(1 0 0 -1 0 841)" d="M327.07 133.1L473.13 133.1L473.13 133.1L473.13 136.7L473.13 136.7L327.07 136.7z" stroke="none" fill="#FFFFFF" fill-rule="evenodd" /><path transform="matrix(1 0 0 -1 0 841)" d="M327.07 136.7L473.13 136.7L473.13 136.7L473.13 152.54L473.13 152.54L327.07 152.54z" stroke="none" fill="#FFFFFF" fill-rule="evenodd" /><path transform="matrix(1 0 0 -1 0 841)" d="M473.62 133.1L534.82 133.1L534.82 133.1L534.82 136.7L534.82 136.7L473.62 136.7z" stroke="none" fill="#FFFFFF" fill-rule="evenodd" /><path transform="matrix(1 0 0 -1 0 841)" d="M473.62 136.7L534.82 136.7L534.82 136.7L534.82 152.54L534.82 152.54L473.62 152.54z" stroke="none" fill="#FFFFFF" fill-rule="evenodd" /><path transform="matrix(1 0 0 -1 0 841)" d="M56.4 152.66L56.88 152.66L56.88 152.66L56.88 153.14L56.88 153.14L56.4 153.14z" stroke="none" fill="#000000" fill-rule="evenodd" /><path transform="matrix(1 0 0 -1 0 841)" d="M56.88 152.66L146.904 152.66L146.904 152.66L146.904 153.14L146.904 153.14L56.88 153.14z" stroke="none" fill="#000000" fill-rule="evenodd" /><path transform="matrix(1 0 0 -1 0 841)" d="M146.9 152.66L147.38 152.66L147.38 152.66L147.38 153.14L147.38 153.14L146.9 153.14z" stroke="none" fill="#000000" fill-rule="evenodd" /><path transform="matrix(1 0 0 -1 0 841)" d="M147.38 152.66L326.47 152.66L326.47 152.66L326.47 153.14L326.47 153.14L147.38 153.14z" stroke="none" fill="#000000" fill-rule="evenodd" /><path transform="matrix(1 0 0 -1 0 841)" d="M326.47 152.66L326.95 152.66L326.95 152.66L326.95 153.14L326.95 153.14L326.47 153.14z" stroke="none" fill="#000000" fill-rule="evenodd" /><path transform="matrix(1 0 0 -1 0 841)" d="M326.95 152.66L473.01 152.66L473.01 152.66L473.01 153.14L473.01 153.14L326.95 153.14z" stroke="none" fill="#000000" fill-rule="evenodd" /><path transform="matrix(1 0 0 -1 0 841)" d="M473.02 152.66L473.5 152.66L473.5 152.66L473.5 153.14L473.5 153.14L473.02 153.14z" stroke="none" fill="#000000" fill-rule="evenodd" /><path transform="matrix(1 0 0 -1 0 841)" d="M473.5 152.66L534.7 152.66L534.7 152.66L534.7 153.14L534.7 153.14L473.5 153.14z" stroke="none" fill="#000000" fill-rule="evenodd" /><path transform="matrix(1 0 0 -1 0 841)" d="M534.7 152.66L535.1801 152.66L535.1801 152.66L535.1801 153.14L535.1801 153.14L534.7 153.14z" stroke="none" fill="#000000" fill-rule="evenodd" /><path transform="matrix(1 0 0 -1 0 841)" d="M56.4 133.1L56.88 133.1L56.88 133.1L56.88 152.66L56.88 152.66L56.4 152.66z" stroke="none" fill="#000000" fill-rule="evenodd" /><path transform="matrix(1 0 0 -1 0 841)" d="M146.9 133.1L147.38 133.1L147.38 133.1L147.38 152.66L147.38 152.66L146.9 152.66z" stroke="none" fill="#000000" fill-rule="evenodd" /><path transform="matrix(1 0 0 -1 0 841)" d="M326.47 133.1L326.95 133.1L326.95 133.1L326.95 152.66L326.95 152.66L326.47 152.66z" stroke="none" fill="#000000" fill-rule="evenodd" /><path transform="matrix(1 0 0 -1 0 841)" d="M473.02 133.1L473.5 133.1L473.5 133.1L473.5 152.66L473.5 152.66L473.02 152.66z" stroke="none" fill="#000000" fill-rule="evenodd" /><path transform="matrix(1 0 0 -1 0 841)" d="M534.7 133.1L535.1801 133.1L535.1801 133.1L535.1801 152.66L535.1801 152.66L534.7 152.66z" stroke="none" fill="#000000" fill-rule="evenodd" /><path transform="matrix(1 0 0 -1 0 841)" d="M57 113.54L147.024 113.54L147.024 113.54L147.024 116.66L147.024 116.66L57 116.66z" stroke="none" fill="#FFFFFF" fill-rule="evenodd" /><g clip-path="url(#8)"><path transform="matrix(1 0 0 -1 0 841)" d="M57 116.66L147.024 116.66L147.024 116.66L147.024 132.62L147.024 132.62L57 132.62z" stroke="none" fill="#FFFFFF" fill-rule="evenodd" /></g><g clip-path="url(#9)"><path transform="matrix(1 0 0 -1 0 841)" d="M147.5 116.66L326.47 116.66L326.47 116.66L326.47 132.62L326.47 132.62L147.5 132.62z" stroke="none" fill="#FFFFFF" fill-rule="evenodd" /></g><path transform="matrix(1 0 0 -1 0 841)" d="M147.5 113.54L326.47 113.54L326.47 113.54L326.47 116.66L326.47 116.66L147.5 116.66z" stroke="none" fill="#FFFFFF" fill-rule="evenodd" /><g clip-path="url(#10)"></g><path transform="matrix(1 0 0 -1 0 841)" d="M327.07 113.54L473.13 113.54L473.13 113.54L473.13 116.66L473.13 116.66L327.07 116.66z" stroke="none" fill="#FFFFFF" fill-rule="evenodd" /><g clip-path="url(#11)"><path transform="matrix(1 0 0 -1 0 841)" d="M327.07 116.66L473.13 116.66L473.13 116.66L473.13 132.62L473.13 132.62L327.07 132.62z" stroke="none" fill="#FFFFFF" fill-rule="evenodd" /></g><path transform="matrix(1 0 0 -1 0 841)" d="M473.62 113.54L534.82 113.54L534.82 113.54L534.82 116.66L534.82 116.66L473.62 116.66z" stroke="none" fill="#FFFFFF" fill-rule="evenodd" /><g clip-path="url(#12)"><path transform="matrix(1 0 0 -1 0 841)" d="M473.62 116.66L534.82 116.66L534.82 116.66L534.82 132.62L534.82 132.62L473.62 132.62z" stroke="none" fill="#FFFFFF" fill-rule="evenodd" /></g><path transform="matrix(1 0 0 -1 0 841)" d="M56.4 132.62L56.88 132.62L56.88 132.62L56.88 133.1L56.88 133.1L56.4 133.1z" stroke="none" fill="#000000" fill-rule="evenodd" /><path transform="matrix(1 0 0 -1 0 841)" d="M56.88 132.62L146.904 132.62L146.904 132.62L146.904 133.1L146.904 133.1L56.88 133.1z" stroke="none" fill="#000000" fill-rule="evenodd" /><path transform="matrix(1 0 0 -1 0 841)" d="M146.9 132.62L147.38 132.62L147.38 132.62L147.38 133.1L147.38 133.1L146.9 133.1z" stroke="none" fill="#000000" fill-rule="evenodd" /><path transform="matrix(1 0 0 -1 0 841)" d="M147.38 132.62L326.47 132.62L326.47 132.62L326.47 133.1L326.47 133.1L147.38 133.1z" stroke="none" fill="#000000" fill-rule="evenodd" /><path transform="matrix(1 0 0 -1 0 841)" d="M326.47 132.62L326.95 132.62L326.95 132.62L326.95 133.1L326.95 133.1L326.47 133.1z" stroke="none" fill="#000000" fill-rule="evenodd" /><path transform="matrix(1 0 0 -1 0 841)" d="M326.95 132.62L473.01 132.62L473.01 132.62L473.01 133.1L473.01 133.1L326.95 133.1z" stroke="none" fill="#000000" fill-rule="evenodd" /><path transform="matrix(1 0 0 -1 0 841)" d="M473.02 132.62L473.5 132.62L473.5 132.62L473.5 133.1L473.5 133.1L473.02 133.1z" stroke="none" fill="#000000" fill-rule="evenodd" /><path transform="matrix(1 0 0 -1 0 841)" d="M473.5 132.62L534.7 132.62L534.7 132.62L534.7 133.1L534.7 133.1L473.5 133.1z" stroke="none" fill="#000000" fill-rule="evenodd" /><path transform="matrix(1 0 0 -1 0 841)" d="M534.7 132.62L535.1801 132.62L535.1801 132.62L535.1801 133.1L535.1801 133.1L534.7 133.1z" stroke="none" fill="#000000" fill-rule="evenodd" /><path transform="matrix(1 0 0 -1 0 841)" d="M56.4 113.54L56.88 113.54L56.88 113.54L56.88 132.62L56.88 132.62L56.4 132.62z" stroke="none" fill="#000000" fill-rule="evenodd" /><path transform="matrix(1 0 0 -1 0 841)" d="M146.9 113.54L147.38 113.54L147.38 113.54L147.38 132.62L147.38 132.62L146.9 132.62z" stroke="none" fill="#000000" fill-rule="evenodd" /><path transform="matrix(1 0 0 -1 0 841)" d="M326.47 113.54L326.95 113.54L326.95 113.54L326.95 132.62L326.95 132.62L326.47 132.62z" stroke="none" fill="#000000" fill-rule="evenodd" /><path transform="matrix(1 0 0 -1 0 841)" d="M473.02 113.54L473.5 113.54L473.5 113.54L473.5 132.62L473.5 132.62L473.02 132.62z" stroke="none" fill="#000000" fill-rule="evenodd" /><path transform="matrix(1 0 0 -1 0 841)" d="M534.7 113.54L535.1801 113.54L535.1801 113.54L535.1801 132.62L535.1801 132.62L534.7 132.62z" stroke="none" fill="#000000" fill-rule="evenodd" /><path transform="matrix(1 0 0 -1 0 841)" d="M57 65.544L147.024 65.544L147.024 65.544L147.024 97.224L147.024 97.224L57 97.224z" stroke="none" fill="#FFFFFF" fill-rule="evenodd" /><path transform="matrix(1 0 0 -1 0 841)" d="M57 97.224L147.024 97.224L147.024 97.224L147.024 113.064L147.024 113.064L57 113.064z" stroke="none" fill="#FFFFFF" fill-rule="evenodd" /><path transform="matrix(1 0 0 -1 0 841)" d="M147.5 97.224L326.47 97.224L326.47 97.224L326.47 113.064L326.47 113.064L147.5 113.064z" stroke="none" fill="#FFFFFF" fill-rule="evenodd" /><path transform="matrix(1 0 0 -1 0 841)" d="M147.5 81.384L326.47 81.384L326.47 81.384L326.47 97.224L326.47 97.224L147.5 97.224z" stroke="none" fill="#FFFFFF" fill-rule="evenodd" /><path transform="matrix(1 0 0 -1 0 841)" d="M147.5 65.544L326.47 65.544L326.47 65.544L326.47 81.384L326.47 81.384L147.5 81.384z" stroke="none" fill="#FFFFFF" fill-rule="evenodd" /><path transform="matrix(1 0 0 -1 0 841)" d="M327.07 65.544L473.13 65.544L473.13 65.544L473.13 97.224L473.13 97.224L327.07 97.224z" stroke="none" fill="#FFFFFF" fill-rule="evenodd" /><path transform="matrix(1 0 0 -1 0 841)" d="M327.07 97.224L473.13 97.224L473.13 97.224L473.13 113.064L473.13 113.064L327.07 113.064z" stroke="none" fill="#FFFFFF" fill-rule="evenodd" /><path transform="matrix(1 0 0 -1 0 841)" d="M473.62 65.544L534.82 65.544L534.82 65.544L534.82 97.224L534.82 97.224L473.62 97.224z" stroke="none" fill="#FFFFFF" fill-rule="evenodd" /><path transform="matrix(1 0 0 -1 0 841)" d="M473.62 97.224L534.82 97.224L534.82 97.224L534.82 113.064L534.82 113.064L473.62 113.064z" stroke="none" fill="#FFFFFF" fill-rule="evenodd" /><path transform="matrix(1 0 0 -1 0 841)" d="M56.4 113.06L56.88 113.06L56.88 113.06L56.88 113.54L56.88 113.54L56.4 113.54z" stroke="none" fill="#000000" fill-rule="evenodd" /><path transform="matrix(1 0 0 -1 0 841)" d="M56.88 113.06L146.904 113.06L146.904 113.06L146.904 113.54L146.904 113.54L56.88 113.54z" stroke="none" fill="#000000" fill-rule="evenodd" /><path transform="matrix(1 0 0 -1 0 841)" d="M146.9 113.06L147.38 113.06L147.38 113.06L147.38 113.54L147.38 113.54L146.9 113.54z" stroke="none" fill="#000000" fill-rule="evenodd" /><path transform="matrix(1 0 0 -1 0 841)" d="M147.38 113.06L326.47 113.06L326.47 113.06L326.47 113.54L326.47 113.54L147.38 113.54z" stroke="none" fill="#000000" fill-rule="evenodd" /><path transform="matrix(1 0 0 -1 0 841)" d="M326.47 113.06L326.95 113.06L326.95 113.06L326.95 113.54L326.95 113.54L326.47 113.54z" stroke="none" fill="#000000" fill-rule="evenodd" /><path transform="matrix(1 0 0 -1 0 841)" d="M326.95 113.06L473.01 113.06L473.01 113.06L473.01 113.54L473.01 113.54L326.95 113.54z" stroke="none" fill="#000000" fill-rule="evenodd" /><path transform="matrix(1 0 0 -1 0 841)" d="M473.02 113.06L473.5 113.06L473.5 113.06L473.5 113.54L473.5 113.54L473.02 113.54z" stroke="none" fill="#000000" fill-rule="evenodd" /><path transform="matrix(1 0 0 -1 0 841)" d="M473.5 113.06L534.7 113.06L534.7 113.06L534.7 113.54L534.7 113.54L473.5 113.54z" stroke="none" fill="#000000" fill-rule="evenodd" /><path transform="matrix(1 0 0 -1 0 841)" d="M534.7 113.06L535.1801 113.06L535.1801 113.06L535.1801 113.54L535.1801 113.54L534.7 113.54z" stroke="none" fill="#000000" fill-rule="evenodd" /><path transform="matrix(1 0 0 -1 0 841)" d="M56.4 65.424L56.88 65.424L56.88 65.424L56.88 113.064L56.88 113.064L56.4 113.064z" stroke="none" fill="#000000" fill-rule="evenodd" /><path transform="matrix(1 0 0 -1 0 841)" d="M56.4 64.944L56.88 64.944L56.88 64.944L56.88 65.42398L56.88 65.42398L56.4 65.42398z" stroke="none" fill="#000000" fill-rule="evenodd" /><path transform="matrix(1 0 0 -1 0 841)" d="M56.4 64.944L56.88 64.944L56.88 64.944L56.88 65.42398L56.88 65.42398L56.4 65.42398z" stroke="none" fill="#000000" fill-rule="evenodd" /><path transform="matrix(1 0 0 -1 0 841)" d="M56.88 64.944L146.904 64.944L146.904 64.944L146.904 65.42398L146.904 65.42398L56.88 65.42398z" stroke="none" fill="#000000" fill-rule="evenodd" /><path transform="matrix(1 0 0 -1 0 841)" d="M146.9 65.424L147.38 65.424L147.38 65.424L147.38 113.064L147.38 113.064L146.9 113.064z" stroke="none" fill="#000000" fill-rule="evenodd" /><path transform="matrix(1 0 0 -1 0 841)" d="M146.9 64.944L147.38 64.944L147.38 64.944L147.38 65.42398L147.38 65.42398L146.9 65.42398z" stroke="none" fill="#000000" fill-rule="evenodd" /><path transform="matrix(1 0 0 -1 0 841)" d="M147.38 64.944L326.47 64.944L326.47 64.944L326.47 65.42398L326.47 65.42398L147.38 65.42398z" stroke="none" fill="#000000" fill-rule="evenodd" /><path transform="matrix(1 0 0 -1 0 841)" d="M326.47 65.424L326.95 65.424L326.95 65.424L326.95 113.064L326.95 113.064L326.47 113.064z" stroke="none" fill="#000000" fill-rule="evenodd" /><path transform="matrix(1 0 0 -1 0 841)" d="M326.47 64.944L326.95 64.944L326.95 64.944L326.95 65.42398L326.95 65.42398L326.47 65.42398z" stroke="none" fill="#000000" fill-rule="evenodd" /><path transform="matrix(1 0 0 -1 0 841)" d="M326.95 64.944L473.01 64.944L473.01 64.944L473.01 65.42398L473.01 65.42398L326.95 65.42398z" stroke="none" fill="#000000" fill-rule="evenodd" /><path transform="matrix(1 0 0 -1 0 841)" d="M473.02 65.424L473.5 65.424L473.5 65.424L473.5 113.064L473.5 113.064L473.02 113.064z" stroke="none" fill="#000000" fill-rule="evenodd" /><path transform="matrix(1 0 0 -1 0 841)" d="M473.02 64.944L473.5 64.944L473.5 64.944L473.5 65.42398L473.5 65.42398L473.02 65.42398z" stroke="none" fill="#000000" fill-rule="evenodd" /><path transform="matrix(1 0 0 -1 0 841)" d="M473.5 64.944L534.7 64.944L534.7 64.944L534.7 65.42398L534.7 65.42398L473.5 65.42398z" stroke="none" fill="#000000" fill-rule="evenodd" /><path transform="matrix(1 0 0 -1 0 841)" d="M534.7 65.424L535.1801 65.424L535.1801 65.424L535.1801 113.064L535.1801 113.064L534.7 113.064z" stroke="none" fill="#000000" fill-rule="evenodd" /><path transform="matrix(1 0 0 -1 0 841)" d="M534.7 64.944L535.1801 64.944L535.1801 64.944L535.1801 65.42398L535.1801 65.42398L534.7 65.42398z" stroke="none" fill="#000000" fill-rule="evenodd" /><path transform="matrix(1 0 0 -1 0 841)" d="M534.7 64.944L535.1801 64.944L535.1801 64.944L535.1801 65.42398L535.1801 65.42398L534.7 65.42398z" stroke="none" fill="#000000" fill-rule="evenodd" /><g transform="matrix(1 0 0 1 50 23)"><g transform="matrix(1 0 0 1 0 0)"><image x="0" y="0" xlink:href="img_01.png" width="143" height="32" /></g></g></g></g></g><defs><clipPath id="1"><path d="M0 841L0 -0.9199829L0 -0.9199829L595.32 -0.9199829L595.32 -0.9199829L595.32 841L595.32 841L0 841z" /></clipPath><clipPath id="2"><path d="M147.5 607.91L326.47 607.91L326.47 607.91L326.47 558.95L326.47 558.95L147.5 558.95z" /></clipPath><clipPath id="3"><path d="M147.5 607.91L326.47 607.91L326.47 607.91L326.47 558.95L326.47 558.95L147.5 558.95z" /></clipPath><clipPath id="4"><path d="M57 667.94L147.024 667.94L147.024 667.94L147.024 648.38L147.024 648.38L57 648.38z" /></clipPath><clipPath id="5"><path d="M147.5 667.94L326.47 667.94L326.47 667.94L326.47 648.38L326.47 648.38L147.5 648.38z" /></clipPath><clipPath id="6"><path d="M327.07 667.94L473.13 667.94L473.13 667.94L473.13 648.38L473.13 648.38L327.07 648.38z" /></clipPath><clipPath id="7"><path d="M473.62 667.94L534.82 667.94L534.82 667.94L534.82 648.38L534.82 648.38L473.62 648.38z" /></clipPath><clipPath id="8"><path d="M57 727.46L147.024 727.46L147.024 727.46L147.024 708.38L147.024 708.38L57 708.38z" /></clipPath><clipPath id="9"><path d="M147.5 727.46L326.47 727.46L326.47 727.46L326.47 708.38L326.47 708.38L147.5 708.38z" /></clipPath><clipPath id="10"><path d="M147.5 727.46L326.47 727.46L326.47 727.46L326.47 708.38L326.47 708.38L147.5 708.38z" /></clipPath><clipPath id="11"><path d="M327.07 727.46L473.13 727.46L473.13 727.46L473.13 708.38L473.13 708.38L327.07 708.38z" /></clipPath><clipPath id="12"><path d="M473.62 727.46L534.82 727.46L534.82 727.46L534.82 708.38L534.82 708.38L473.62 708.38z" /></clipPath></defs></svg>