<svg xmlns="http://www.w3.org/2000/svg" xmlns:xlink="http://www.w3.org/1999/xlink" id="body_8" preserveAspectRatio="xMinYMin meet" viewBox="0 0 793 1121"><g transform="matrix(1.333333 0 0 1.333333 0 0)"><g><g clip-path="url(#1)"><path transform="matrix(1 0 0 -1 0 841)" d="M56.52 630.46L56.64 630.46L56.64 630.46L56.64 633.34L56.64 633.34L56.52 633.34z" stroke="none" fill="#000000" fill-rule="evenodd" /><path transform="matrix(1 0 0 -1 0 841)" d="M56.52 633.22L56.64 633.22L56.64 633.22L56.64 633.34L56.64 633.34L56.52 633.34z" stroke="none" fill="#000000" fill-rule="evenodd" /><path transform="matrix(1 0 0 -1 0 841)" d="M56.64 633.22L163.58 633.22L163.58 633.22L163.58 633.34L163.58 633.34L56.64 633.34z" stroke="none" fill="#000000" fill-rule="evenodd" /><path transform="matrix(1 0 0 -1 0 841)" d="M163.58 630.46L163.7 630.46L163.7 630.46L163.7 633.22L163.7 633.22L163.58 633.22z" stroke="none" fill="#000000" fill-rule="evenodd" /><path transform="matrix(1 0 0 -1 0 841)" d="M163.58 633.22L163.7 633.22L163.7 633.22L163.7 633.34L163.7 633.34L163.58 633.34z" stroke="none" fill="#000000" fill-rule="evenodd" /><path transform="matrix(1 0 0 -1 0 841)" d="M163.7 633.22L303.4 633.22L303.4 633.22L303.4 633.34L303.4 633.34L163.7 633.34z" stroke="none" fill="#000000" fill-rule="evenodd" /><path transform="matrix(1 0 0 -1 0 841)" d="M303.41 630.46L303.53 630.46L303.53 630.46L303.53 633.22L303.53 633.22L303.41 633.22z" stroke="none" fill="#000000" fill-rule="evenodd" /><path transform="matrix(1 0 0 -1 0 841)" d="M303.41 633.22L303.53 633.22L303.53 633.22L303.53 633.34L303.53 633.34L303.41 633.34z" stroke="none" fill="#000000" fill-rule="evenodd" /><path transform="matrix(1 0 0 -1 0 841)" d="M303.53 633.22L465.7 633.22L465.7 633.22L465.7 633.34L465.7 633.34L303.53 633.34z" stroke="none" fill="#000000" fill-rule="evenodd" /><path transform="matrix(1 0 0 -1 0 841)" d="M465.7 630.46L465.82 630.46L465.82 630.46L465.82 633.22L465.82 633.22L465.7 633.22z" stroke="none" fill="#000000" fill-rule="evenodd" /><path transform="matrix(1 0 0 -1 0 841)" d="M465.7 633.22L465.82 633.22L465.82 633.22L465.82 633.34L465.82 633.34L465.7 633.34z" stroke="none" fill="#000000" fill-rule="evenodd" /><path transform="matrix(1 0 0 -1 0 841)" d="M465.82 633.22L539.14 633.22L539.14 633.22L539.14 633.34L539.14 633.34L465.82 633.34z" stroke="none" fill="#000000" fill-rule="evenodd" /><path transform="matrix(1 0 0 -1 0 841)" d="M539.14 630.46L539.26 630.46L539.26 630.46L539.26 633.34L539.26 633.34L539.14 633.34z" stroke="none" fill="#000000" fill-rule="evenodd" /><path transform="matrix(1 0 0 -1 0 841)" d="M539.14 633.22L539.26 633.22L539.26 633.22L539.26 633.34L539.26 633.34L539.14 633.34z" stroke="none" fill="#000000" fill-rule="evenodd" /><path transform="matrix(1 0 0 -1 0 841)" d="M56.52 595.9L56.64 595.9L56.64 595.9L56.64 630.46L56.64 630.46L56.52 630.46z" stroke="none" fill="#000000" fill-rule="evenodd" /><path transform="matrix(1 0 0 -1 0 841)" d="M163.58 595.9L163.7 595.9L163.7 595.9L163.7 630.46L163.7 630.46L163.58 630.46z" stroke="none" fill="#000000" fill-rule="evenodd" /><path transform="matrix(1 0 0 -1 0 841)" d="M303.41 595.9L303.53 595.9L303.53 595.9L303.53 630.46L303.53 630.46L303.41 630.46z" stroke="none" fill="#000000" fill-rule="evenodd" /><path transform="matrix(1 0 0 -1 0 841)" d="M465.7 595.9L465.82 595.9L465.82 595.9L465.82 630.46L465.82 630.46L465.7 630.46z" stroke="none" fill="#000000" fill-rule="evenodd" /><path transform="matrix(1 0 0 -1 0 841)" d="M539.14 595.9L539.26 595.9L539.26 595.9L539.26 630.46L539.26 630.46L539.14 630.46z" stroke="none" fill="#000000" fill-rule="evenodd" /><path transform="matrix(1 0 0 -1 0 841)" d="M56.52 593.14L56.64 593.14L56.64 593.14L56.64 595.9L56.64 595.9L56.52 595.9z" stroke="none" fill="#000000" fill-rule="evenodd" /><path transform="matrix(1 0 0 -1 0 841)" d="M56.64 595.78L163.58 595.78L163.58 595.78L163.58 595.9L163.58 595.9L56.64 595.9z" stroke="none" fill="#000000" fill-rule="evenodd" /><path transform="matrix(1 0 0 -1 0 841)" d="M163.58 593.14L163.7 593.14L163.7 593.14L163.7 595.9L163.7 595.9L163.58 595.9z" stroke="none" fill="#000000" fill-rule="evenodd" /><path transform="matrix(1 0 0 -1 0 841)" d="M163.7 595.78L303.4 595.78L303.4 595.78L303.4 595.9L303.4 595.9L163.7 595.9z" stroke="none" fill="#000000" fill-rule="evenodd" /><path transform="matrix(1 0 0 -1 0 841)" d="M303.41 593.14L303.53 593.14L303.53 593.14L303.53 595.9L303.53 595.9L303.41 595.9z" stroke="none" fill="#000000" fill-rule="evenodd" /><path transform="matrix(1 0 0 -1 0 841)" d="M303.53 595.78L465.7 595.78L465.7 595.78L465.7 595.9L465.7 595.9L303.53 595.9z" stroke="none" fill="#000000" fill-rule="evenodd" /><path transform="matrix(1 0 0 -1 0 841)" d="M465.7 593.14L465.82 593.14L465.82 593.14L465.82 595.9L465.82 595.9L465.7 595.9z" stroke="none" fill="#000000" fill-rule="evenodd" /><path transform="matrix(1 0 0 -1 0 841)" d="M465.82 595.78L539.14 595.78L539.14 595.78L539.14 595.9L539.14 595.9L465.82 595.9z" stroke="none" fill="#000000" fill-rule="evenodd" /><path transform="matrix(1 0 0 -1 0 841)" d="M539.14 593.14L539.26 593.14L539.26 593.14L539.26 595.9L539.26 595.9L539.14 595.9z" stroke="none" fill="#000000" fill-rule="evenodd" /><path transform="matrix(1 0 0 -1 0 841)" d="M56.52 549.07L56.64 549.07L56.64 549.07L56.64 593.134L56.64 593.134L56.52 593.134z" stroke="none" fill="#000000" fill-rule="evenodd" /><path transform="matrix(1 0 0 -1 0 841)" d="M163.58 549.07L163.7 549.07L163.7 549.07L163.7 593.134L163.7 593.134L163.58 593.134z" stroke="none" fill="#000000" fill-rule="evenodd" /><path transform="matrix(1 0 0 -1 0 841)" d="M303.41 549.07L303.53 549.07L303.53 549.07L303.53 593.134L303.53 593.134L303.41 593.134z" stroke="none" fill="#000000" fill-rule="evenodd" /><path transform="matrix(1 0 0 -1 0 841)" d="M465.7 549.07L465.82 549.07L465.82 549.07L465.82 593.134L465.82 593.134L465.7 593.134z" stroke="none" fill="#000000" fill-rule="evenodd" /><path transform="matrix(1 0 0 -1 0 841)" d="M539.14 549.07L539.26 549.07L539.26 549.07L539.26 593.134L539.26 593.134L539.14 593.134z" stroke="none" fill="#000000" fill-rule="evenodd" /><path transform="matrix(1 0 0 -1 0 841)" d="M56.52 546.31L56.64 546.31L56.64 546.31L56.64 549.07L56.64 549.07L56.52 549.07z" stroke="none" fill="#000000" fill-rule="evenodd" /><path transform="matrix(1 0 0 -1 0 841)" d="M56.64 548.95L163.58 548.95L163.58 548.95L163.58 549.0701L163.58 549.0701L56.64 549.0701z" stroke="none" fill="#000000" fill-rule="evenodd" /><path transform="matrix(1 0 0 -1 0 841)" d="M163.58 546.31L163.7 546.31L163.7 546.31L163.7 549.07L163.7 549.07L163.58 549.07z" stroke="none" fill="#000000" fill-rule="evenodd" /><path transform="matrix(1 0 0 -1 0 841)" d="M163.7 548.95L303.4 548.95L303.4 548.95L303.4 549.0701L303.4 549.0701L163.7 549.0701z" stroke="none" fill="#000000" fill-rule="evenodd" /><path transform="matrix(1 0 0 -1 0 841)" d="M303.41 546.31L303.53 546.31L303.53 546.31L303.53 549.07L303.53 549.07L303.41 549.07z" stroke="none" fill="#000000" fill-rule="evenodd" /><path transform="matrix(1 0 0 -1 0 841)" d="M303.53 548.95L465.7 548.95L465.7 548.95L465.7 549.0701L465.7 549.0701L303.53 549.0701z" stroke="none" fill="#000000" fill-rule="evenodd" /><path transform="matrix(1 0 0 -1 0 841)" d="M465.7 546.31L465.82 546.31L465.82 546.31L465.82 549.07L465.82 549.07L465.7 549.07z" stroke="none" fill="#000000" fill-rule="evenodd" /><path transform="matrix(1 0 0 -1 0 841)" d="M465.82 548.95L539.14 548.95L539.14 548.95L539.14 549.0701L539.14 549.0701L465.82 549.0701z" stroke="none" fill="#000000" fill-rule="evenodd" /><path transform="matrix(1 0 0 -1 0 841)" d="M539.14 546.31L539.26 546.31L539.26 546.31L539.26 549.07L539.26 549.07L539.14 549.07z" stroke="none" fill="#000000" fill-rule="evenodd" /><path transform="matrix(1 0 0 -1 0 841)" d="M56.52 515.95L56.64 515.95L56.64 515.95L56.64 546.31L56.64 546.31L56.52 546.31z" stroke="none" fill="#000000" fill-rule="evenodd" /><path transform="matrix(1 0 0 -1 0 841)" d="M163.58 515.95L163.7 515.95L163.7 515.95L163.7 546.31L163.7 546.31L163.58 546.31z" stroke="none" fill="#000000" fill-rule="evenodd" /><path transform="matrix(1 0 0 -1 0 841)" d="M303.41 515.95L303.53 515.95L303.53 515.95L303.53 546.31L303.53 546.31L303.41 546.31z" stroke="none" fill="#000000" fill-rule="evenodd" /><path transform="matrix(1 0 0 -1 0 841)" d="M465.7 515.95L465.82 515.95L465.82 515.95L465.82 546.31L465.82 546.31L465.7 546.31z" stroke="none" fill="#000000" fill-rule="evenodd" /><path transform="matrix(1 0 0 -1 0 841)" d="M539.14 515.95L539.26 515.95L539.26 515.95L539.26 546.31L539.26 546.31L539.14 546.31z" stroke="none" fill="#000000" fill-rule="evenodd" /><path transform="matrix(1 0 0 -1 0 841)" d="M56.52 513.19L56.64 513.19L56.64 513.19L56.64 515.95L56.64 515.95L56.52 515.95z" stroke="none" fill="#000000" fill-rule="evenodd" /><path transform="matrix(1 0 0 -1 0 841)" d="M56.64 515.83L163.58 515.83L163.58 515.83L163.58 515.95L163.58 515.95L56.64 515.95z" stroke="none" fill="#000000" fill-rule="evenodd" /><path transform="matrix(1 0 0 -1 0 841)" d="M163.58 513.19L163.7 513.19L163.7 513.19L163.7 515.95L163.7 515.95L163.58 515.95z" stroke="none" fill="#000000" fill-rule="evenodd" /><path transform="matrix(1 0 0 -1 0 841)" d="M163.7 515.83L303.4 515.83L303.4 515.83L303.4 515.95L303.4 515.95L163.7 515.95z" stroke="none" fill="#000000" fill-rule="evenodd" /><path transform="matrix(1 0 0 -1 0 841)" d="M303.41 513.19L303.53 513.19L303.53 513.19L303.53 515.95L303.53 515.95L303.41 515.95z" stroke="none" fill="#000000" fill-rule="evenodd" /><path transform="matrix(1 0 0 -1 0 841)" d="M303.53 515.83L465.7 515.83L465.7 515.83L465.7 515.95L465.7 515.95L303.53 515.95z" stroke="none" fill="#000000" fill-rule="evenodd" /><path transform="matrix(1 0 0 -1 0 841)" d="M465.7 513.19L465.82 513.19L465.82 513.19L465.82 515.95L465.82 515.95L465.7 515.95z" stroke="none" fill="#000000" fill-rule="evenodd" /><path transform="matrix(1 0 0 -1 0 841)" d="M465.82 515.83L539.14 515.83L539.14 515.83L539.14 515.95L539.14 515.95L465.82 515.95z" stroke="none" fill="#000000" fill-rule="evenodd" /><path transform="matrix(1 0 0 -1 0 841)" d="M539.14 513.19L539.26 513.19L539.26 513.19L539.26 515.95L539.26 515.95L539.14 515.95z" stroke="none" fill="#000000" fill-rule="evenodd" /><path transform="matrix(1 0 0 -1 0 841)" d="M56.52 440.47L56.64 440.47L56.64 440.47L56.64 513.19L56.64 513.19L56.52 513.19z" stroke="none" fill="#000000" fill-rule="evenodd" /><path transform="matrix(1 0 0 -1 0 841)" d="M163.58 440.47L163.7 440.47L163.7 440.47L163.7 513.19L163.7 513.19L163.58 513.19z" stroke="none" fill="#000000" fill-rule="evenodd" /><path transform="matrix(1 0 0 -1 0 841)" d="M303.41 440.47L303.53 440.47L303.53 440.47L303.53 513.19L303.53 513.19L303.41 513.19z" stroke="none" fill="#000000" fill-rule="evenodd" /><path transform="matrix(1 0 0 -1 0 841)" d="M465.7 440.47L465.82 440.47L465.82 440.47L465.82 513.19L465.82 513.19L465.7 513.19z" stroke="none" fill="#000000" fill-rule="evenodd" /><path transform="matrix(1 0 0 -1 0 841)" d="M539.14 440.47L539.26 440.47L539.26 440.47L539.26 513.19L539.26 513.19L539.14 513.19z" stroke="none" fill="#000000" fill-rule="evenodd" /><path transform="matrix(1 0 0 -1 0 841)" d="M56.52 437.71L56.64 437.71L56.64 437.71L56.64 440.47L56.64 440.47L56.52 440.47z" stroke="none" fill="#000000" fill-rule="evenodd" /><path transform="matrix(1 0 0 -1 0 841)" d="M56.64 440.35L163.58 440.35L163.58 440.35L163.58 440.47L163.58 440.47L56.64 440.47z" stroke="none" fill="#000000" fill-rule="evenodd" /><path transform="matrix(1 0 0 -1 0 841)" d="M163.58 437.71L163.7 437.71L163.7 437.71L163.7 440.47L163.7 440.47L163.58 440.47z" stroke="none" fill="#000000" fill-rule="evenodd" /><path transform="matrix(1 0 0 -1 0 841)" d="M163.7 440.35L303.4 440.35L303.4 440.35L303.4 440.47L303.4 440.47L163.7 440.47z" stroke="none" fill="#000000" fill-rule="evenodd" /><path transform="matrix(1 0 0 -1 0 841)" d="M303.41 437.71L303.53 437.71L303.53 437.71L303.53 440.47L303.53 440.47L303.41 440.47z" stroke="none" fill="#000000" fill-rule="evenodd" /><path transform="matrix(1 0 0 -1 0 841)" d="M303.53 440.35L465.7 440.35L465.7 440.35L465.7 440.47L465.7 440.47L303.53 440.47z" stroke="none" fill="#000000" fill-rule="evenodd" /><path transform="matrix(1 0 0 -1 0 841)" d="M465.7 437.71L465.82 437.71L465.82 437.71L465.82 440.47L465.82 440.47L465.7 440.47z" stroke="none" fill="#000000" fill-rule="evenodd" /><path transform="matrix(1 0 0 -1 0 841)" d="M465.82 440.35L539.14 440.35L539.14 440.35L539.14 440.47L539.14 440.47L465.82 440.47z" stroke="none" fill="#000000" fill-rule="evenodd" /><path transform="matrix(1 0 0 -1 0 841)" d="M539.14 437.71L539.26 437.71L539.26 437.71L539.26 440.47L539.26 440.47L539.14 440.47z" stroke="none" fill="#000000" fill-rule="evenodd" /><path transform="matrix(1 0 0 -1 0 841)" d="M56.52 364.97L56.64 364.97L56.64 364.97L56.64 437.714L56.64 437.714L56.52 437.714z" stroke="none" fill="#000000" fill-rule="evenodd" /><path transform="matrix(1 0 0 -1 0 841)" d="M163.58 364.97L163.7 364.97L163.7 364.97L163.7 437.714L163.7 437.714L163.58 437.714z" stroke="none" fill="#000000" fill-rule="evenodd" /><path transform="matrix(1 0 0 -1 0 841)" d="M303.41 364.97L303.53 364.97L303.53 364.97L303.53 437.714L303.53 437.714L303.41 437.714z" stroke="none" fill="#000000" fill-rule="evenodd" /><path transform="matrix(1 0 0 -1 0 841)" d="M465.7 364.97L465.82 364.97L465.82 364.97L465.82 437.714L465.82 437.714L465.7 437.714z" stroke="none" fill="#000000" fill-rule="evenodd" /><path transform="matrix(1 0 0 -1 0 841)" d="M539.14 364.97L539.26 364.97L539.26 364.97L539.26 437.714L539.26 437.714L539.14 437.714z" stroke="none" fill="#000000" fill-rule="evenodd" /><path transform="matrix(1 0 0 -1 0 841)" d="M56.52 361.97L56.76 361.97L56.76 361.97L56.76 364.97L56.76 364.97L56.52 364.97z" stroke="none" fill="#000000" fill-rule="evenodd" /><path transform="matrix(1 0 0 -1 0 841)" d="M56.52 364.73L56.76 364.73L56.76 364.73L56.76 364.97L56.76 364.97L56.52 364.97z" stroke="none" fill="#000000" fill-rule="evenodd" /><path transform="matrix(1 0 0 -1 0 841)" d="M56.76 364.73L163.58 364.73L163.58 364.73L163.58 364.97L163.58 364.97L56.76 364.97z" stroke="none" fill="#000000" fill-rule="evenodd" /><path transform="matrix(1 0 0 -1 0 841)" d="M163.58 361.97L163.82 361.97L163.82 361.97L163.82 364.73L163.82 364.73L163.58 364.73z" stroke="none" fill="#000000" fill-rule="evenodd" /><path transform="matrix(1 0 0 -1 0 841)" d="M163.58 364.73L163.82 364.73L163.82 364.73L163.82 364.97L163.82 364.97L163.58 364.97z" stroke="none" fill="#000000" fill-rule="evenodd" /><path transform="matrix(1 0 0 -1 0 841)" d="M163.82 364.73L303.4 364.73L303.4 364.73L303.4 364.97L303.4 364.97L163.82 364.97z" stroke="none" fill="#000000" fill-rule="evenodd" /><path transform="matrix(1 0 0 -1 0 841)" d="M303.41 361.97L303.65 361.97L303.65 361.97L303.65 364.73L303.65 364.73L303.41 364.73z" stroke="none" fill="#000000" fill-rule="evenodd" /><path transform="matrix(1 0 0 -1 0 841)" d="M303.41 364.73L303.65 364.73L303.65 364.73L303.65 364.97L303.65 364.97L303.41 364.97z" stroke="none" fill="#000000" fill-rule="evenodd" /><path transform="matrix(1 0 0 -1 0 841)" d="M303.65 364.73L465.7 364.73L465.7 364.73L465.7 364.97L465.7 364.97L303.65 364.97z" stroke="none" fill="#000000" fill-rule="evenodd" /><path transform="matrix(1 0 0 -1 0 841)" d="M465.7 361.97L465.94 361.97L465.94 361.97L465.94 364.73L465.94 364.73L465.7 364.73z" stroke="none" fill="#000000" fill-rule="evenodd" /><path transform="matrix(1 0 0 -1 0 841)" d="M465.7 364.73L465.94 364.73L465.94 364.73L465.94 364.97L465.94 364.97L465.7 364.97z" stroke="none" fill="#000000" fill-rule="evenodd" /><path transform="matrix(1 0 0 -1 0 841)" d="M465.94 364.73L539.14 364.73L539.14 364.73L539.14 364.97L539.14 364.97L465.94 364.97z" stroke="none" fill="#000000" fill-rule="evenodd" /><path transform="matrix(1 0 0 -1 0 841)" d="M539.14 361.97L539.38 361.97L539.38 361.97L539.38 364.97L539.38 364.97L539.14 364.97z" stroke="none" fill="#000000" fill-rule="evenodd" /><path transform="matrix(1 0 0 -1 0 841)" d="M539.14 364.73L539.38 364.73L539.38 364.73L539.38 364.97L539.38 364.97L539.14 364.97z" stroke="none" fill="#000000" fill-rule="evenodd" /><path transform="matrix(1 0 0 -1 0 841)" d="M56.52 316.01L56.76 316.01L56.76 316.01L56.76 361.97L56.76 361.97L56.52 361.97z" stroke="none" fill="#000000" fill-rule="evenodd" /><path transform="matrix(1 0 0 -1 0 841)" d="M163.58 316.01L163.82 316.01L163.82 316.01L163.82 361.97L163.82 361.97L163.58 361.97z" stroke="none" fill="#000000" fill-rule="evenodd" /><path transform="matrix(1 0 0 -1 0 841)" d="M303.41 316.01L303.65 316.01L303.65 316.01L303.65 361.97L303.65 361.97L303.41 361.97z" stroke="none" fill="#000000" fill-rule="evenodd" /><path transform="matrix(1 0 0 -1 0 841)" d="M465.7 316.01L465.94 316.01L465.94 316.01L465.94 361.97L465.94 361.97L465.7 361.97z" stroke="none" fill="#000000" fill-rule="evenodd" /><path transform="matrix(1 0 0 -1 0 841)" d="M539.14 316.01L539.38 316.01L539.38 316.01L539.38 361.97L539.38 361.97L539.14 361.97z" stroke="none" fill="#000000" fill-rule="evenodd" /><path transform="matrix(1 0 0 -1 0 841)" d="M56.52 313.01L56.76 313.01L56.76 313.01L56.76 316.01L56.76 316.01L56.52 316.01z" stroke="none" fill="#000000" fill-rule="evenodd" /><path transform="matrix(1 0 0 -1 0 841)" d="M56.76 315.77L163.58 315.77L163.58 315.77L163.58 316.01L163.58 316.01L56.76 316.01z" stroke="none" fill="#000000" fill-rule="evenodd" /><path transform="matrix(1 0 0 -1 0 841)" d="M163.58 313.01L163.82 313.01L163.82 313.01L163.82 316.01L163.82 316.01L163.58 316.01z" stroke="none" fill="#000000" fill-rule="evenodd" /><path transform="matrix(1 0 0 -1 0 841)" d="M163.82 315.77L303.4 315.77L303.4 315.77L303.4 316.01L303.4 316.01L163.82 316.01z" stroke="none" fill="#000000" fill-rule="evenodd" /><path transform="matrix(1 0 0 -1 0 841)" d="M303.41 313.01L303.65 313.01L303.65 313.01L303.65 316.01L303.65 316.01L303.41 316.01z" stroke="none" fill="#000000" fill-rule="evenodd" /><path transform="matrix(1 0 0 -1 0 841)" d="M303.65 315.77L465.7 315.77L465.7 315.77L465.7 316.01L465.7 316.01L303.65 316.01z" stroke="none" fill="#000000" fill-rule="evenodd" /><path transform="matrix(1 0 0 -1 0 841)" d="M465.7 313.01L465.94 313.01L465.94 313.01L465.94 316.01L465.94 316.01L465.7 316.01z" stroke="none" fill="#000000" fill-rule="evenodd" /><path transform="matrix(1 0 0 -1 0 841)" d="M465.94 315.77L539.14 315.77L539.14 315.77L539.14 316.01L539.14 316.01L465.94 316.01z" stroke="none" fill="#000000" fill-rule="evenodd" /><path transform="matrix(1 0 0 -1 0 841)" d="M539.14 313.01L539.38 313.01L539.38 313.01L539.38 316.01L539.38 316.01L539.14 316.01z" stroke="none" fill="#000000" fill-rule="evenodd" /><path transform="matrix(1 0 0 -1 0 841)" d="M56.52 213.62L56.76 213.62L56.76 213.62L56.76 313.004L56.76 313.004L56.52 313.004z" stroke="none" fill="#000000" fill-rule="evenodd" /><path transform="matrix(1 0 0 -1 0 841)" d="M56.52 213.38L56.76 213.38L56.76 213.38L56.76 213.62L56.76 213.62L56.52 213.62z" stroke="none" fill="#000000" fill-rule="evenodd" /><path transform="matrix(1 0 0 -1 0 841)" d="M56.52 213.38L56.76 213.38L56.76 213.38L56.76 213.62L56.76 213.62L56.52 213.62z" stroke="none" fill="#000000" fill-rule="evenodd" /><path transform="matrix(1 0 0 -1 0 841)" d="M56.76 213.38L163.58 213.38L163.58 213.38L163.58 213.62L163.58 213.62L56.76 213.62z" stroke="none" fill="#000000" fill-rule="evenodd" /><path transform="matrix(1 0 0 -1 0 841)" d="M163.58 213.62L163.82 213.62L163.82 213.62L163.82 313.004L163.82 313.004L163.58 313.004z" stroke="none" fill="#000000" fill-rule="evenodd" /><path transform="matrix(1 0 0 -1 0 841)" d="M163.58 213.38L163.82 213.38L163.82 213.38L163.82 213.62L163.82 213.62L163.58 213.62z" stroke="none" fill="#000000" fill-rule="evenodd" /><path transform="matrix(1 0 0 -1 0 841)" d="M163.82 213.38L303.4 213.38L303.4 213.38L303.4 213.62L303.4 213.62L163.82 213.62z" stroke="none" fill="#000000" fill-rule="evenodd" /><path transform="matrix(1 0 0 -1 0 841)" d="M303.41 213.62L303.65 213.62L303.65 213.62L303.65 313.004L303.65 313.004L303.41 313.004z" stroke="none" fill="#000000" fill-rule="evenodd" /><path transform="matrix(1 0 0 -1 0 841)" d="M303.41 213.38L303.65 213.38L303.65 213.38L303.65 213.62L303.65 213.62L303.41 213.62z" stroke="none" fill="#000000" fill-rule="evenodd" /><path transform="matrix(1 0 0 -1 0 841)" d="M303.65 213.38L465.7 213.38L465.7 213.38L465.7 213.62L465.7 213.62L303.65 213.62z" stroke="none" fill="#000000" fill-rule="evenodd" /><path transform="matrix(1 0 0 -1 0 841)" d="M465.7 213.62L465.94 213.62L465.94 213.62L465.94 313.004L465.94 313.004L465.7 313.004z" stroke="none" fill="#000000" fill-rule="evenodd" /><path transform="matrix(1 0 0 -1 0 841)" d="M465.7 213.38L465.94 213.38L465.94 213.38L465.94 213.62L465.94 213.62L465.7 213.62z" stroke="none" fill="#000000" fill-rule="evenodd" /><path transform="matrix(1 0 0 -1 0 841)" d="M465.94 213.38L539.14 213.38L539.14 213.38L539.14 213.62L539.14 213.62L465.94 213.62z" stroke="none" fill="#000000" fill-rule="evenodd" /><path transform="matrix(1 0 0 -1 0 841)" d="M539.14 213.62L539.38 213.62L539.38 213.62L539.38 313.004L539.38 313.004L539.14 313.004z" stroke="none" fill="#000000" fill-rule="evenodd" /><path transform="matrix(1 0 0 -1 0 841)" d="M539.14 213.38L539.38 213.38L539.38 213.38L539.38 213.62L539.38 213.62L539.14 213.62z" stroke="none" fill="#000000" fill-rule="evenodd" /><path transform="matrix(1 0 0 -1 0 841)" d="M539.14 213.38L539.38 213.38L539.38 213.38L539.38 213.62L539.38 213.62L539.14 213.62z" stroke="none" fill="#000000" fill-rule="evenodd" /><g transform="matrix(1 0 0 1 50 23)"><g transform="matrix(1 0 0 1 0 0)"><image x="0" y="0" xlink:href="img_01.png" width="143" height="32" /></g></g></g></g></g><defs><clipPath id="1"><path d="M0 841L0 -0.9199829L0 -0.9199829L595.32 -0.9199829L595.32 -0.9199829L595.32 841L595.32 841L0 841z" /></clipPath></defs></svg>