<svg xmlns="http://www.w3.org/2000/svg" xmlns:xlink="http://www.w3.org/1999/xlink" id="body_10" preserveAspectRatio="xMinYMin meet" viewBox="0 0 793 1121"><g transform="matrix(1.333333 0 0 1.333333 0 0)"><g><g clip-path="url(#1)"><path transform="matrix(1 0 0 -1 0 841)" d="M96.624 429.55L244.004 429.55L244.004 429.55L244.004 430.39L244.004 430.39L96.624 430.39z" stroke="none" fill="#000080" fill-rule="evenodd" /><g transform="matrix(0.12 0 0 0.12 74.664 572.63)"><g transform="matrix(1 0 0 1 0 0)"><image x="0" y="0" xlink:href="img_11.png" width="92" height="123" /></g></g><g transform="matrix(0.12 0 0 0.12 74.664 589.31)"><g transform="matrix(1 0 0 1 0 0)"><image x="0" y="0" xlink:href="img_11.png" width="92" height="123" /></g></g><g transform="matrix(0.12 0 0 0.12 74.664 605.99)"><g transform="matrix(1 0 0 1 0 0)"><image x="0" y="0" xlink:href="img_11.png" width="92" height="123" /></g></g><g transform="matrix(1 0 0 1 50 23)"><g transform="matrix(1 0 0 1 0 0)"><image x="0" y="0" xlink:href="img_01.png" width="143" height="32" /></g></g></g></g></g><defs><clipPath id="1"><path d="M0 841L0 -0.9199829L0 -0.9199829L595.32 -0.9199829L595.32 -0.9199829L595.32 841L595.32 841L0 841z" /></clipPath></defs></svg>