<svg xmlns="http://www.w3.org/2000/svg" xmlns:xlink="http://www.w3.org/1999/xlink" id="body_4" preserveAspectRatio="xMinYMin meet" viewBox="0 0 793 1121"><g transform="matrix(1.333333 0 0 1.333333 0 0)"><g><g clip-path="url(#1)"><path transform="matrix(1 0 0 -1 0 841)" d="M57 708.46L147.024 708.46L147.024 708.46L147.024 712.18L147.024 712.18L57 712.18z" stroke="none" fill="#FFFFFF" fill-rule="evenodd" /><path transform="matrix(1 0 0 -1 0 841)" d="M57 712.18L147.024 712.18L147.024 712.18L147.024 728.02L147.024 728.02L57 728.02z" stroke="none" fill="#FFFFFF" fill-rule="evenodd" /><path transform="matrix(1 0 0 -1 0 841)" d="M147.5 708.46L326.47 708.46L326.47 708.46L326.47 712.18L326.47 712.18L147.5 712.18z" stroke="none" fill="#FFFFFF" fill-rule="evenodd" /><path transform="matrix(1 0 0 -1 0 841)" d="M147.5 712.18L326.47 712.18L326.47 712.18L326.47 728.02L326.47 728.02L147.5 728.02z" stroke="none" fill="#FFFFFF" fill-rule="evenodd" /><path transform="matrix(1 0 0 -1 0 841)" d="M327.07 708.46L473.13 708.46L473.13 708.46L473.13 712.18L473.13 712.18L327.07 712.18z" stroke="none" fill="#FFFFFF" fill-rule="evenodd" /><path transform="matrix(1 0 0 -1 0 841)" d="M327.07 712.18L473.13 712.18L473.13 712.18L473.13 728.02L473.13 728.02L327.07 728.02z" stroke="none" fill="#FFFFFF" fill-rule="evenodd" /><path transform="matrix(1 0 0 -1 0 841)" d="M473.62 708.46L534.82 708.46L534.82 708.46L534.82 712.18L534.82 712.18L473.62 712.18z" stroke="none" fill="#FFFFFF" fill-rule="evenodd" /><path transform="matrix(1 0 0 -1 0 841)" d="M473.62 712.18L534.82 712.18L534.82 712.18L534.82 728.02L534.82 728.02L473.62 728.02z" stroke="none" fill="#FFFFFF" fill-rule="evenodd" /><path transform="matrix(1 0 0 -1 0 841)" d="M56.4 728.02L56.88 728.02L56.88 728.02L56.88 728.5L56.88 728.5L56.4 728.5z" stroke="none" fill="#000000" fill-rule="evenodd" /><path transform="matrix(1 0 0 -1 0 841)" d="M56.4 728.02L56.88 728.02L56.88 728.02L56.88 728.5L56.88 728.5L56.4 728.5z" stroke="none" fill="#000000" fill-rule="evenodd" /><path transform="matrix(1 0 0 -1 0 841)" d="M56.88 728.02L146.904 728.02L146.904 728.02L146.904 728.5L146.904 728.5L56.88 728.5z" stroke="none" fill="#000000" fill-rule="evenodd" /><path transform="matrix(1 0 0 -1 0 841)" d="M146.9 728.02L147.38 728.02L147.38 728.02L147.38 728.5L147.38 728.5L146.9 728.5z" stroke="none" fill="#000000" fill-rule="evenodd" /><path transform="matrix(1 0 0 -1 0 841)" d="M147.38 728.02L326.47 728.02L326.47 728.02L326.47 728.5L326.47 728.5L147.38 728.5z" stroke="none" fill="#000000" fill-rule="evenodd" /><path transform="matrix(1 0 0 -1 0 841)" d="M326.47 728.02L326.95 728.02L326.95 728.02L326.95 728.5L326.95 728.5L326.47 728.5z" stroke="none" fill="#000000" fill-rule="evenodd" /><path transform="matrix(1 0 0 -1 0 841)" d="M326.95 728.02L473.01 728.02L473.01 728.02L473.01 728.5L473.01 728.5L326.95 728.5z" stroke="none" fill="#000000" fill-rule="evenodd" /><path transform="matrix(1 0 0 -1 0 841)" d="M473.02 728.02L473.5 728.02L473.5 728.02L473.5 728.5L473.5 728.5L473.02 728.5z" stroke="none" fill="#000000" fill-rule="evenodd" /><path transform="matrix(1 0 0 -1 0 841)" d="M473.5 728.02L534.7 728.02L534.7 728.02L534.7 728.5L534.7 728.5L473.5 728.5z" stroke="none" fill="#000000" fill-rule="evenodd" /><path transform="matrix(1 0 0 -1 0 841)" d="M534.7 728.02L535.1801 728.02L535.1801 728.02L535.1801 728.5L535.1801 728.5L534.7 728.5z" stroke="none" fill="#000000" fill-rule="evenodd" /><path transform="matrix(1 0 0 -1 0 841)" d="M534.7 728.02L535.1801 728.02L535.1801 728.02L535.1801 728.5L535.1801 728.5L534.7 728.5z" stroke="none" fill="#000000" fill-rule="evenodd" /><path transform="matrix(1 0 0 -1 0 841)" d="M56.4 708.46L56.88 708.46L56.88 708.46L56.88 728.02L56.88 728.02L56.4 728.02z" stroke="none" fill="#000000" fill-rule="evenodd" /><path transform="matrix(1 0 0 -1 0 841)" d="M146.9 708.46L147.38 708.46L147.38 708.46L147.38 728.02L147.38 728.02L146.9 728.02z" stroke="none" fill="#000000" fill-rule="evenodd" /><path transform="matrix(1 0 0 -1 0 841)" d="M326.47 708.46L326.95 708.46L326.95 708.46L326.95 728.02L326.95 728.02L326.47 728.02z" stroke="none" fill="#000000" fill-rule="evenodd" /><path transform="matrix(1 0 0 -1 0 841)" d="M473.02 708.46L473.5 708.46L473.5 708.46L473.5 728.02L473.5 728.02L473.02 728.02z" stroke="none" fill="#000000" fill-rule="evenodd" /><path transform="matrix(1 0 0 -1 0 841)" d="M534.7 708.46L535.1801 708.46L535.1801 708.46L535.1801 728.02L535.1801 728.02L534.7 728.02z" stroke="none" fill="#000000" fill-rule="evenodd" /><path transform="matrix(1 0 0 -1 0 841)" d="M57 688.54L147.024 688.54L147.024 688.54L147.024 692.14L147.024 692.14L57 692.14z" stroke="none" fill="#FFFFFF" fill-rule="evenodd" /><g clip-path="url(#2)"><path transform="matrix(1 0 0 -1 0 841)" d="M57 692.14L147.024 692.14L147.024 692.14L147.024 707.98L147.024 707.98L57 707.98z" stroke="none" fill="#FFFFFF" fill-rule="evenodd" /></g><path transform="matrix(1 0 0 -1 0 841)" d="M147.5 688.54L326.47 688.54L326.47 688.54L326.47 692.14L326.47 692.14L147.5 692.14z" stroke="none" fill="#FFFFFF" fill-rule="evenodd" /><g clip-path="url(#3)"><path transform="matrix(1 0 0 -1 0 841)" d="M147.5 692.14L326.47 692.14L326.47 692.14L326.47 707.98L326.47 707.98L147.5 707.98z" stroke="none" fill="#FFFFFF" fill-rule="evenodd" /></g><path transform="matrix(1 0 0 -1 0 841)" d="M327.07 688.54L473.13 688.54L473.13 688.54L473.13 692.14L473.13 692.14L327.07 692.14z" stroke="none" fill="#FFFFFF" fill-rule="evenodd" /><g clip-path="url(#4)"><path transform="matrix(1 0 0 -1 0 841)" d="M327.07 692.14L473.13 692.14L473.13 692.14L473.13 707.98L473.13 707.98L327.07 707.98z" stroke="none" fill="#FFFFFF" fill-rule="evenodd" /></g><path transform="matrix(1 0 0 -1 0 841)" d="M473.62 688.54L534.82 688.54L534.82 688.54L534.82 692.14L534.82 692.14L473.62 692.14z" stroke="none" fill="#FFFFFF" fill-rule="evenodd" /><g clip-path="url(#5)"><path transform="matrix(1 0 0 -1 0 841)" d="M473.62 692.14L534.82 692.14L534.82 692.14L534.82 707.98L534.82 707.98L473.62 707.98z" stroke="none" fill="#FFFFFF" fill-rule="evenodd" /></g><path transform="matrix(1 0 0 -1 0 841)" d="M56.4 707.98L56.88 707.98L56.88 707.98L56.88 708.46L56.88 708.46L56.4 708.46z" stroke="none" fill="#000000" fill-rule="evenodd" /><path transform="matrix(1 0 0 -1 0 841)" d="M56.88 707.98L146.904 707.98L146.904 707.98L146.904 708.46L146.904 708.46L56.88 708.46z" stroke="none" fill="#000000" fill-rule="evenodd" /><path transform="matrix(1 0 0 -1 0 841)" d="M146.9 707.98L147.38 707.98L147.38 707.98L147.38 708.46L147.38 708.46L146.9 708.46z" stroke="none" fill="#000000" fill-rule="evenodd" /><path transform="matrix(1 0 0 -1 0 841)" d="M147.38 707.98L326.47 707.98L326.47 707.98L326.47 708.46L326.47 708.46L147.38 708.46z" stroke="none" fill="#000000" fill-rule="evenodd" /><path transform="matrix(1 0 0 -1 0 841)" d="M326.47 707.98L326.95 707.98L326.95 707.98L326.95 708.46L326.95 708.46L326.47 708.46z" stroke="none" fill="#000000" fill-rule="evenodd" /><path transform="matrix(1 0 0 -1 0 841)" d="M326.95 707.98L473.01 707.98L473.01 707.98L473.01 708.46L473.01 708.46L326.95 708.46z" stroke="none" fill="#000000" fill-rule="evenodd" /><path transform="matrix(1 0 0 -1 0 841)" d="M473.02 707.98L473.5 707.98L473.5 707.98L473.5 708.46L473.5 708.46L473.02 708.46z" stroke="none" fill="#000000" fill-rule="evenodd" /><path transform="matrix(1 0 0 -1 0 841)" d="M473.5 707.98L534.7 707.98L534.7 707.98L534.7 708.46L534.7 708.46L473.5 708.46z" stroke="none" fill="#000000" fill-rule="evenodd" /><path transform="matrix(1 0 0 -1 0 841)" d="M534.7 707.98L535.1801 707.98L535.1801 707.98L535.1801 708.46L535.1801 708.46L534.7 708.46z" stroke="none" fill="#000000" fill-rule="evenodd" /><path transform="matrix(1 0 0 -1 0 841)" d="M56.4 688.54L56.88 688.54L56.88 688.54L56.88 707.98L56.88 707.98L56.4 707.98z" stroke="none" fill="#000000" fill-rule="evenodd" /><path transform="matrix(1 0 0 -1 0 841)" d="M146.9 688.54L147.38 688.54L147.38 688.54L147.38 707.98L147.38 707.98L146.9 707.98z" stroke="none" fill="#000000" fill-rule="evenodd" /><path transform="matrix(1 0 0 -1 0 841)" d="M326.47 688.54L326.95 688.54L326.95 688.54L326.95 707.98L326.95 707.98L326.47 707.98z" stroke="none" fill="#000000" fill-rule="evenodd" /><path transform="matrix(1 0 0 -1 0 841)" d="M473.02 688.54L473.5 688.54L473.5 688.54L473.5 707.98L473.5 707.98L473.02 707.98z" stroke="none" fill="#000000" fill-rule="evenodd" /><path transform="matrix(1 0 0 -1 0 841)" d="M534.7 688.54L535.1801 688.54L535.1801 688.54L535.1801 707.98L535.1801 707.98L534.7 707.98z" stroke="none" fill="#000000" fill-rule="evenodd" /><path transform="matrix(1 0 0 -1 0 841)" d="M57 668.5L147.024 668.5L147.024 668.5L147.024 672.1L147.024 672.1L57 672.1z" stroke="none" fill="#FFFFFF" fill-rule="evenodd" /><path transform="matrix(1 0 0 -1 0 841)" d="M57 672.1L147.024 672.1L147.024 672.1L147.024 688.06L147.024 688.06L57 688.06z" stroke="none" fill="#FFFFFF" fill-rule="evenodd" /><path transform="matrix(1 0 0 -1 0 841)" d="M147.5 668.5L326.47 668.5L326.47 668.5L326.47 672.1L326.47 672.1L147.5 672.1z" stroke="none" fill="#FFFFFF" fill-rule="evenodd" /><path transform="matrix(1 0 0 -1 0 841)" d="M147.5 672.1L326.47 672.1L326.47 672.1L326.47 688.06L326.47 688.06L147.5 688.06z" stroke="none" fill="#FFFFFF" fill-rule="evenodd" /><path transform="matrix(1 0 0 -1 0 841)" d="M327.07 668.5L473.13 668.5L473.13 668.5L473.13 672.1L473.13 672.1L327.07 672.1z" stroke="none" fill="#FFFFFF" fill-rule="evenodd" /><path transform="matrix(1 0 0 -1 0 841)" d="M327.07 672.1L473.13 672.1L473.13 672.1L473.13 688.06L473.13 688.06L327.07 688.06z" stroke="none" fill="#FFFFFF" fill-rule="evenodd" /><path transform="matrix(1 0 0 -1 0 841)" d="M473.62 668.5L534.82 668.5L534.82 668.5L534.82 672.1L534.82 672.1L473.62 672.1z" stroke="none" fill="#FFFFFF" fill-rule="evenodd" /><path transform="matrix(1 0 0 -1 0 841)" d="M473.62 672.1L534.82 672.1L534.82 672.1L534.82 688.06L534.82 688.06L473.62 688.06z" stroke="none" fill="#FFFFFF" fill-rule="evenodd" /><path transform="matrix(1 0 0 -1 0 841)" d="M56.4 688.06L56.88 688.06L56.88 688.06L56.88 688.54L56.88 688.54L56.4 688.54z" stroke="none" fill="#000000" fill-rule="evenodd" /><path transform="matrix(1 0 0 -1 0 841)" d="M56.88 688.06L146.904 688.06L146.904 688.06L146.904 688.54L146.904 688.54L56.88 688.54z" stroke="none" fill="#000000" fill-rule="evenodd" /><path transform="matrix(1 0 0 -1 0 841)" d="M146.9 688.06L147.38 688.06L147.38 688.06L147.38 688.54L147.38 688.54L146.9 688.54z" stroke="none" fill="#000000" fill-rule="evenodd" /><path transform="matrix(1 0 0 -1 0 841)" d="M147.38 688.06L326.47 688.06L326.47 688.06L326.47 688.54L326.47 688.54L147.38 688.54z" stroke="none" fill="#000000" fill-rule="evenodd" /><path transform="matrix(1 0 0 -1 0 841)" d="M326.47 688.06L326.95 688.06L326.95 688.06L326.95 688.54L326.95 688.54L326.47 688.54z" stroke="none" fill="#000000" fill-rule="evenodd" /><path transform="matrix(1 0 0 -1 0 841)" d="M326.95 688.06L473.01 688.06L473.01 688.06L473.01 688.54L473.01 688.54L326.95 688.54z" stroke="none" fill="#000000" fill-rule="evenodd" /><path transform="matrix(1 0 0 -1 0 841)" d="M473.02 688.06L473.5 688.06L473.5 688.06L473.5 688.54L473.5 688.54L473.02 688.54z" stroke="none" fill="#000000" fill-rule="evenodd" /><path transform="matrix(1 0 0 -1 0 841)" d="M473.5 688.06L534.7 688.06L534.7 688.06L534.7 688.54L534.7 688.54L473.5 688.54z" stroke="none" fill="#000000" fill-rule="evenodd" /><path transform="matrix(1 0 0 -1 0 841)" d="M534.7 688.06L535.1801 688.06L535.1801 688.06L535.1801 688.54L535.1801 688.54L534.7 688.54z" stroke="none" fill="#000000" fill-rule="evenodd" /><path transform="matrix(1 0 0 -1 0 841)" d="M56.4 668.5L56.88 668.5L56.88 668.5L56.88 688.06L56.88 688.06L56.4 688.06z" stroke="none" fill="#000000" fill-rule="evenodd" /><path transform="matrix(1 0 0 -1 0 841)" d="M56.4 668.02L56.88 668.02L56.88 668.02L56.88 668.5L56.88 668.5L56.4 668.5z" stroke="none" fill="#000000" fill-rule="evenodd" /><path transform="matrix(1 0 0 -1 0 841)" d="M56.4 668.02L56.88 668.02L56.88 668.02L56.88 668.5L56.88 668.5L56.4 668.5z" stroke="none" fill="#000000" fill-rule="evenodd" /><path transform="matrix(1 0 0 -1 0 841)" d="M56.88 668.02L146.904 668.02L146.904 668.02L146.904 668.5L146.904 668.5L56.88 668.5z" stroke="none" fill="#000000" fill-rule="evenodd" /><path transform="matrix(1 0 0 -1 0 841)" d="M146.9 668.5L147.38 668.5L147.38 668.5L147.38 688.06L147.38 688.06L146.9 688.06z" stroke="none" fill="#000000" fill-rule="evenodd" /><path transform="matrix(1 0 0 -1 0 841)" d="M146.9 668.02L147.38 668.02L147.38 668.02L147.38 668.5L147.38 668.5L146.9 668.5z" stroke="none" fill="#000000" fill-rule="evenodd" /><path transform="matrix(1 0 0 -1 0 841)" d="M147.38 668.02L326.47 668.02L326.47 668.02L326.47 668.5L326.47 668.5L147.38 668.5z" stroke="none" fill="#000000" fill-rule="evenodd" /><path transform="matrix(1 0 0 -1 0 841)" d="M326.47 668.5L326.95 668.5L326.95 668.5L326.95 688.06L326.95 688.06L326.47 688.06z" stroke="none" fill="#000000" fill-rule="evenodd" /><path transform="matrix(1 0 0 -1 0 841)" d="M326.47 668.02L326.95 668.02L326.95 668.02L326.95 668.5L326.95 668.5L326.47 668.5z" stroke="none" fill="#000000" fill-rule="evenodd" /><path transform="matrix(1 0 0 -1 0 841)" d="M326.95 668.02L473.01 668.02L473.01 668.02L473.01 668.5L473.01 668.5L326.95 668.5z" stroke="none" fill="#000000" fill-rule="evenodd" /><path transform="matrix(1 0 0 -1 0 841)" d="M473.02 668.5L473.5 668.5L473.5 668.5L473.5 688.06L473.5 688.06L473.02 688.06z" stroke="none" fill="#000000" fill-rule="evenodd" /><path transform="matrix(1 0 0 -1 0 841)" d="M473.02 668.02L473.5 668.02L473.5 668.02L473.5 668.5L473.5 668.5L473.02 668.5z" stroke="none" fill="#000000" fill-rule="evenodd" /><path transform="matrix(1 0 0 -1 0 841)" d="M473.5 668.02L534.7 668.02L534.7 668.02L534.7 668.5L534.7 668.5L473.5 668.5z" stroke="none" fill="#000000" fill-rule="evenodd" /><path transform="matrix(1 0 0 -1 0 841)" d="M534.7 668.5L535.1801 668.5L535.1801 668.5L535.1801 688.06L535.1801 688.06L534.7 688.06z" stroke="none" fill="#000000" fill-rule="evenodd" /><path transform="matrix(1 0 0 -1 0 841)" d="M534.7 668.02L535.1801 668.02L535.1801 668.02L535.1801 668.5L535.1801 668.5L534.7 668.5z" stroke="none" fill="#000000" fill-rule="evenodd" /><path transform="matrix(1 0 0 -1 0 841)" d="M534.7 668.02L535.1801 668.02L535.1801 668.02L535.1801 668.5L535.1801 668.5L534.7 668.5z" stroke="none" fill="#000000" fill-rule="evenodd" /><g transform="matrix(1 0 0 1 50 23)"><g transform="matrix(1 0 0 1 0 0)"><image x="0" y="0" xlink:href="img_01.png" width="143" height="32" /></g></g></g></g></g><defs><clipPath id="1"><path d="M0 841L0 -0.9199829L0 -0.9199829L595.32 -0.9199829L595.32 -0.9199829L595.32 841L595.32 841L0 841z" /></clipPath><clipPath id="2"><path d="M57 152.46L147.024 152.46L147.024 152.46L147.024 133.02L147.024 133.02L57 133.02z" /></clipPath><clipPath id="3"><path d="M147.5 152.46L326.47 152.46L326.47 152.46L326.47 133.02L326.47 133.02L147.5 133.02z" /></clipPath><clipPath id="4"><path d="M327.07 152.46L473.13 152.46L473.13 152.46L473.13 133.02L473.13 133.02L327.07 133.02z" /></clipPath><clipPath id="5"><path d="M473.62 152.46L534.82 152.46L534.82 152.46L534.82 133.02L534.82 133.02L473.62 133.02z" /></clipPath></defs></svg>