<svg xmlns="http://www.w3.org/2000/svg" xmlns:xlink="http://www.w3.org/1999/xlink" id="body_6" preserveAspectRatio="xMinYMin meet" viewBox="0 0 793 1121"><g transform="matrix(1.333333 0 0 1.333333 0 0)"><g><g clip-path="url(#1)"><path transform="matrix(1 0 0 -1 0 841)" d="M57 647.38L147.024 647.38L147.024 647.38L147.024 648.7L147.024 648.7L57 648.7z" stroke="none" fill="#FFFFFF" fill-rule="evenodd" /><path transform="matrix(1 0 0 -1 0 841)" d="M57 630.22L147.024 630.22L147.024 630.22L147.024 631.54L147.024 631.54L57 631.54z" stroke="none" fill="#FFFFFF" fill-rule="evenodd" /><path transform="matrix(1 0 0 -1 0 841)" d="M57 631.54L147.024 631.54L147.024 631.54L147.024 647.38L147.024 647.38L57 647.38z" stroke="none" fill="#FFFFFF" fill-rule="evenodd" /><path transform="matrix(1 0 0 -1 0 841)" d="M147.5 647.38L544.05 647.38L544.05 647.38L544.05 648.7L544.05 648.7L147.5 648.7z" stroke="none" fill="#FFFFFF" fill-rule="evenodd" /><path transform="matrix(1 0 0 -1 0 841)" d="M147.5 630.22L544.05 630.22L544.05 630.22L544.05 631.54L544.05 631.54L147.5 631.54z" stroke="none" fill="#FFFFFF" fill-rule="evenodd" /><path transform="matrix(1 0 0 -1 0 841)" d="M147.5 631.54L544.05 631.54L544.05 631.54L544.05 647.38L544.05 647.38L147.5 647.38z" stroke="none" fill="#FFFFFF" fill-rule="evenodd" /><path transform="matrix(1 0 0 -1 0 841)" d="M56.4 648.7L56.88 648.7L56.88 648.7L56.88 649.18L56.88 649.18L56.4 649.18z" stroke="none" fill="#000000" fill-rule="evenodd" /><path transform="matrix(1 0 0 -1 0 841)" d="M56.4 648.7L56.88 648.7L56.88 648.7L56.88 649.18L56.88 649.18L56.4 649.18z" stroke="none" fill="#000000" fill-rule="evenodd" /><path transform="matrix(1 0 0 -1 0 841)" d="M56.88 648.7L146.904 648.7L146.904 648.7L146.904 649.18L146.904 649.18L56.88 649.18z" stroke="none" fill="#000000" fill-rule="evenodd" /><path transform="matrix(1 0 0 -1 0 841)" d="M146.9 648.7L147.38 648.7L147.38 648.7L147.38 649.18L147.38 649.18L146.9 649.18z" stroke="none" fill="#000000" fill-rule="evenodd" /><path transform="matrix(1 0 0 -1 0 841)" d="M147.38 648.7L544.05 648.7L544.05 648.7L544.05 649.18L544.05 649.18L147.38 649.18z" stroke="none" fill="#000000" fill-rule="evenodd" /><path transform="matrix(1 0 0 -1 0 841)" d="M544.06 648.7L544.54 648.7L544.54 648.7L544.54 649.18L544.54 649.18L544.06 649.18z" stroke="none" fill="#000000" fill-rule="evenodd" /><path transform="matrix(1 0 0 -1 0 841)" d="M544.06 648.7L544.54 648.7L544.54 648.7L544.54 649.18L544.54 649.18L544.06 649.18z" stroke="none" fill="#000000" fill-rule="evenodd" /><path transform="matrix(1 0 0 -1 0 841)" d="M56.4 630.22L56.88 630.22L56.88 630.22L56.88 648.7L56.88 648.7L56.4 648.7z" stroke="none" fill="#000000" fill-rule="evenodd" /><path transform="matrix(1 0 0 -1 0 841)" d="M146.9 630.22L147.38 630.22L147.38 630.22L147.38 648.7L147.38 648.7L146.9 648.7z" stroke="none" fill="#000000" fill-rule="evenodd" /><path transform="matrix(1 0 0 -1 0 841)" d="M544.06 630.22L544.54 630.22L544.54 630.22L544.54 648.7L544.54 648.7L544.06 648.7z" stroke="none" fill="#000000" fill-rule="evenodd" /><path transform="matrix(1 0 0 -1 0 841)" d="M57 611.26L147.024 611.26L147.024 611.26L147.024 613.78L147.024 613.78L57 613.78z" stroke="none" fill="#FFFFFF" fill-rule="evenodd" /><g clip-path="url(#2)"><path transform="matrix(1 0 0 -1 0 841)" d="M57 613.78L147.024 613.78L147.024 613.78L147.024 629.7401L147.024 629.7401L57 629.7401z" stroke="none" fill="#FFFFFF" fill-rule="evenodd" /></g><path transform="matrix(1 0 0 -1 0 841)" d="M147.5 611.26L544.05 611.26L544.05 611.26L544.05 613.78L544.05 613.78L147.5 613.78z" stroke="none" fill="#FFFFFF" fill-rule="evenodd" /><g clip-path="url(#3)"><path transform="matrix(1 0 0 -1 0 841)" d="M147.5 613.78L544.05 613.78L544.05 613.78L544.05 629.7401L544.05 629.7401L147.5 629.7401z" stroke="none" fill="#FFFFFF" fill-rule="evenodd" /></g><path transform="matrix(1 0 0 -1 0 841)" d="M56.4 629.74L56.88 629.74L56.88 629.74L56.88 630.22L56.88 630.22L56.4 630.22z" stroke="none" fill="#000000" fill-rule="evenodd" /><path transform="matrix(1 0 0 -1 0 841)" d="M56.88 629.74L146.904 629.74L146.904 629.74L146.904 630.22L146.904 630.22L56.88 630.22z" stroke="none" fill="#000000" fill-rule="evenodd" /><path transform="matrix(1 0 0 -1 0 841)" d="M146.9 629.74L147.38 629.74L147.38 629.74L147.38 630.22L147.38 630.22L146.9 630.22z" stroke="none" fill="#000000" fill-rule="evenodd" /><path transform="matrix(1 0 0 -1 0 841)" d="M147.38 629.74L544.05 629.74L544.05 629.74L544.05 630.22L544.05 630.22L147.38 630.22z" stroke="none" fill="#000000" fill-rule="evenodd" /><path transform="matrix(1 0 0 -1 0 841)" d="M544.06 629.74L544.54 629.74L544.54 629.74L544.54 630.22L544.54 630.22L544.06 630.22z" stroke="none" fill="#000000" fill-rule="evenodd" /><path transform="matrix(1 0 0 -1 0 841)" d="M56.4 611.26L56.88 611.26L56.88 611.26L56.88 629.74L56.88 629.74L56.4 629.74z" stroke="none" fill="#000000" fill-rule="evenodd" /><path transform="matrix(1 0 0 -1 0 841)" d="M146.9 611.26L147.38 611.26L147.38 611.26L147.38 629.74L147.38 629.74L146.9 629.74z" stroke="none" fill="#000000" fill-rule="evenodd" /><path transform="matrix(1 0 0 -1 0 841)" d="M544.06 611.26L544.54 611.26L544.54 611.26L544.54 629.74L544.54 629.74L544.06 629.74z" stroke="none" fill="#000000" fill-rule="evenodd" /><path transform="matrix(1 0 0 -1 0 841)" d="M57 591.58L147.024 591.58L147.024 591.58L147.024 594.94L147.024 594.94L57 594.94z" stroke="none" fill="#FFFFFF" fill-rule="evenodd" /><path transform="matrix(1 0 0 -1 0 841)" d="M57 594.94L147.024 594.94L147.024 594.94L147.024 610.78L147.024 610.78L57 610.78z" stroke="none" fill="#FFFFFF" fill-rule="evenodd" /><path transform="matrix(1 0 0 -1 0 841)" d="M147.5 591.58L544.05 591.58L544.05 591.58L544.05 594.94L544.05 594.94L147.5 594.94z" stroke="none" fill="#FFFFFF" fill-rule="evenodd" /><path transform="matrix(1 0 0 -1 0 841)" d="M147.5 594.94L544.05 594.94L544.05 594.94L544.05 610.78L544.05 610.78L147.5 610.78z" stroke="none" fill="#FFFFFF" fill-rule="evenodd" /><path transform="matrix(1 0 0 -1 0 841)" d="M56.4 610.78L56.88 610.78L56.88 610.78L56.88 611.26L56.88 611.26L56.4 611.26z" stroke="none" fill="#000000" fill-rule="evenodd" /><path transform="matrix(1 0 0 -1 0 841)" d="M56.88 610.78L146.904 610.78L146.904 610.78L146.904 611.26L146.904 611.26L56.88 611.26z" stroke="none" fill="#000000" fill-rule="evenodd" /><path transform="matrix(1 0 0 -1 0 841)" d="M146.9 610.78L147.38 610.78L147.38 610.78L147.38 611.26L147.38 611.26L146.9 611.26z" stroke="none" fill="#000000" fill-rule="evenodd" /><path transform="matrix(1 0 0 -1 0 841)" d="M147.38 610.78L544.05 610.78L544.05 610.78L544.05 611.26L544.05 611.26L147.38 611.26z" stroke="none" fill="#000000" fill-rule="evenodd" /><path transform="matrix(1 0 0 -1 0 841)" d="M544.06 610.78L544.54 610.78L544.54 610.78L544.54 611.26L544.54 611.26L544.06 611.26z" stroke="none" fill="#000000" fill-rule="evenodd" /><path transform="matrix(1 0 0 -1 0 841)" d="M56.4 591.58L56.88 591.58L56.88 591.58L56.88 610.78L56.88 610.78L56.4 610.78z" stroke="none" fill="#000000" fill-rule="evenodd" /><path transform="matrix(1 0 0 -1 0 841)" d="M146.9 591.58L147.38 591.58L147.38 591.58L147.38 610.78L147.38 610.78L146.9 610.78z" stroke="none" fill="#000000" fill-rule="evenodd" /><path transform="matrix(1 0 0 -1 0 841)" d="M544.06 591.58L544.54 591.58L544.54 591.58L544.54 610.78L544.54 610.78L544.06 610.78z" stroke="none" fill="#000000" fill-rule="evenodd" /><path transform="matrix(1 0 0 -1 0 841)" d="M57 572.11L147.024 572.11L147.024 572.11L147.024 575.134L147.024 575.134L57 575.134z" stroke="none" fill="#FFFFFF" fill-rule="evenodd" /><g clip-path="url(#4)"><path transform="matrix(1 0 0 -1 0 841)" d="M57 575.14L147.024 575.14L147.024 575.14L147.024 591.1L147.024 591.1L57 591.1z" stroke="none" fill="#FFFFFF" fill-rule="evenodd" /></g><path transform="matrix(1 0 0 -1 0 841)" d="M147.5 572.11L544.05 572.11L544.05 572.11L544.05 575.134L544.05 575.134L147.5 575.134z" stroke="none" fill="#FFFFFF" fill-rule="evenodd" /><g clip-path="url(#5)"><path transform="matrix(1 0 0 -1 0 841)" d="M147.5 575.14L544.05 575.14L544.05 575.14L544.05 591.1L544.05 591.1L147.5 591.1z" stroke="none" fill="#FFFFFF" fill-rule="evenodd" /></g><path transform="matrix(1 0 0 -1 0 841)" d="M56.4 591.1L56.88 591.1L56.88 591.1L56.88 591.58L56.88 591.58L56.4 591.58z" stroke="none" fill="#000000" fill-rule="evenodd" /><path transform="matrix(1 0 0 -1 0 841)" d="M56.88 591.1L146.904 591.1L146.904 591.1L146.904 591.58L146.904 591.58L56.88 591.58z" stroke="none" fill="#000000" fill-rule="evenodd" /><path transform="matrix(1 0 0 -1 0 841)" d="M146.9 591.1L147.38 591.1L147.38 591.1L147.38 591.58L147.38 591.58L146.9 591.58z" stroke="none" fill="#000000" fill-rule="evenodd" /><path transform="matrix(1 0 0 -1 0 841)" d="M147.38 591.1L544.05 591.1L544.05 591.1L544.05 591.58L544.05 591.58L147.38 591.58z" stroke="none" fill="#000000" fill-rule="evenodd" /><path transform="matrix(1 0 0 -1 0 841)" d="M544.06 591.1L544.54 591.1L544.54 591.1L544.54 591.58L544.54 591.58L544.06 591.58z" stroke="none" fill="#000000" fill-rule="evenodd" /><path transform="matrix(1 0 0 -1 0 841)" d="M56.4 572.11L56.88 572.11L56.88 572.11L56.88 591.094L56.88 591.094L56.4 591.094z" stroke="none" fill="#000000" fill-rule="evenodd" /><path transform="matrix(1 0 0 -1 0 841)" d="M146.9 572.11L147.38 572.11L147.38 572.11L147.38 591.094L147.38 591.094L146.9 591.094z" stroke="none" fill="#000000" fill-rule="evenodd" /><path transform="matrix(1 0 0 -1 0 841)" d="M544.06 572.11L544.54 572.11L544.54 572.11L544.54 591.094L544.54 591.094L544.06 591.094z" stroke="none" fill="#000000" fill-rule="evenodd" /><path transform="matrix(1 0 0 -1 0 841)" d="M57 552.91L147.024 552.91L147.024 552.91L147.024 555.67L147.024 555.67L57 555.67z" stroke="none" fill="#FFFFFF" fill-rule="evenodd" /><g clip-path="url(#6)"><path transform="matrix(1 0 0 -1 0 841)" d="M57 555.67L147.024 555.67L147.024 555.67L147.024 571.63L147.024 571.63L57 571.63z" stroke="none" fill="#FFFFFF" fill-rule="evenodd" /></g><path transform="matrix(1 0 0 -1 0 841)" d="M147.5 552.91L544.05 552.91L544.05 552.91L544.05 555.67L544.05 555.67L147.5 555.67z" stroke="none" fill="#FFFFFF" fill-rule="evenodd" /><g clip-path="url(#7)"><path transform="matrix(1 0 0 -1 0 841)" d="M147.5 555.67L544.05 555.67L544.05 555.67L544.05 571.63L544.05 571.63L147.5 571.63z" stroke="none" fill="#FFFFFF" fill-rule="evenodd" /></g><path transform="matrix(1 0 0 -1 0 841)" d="M56.4 571.63L56.88 571.63L56.88 571.63L56.88 572.11L56.88 572.11L56.4 572.11z" stroke="none" fill="#000000" fill-rule="evenodd" /><path transform="matrix(1 0 0 -1 0 841)" d="M56.88 571.63L146.904 571.63L146.904 571.63L146.904 572.11L146.904 572.11L56.88 572.11z" stroke="none" fill="#000000" fill-rule="evenodd" /><path transform="matrix(1 0 0 -1 0 841)" d="M146.9 571.63L147.38 571.63L147.38 571.63L147.38 572.11L147.38 572.11L146.9 572.11z" stroke="none" fill="#000000" fill-rule="evenodd" /><path transform="matrix(1 0 0 -1 0 841)" d="M147.38 571.63L544.05 571.63L544.05 571.63L544.05 572.11L544.05 572.11L147.38 572.11z" stroke="none" fill="#000000" fill-rule="evenodd" /><path transform="matrix(1 0 0 -1 0 841)" d="M544.06 571.63L544.54 571.63L544.54 571.63L544.54 572.11L544.54 572.11L544.06 572.11z" stroke="none" fill="#000000" fill-rule="evenodd" /><path transform="matrix(1 0 0 -1 0 841)" d="M56.4 552.91L56.88 552.91L56.88 552.91L56.88 571.6299L56.88 571.6299L56.4 571.6299z" stroke="none" fill="#000000" fill-rule="evenodd" /><path transform="matrix(1 0 0 -1 0 841)" d="M146.9 552.91L147.38 552.91L147.38 552.91L147.38 571.6299L147.38 571.6299L146.9 571.6299z" stroke="none" fill="#000000" fill-rule="evenodd" /><path transform="matrix(1 0 0 -1 0 841)" d="M544.06 552.91L544.54 552.91L544.54 552.91L544.54 571.6299L544.54 571.6299L544.06 571.6299z" stroke="none" fill="#000000" fill-rule="evenodd" /><path transform="matrix(1 0 0 -1 0 841)" d="M57 533.47L147.024 533.47L147.024 533.47L147.024 536.47L147.024 536.47L57 536.47z" stroke="none" fill="#FFFFFF" fill-rule="evenodd" /><path transform="matrix(1 0 0 -1 0 841)" d="M57 536.47L147.024 536.47L147.024 536.47L147.024 552.43L147.024 552.43L57 552.43z" stroke="none" fill="#FFFFFF" fill-rule="evenodd" /><path transform="matrix(1 0 0 -1 0 841)" d="M147.5 533.47L544.05 533.47L544.05 533.47L544.05 536.47L544.05 536.47L147.5 536.47z" stroke="none" fill="#FFFFFF" fill-rule="evenodd" /><path transform="matrix(1 0 0 -1 0 841)" d="M147.5 536.47L544.05 536.47L544.05 536.47L544.05 552.43L544.05 552.43L147.5 552.43z" stroke="none" fill="#FFFFFF" fill-rule="evenodd" /><path transform="matrix(1 0 0 -1 0 841)" d="M56.4 552.43L56.88 552.43L56.88 552.43L56.88 552.91L56.88 552.91L56.4 552.91z" stroke="none" fill="#000000" fill-rule="evenodd" /><path transform="matrix(1 0 0 -1 0 841)" d="M56.88 552.43L146.904 552.43L146.904 552.43L146.904 552.91L146.904 552.91L56.88 552.91z" stroke="none" fill="#000000" fill-rule="evenodd" /><path transform="matrix(1 0 0 -1 0 841)" d="M146.9 552.43L147.38 552.43L147.38 552.43L147.38 552.91L147.38 552.91L146.9 552.91z" stroke="none" fill="#000000" fill-rule="evenodd" /><path transform="matrix(1 0 0 -1 0 841)" d="M147.38 552.43L544.05 552.43L544.05 552.43L544.05 552.91L544.05 552.91L147.38 552.91z" stroke="none" fill="#000000" fill-rule="evenodd" /><path transform="matrix(1 0 0 -1 0 841)" d="M544.06 552.43L544.54 552.43L544.54 552.43L544.54 552.91L544.54 552.91L544.06 552.91z" stroke="none" fill="#000000" fill-rule="evenodd" /><path transform="matrix(1 0 0 -1 0 841)" d="M56.4 533.47L56.88 533.47L56.88 533.47L56.88 552.43L56.88 552.43L56.4 552.43z" stroke="none" fill="#000000" fill-rule="evenodd" /><path transform="matrix(1 0 0 -1 0 841)" d="M146.9 533.47L147.38 533.47L147.38 533.47L147.38 552.43L147.38 552.43L146.9 552.43z" stroke="none" fill="#000000" fill-rule="evenodd" /><path transform="matrix(1 0 0 -1 0 841)" d="M544.06 533.47L544.54 533.47L544.54 533.47L544.54 552.43L544.54 552.43L544.06 552.43z" stroke="none" fill="#000000" fill-rule="evenodd" /><path transform="matrix(1 0 0 -1 0 841)" d="M57 511.39L147.024 511.39L147.024 511.39L147.024 517.03L147.024 517.03L57 517.03z" stroke="none" fill="#FFFFFF" fill-rule="evenodd" /><g clip-path="url(#8)"><path transform="matrix(1 0 0 -1 0 841)" d="M57 517.03L147.024 517.03L147.024 517.03L147.024 532.8701L147.024 532.8701L57 532.8701z" stroke="none" fill="#FFFFFF" fill-rule="evenodd" /></g><path transform="matrix(1 0 0 -1 0 841)" d="M147.5 511.39L544.05 511.39L544.05 511.39L544.05 517.03L544.05 517.03L147.5 517.03z" stroke="none" fill="#FFFFFF" fill-rule="evenodd" /><g clip-path="url(#9)"><path transform="matrix(1 0 0 -1 0 841)" d="M147.5 517.03L544.05 517.03L544.05 517.03L544.05 532.8701L544.05 532.8701L147.5 532.8701z" stroke="none" fill="#FFFFFF" fill-rule="evenodd" /></g><path transform="matrix(1 0 0 -1 0 841)" d="M56.4 532.99L56.88 532.99L56.88 532.99L56.88 533.47L56.88 533.47L56.4 533.47z" stroke="none" fill="#000000" fill-rule="evenodd" /><path transform="matrix(1 0 0 -1 0 841)" d="M56.88 532.99L146.904 532.99L146.904 532.99L146.904 533.47L146.904 533.47L56.88 533.47z" stroke="none" fill="#000000" fill-rule="evenodd" /><path transform="matrix(1 0 0 -1 0 841)" d="M146.9 532.99L147.38 532.99L147.38 532.99L147.38 533.47L147.38 533.47L146.9 533.47z" stroke="none" fill="#000000" fill-rule="evenodd" /><path transform="matrix(1 0 0 -1 0 841)" d="M147.38 532.99L544.05 532.99L544.05 532.99L544.05 533.47L544.05 533.47L147.38 533.47z" stroke="none" fill="#000000" fill-rule="evenodd" /><path transform="matrix(1 0 0 -1 0 841)" d="M544.06 532.99L544.54 532.99L544.54 532.99L544.54 533.47L544.54 533.47L544.06 533.47z" stroke="none" fill="#000000" fill-rule="evenodd" /><path transform="matrix(1 0 0 -1 0 841)" d="M56.4 511.39L56.88 511.39L56.88 511.39L56.88 532.99L56.88 532.99L56.4 532.99z" stroke="none" fill="#000000" fill-rule="evenodd" /><path transform="matrix(1 0 0 -1 0 841)" d="M146.9 511.39L147.38 511.39L147.38 511.39L147.38 532.99L147.38 532.99L146.9 532.99z" stroke="none" fill="#000000" fill-rule="evenodd" /><path transform="matrix(1 0 0 -1 0 841)" d="M544.06 511.39L544.54 511.39L544.54 511.39L544.54 532.99L544.54 532.99L544.06 532.99z" stroke="none" fill="#000000" fill-rule="evenodd" /><path transform="matrix(1 0 0 -1 0 841)" d="M57 491.95L147.024 491.95L147.024 491.95L147.024 495.07L147.024 495.07L57 495.07z" stroke="none" fill="#FFFFFF" fill-rule="evenodd" /><path transform="matrix(1 0 0 -1 0 841)" d="M57 495.07L147.024 495.07L147.024 495.07L147.024 510.91L147.024 510.91L57 510.91z" stroke="none" fill="#FFFFFF" fill-rule="evenodd" /><path transform="matrix(1 0 0 -1 0 841)" d="M147.5 491.95L544.05 491.95L544.05 491.95L544.05 495.07L544.05 495.07L147.5 495.07z" stroke="none" fill="#FFFFFF" fill-rule="evenodd" /><path transform="matrix(1 0 0 -1 0 841)" d="M147.5 495.07L544.05 495.07L544.05 495.07L544.05 510.91L544.05 510.91L147.5 510.91z" stroke="none" fill="#FFFFFF" fill-rule="evenodd" /><path transform="matrix(1 0 0 -1 0 841)" d="M56.4 510.91L56.88 510.91L56.88 510.91L56.88 511.39L56.88 511.39L56.4 511.39z" stroke="none" fill="#000000" fill-rule="evenodd" /><path transform="matrix(1 0 0 -1 0 841)" d="M56.88 510.91L146.904 510.91L146.904 510.91L146.904 511.39L146.904 511.39L56.88 511.39z" stroke="none" fill="#000000" fill-rule="evenodd" /><path transform="matrix(1 0 0 -1 0 841)" d="M146.9 510.91L147.38 510.91L147.38 510.91L147.38 511.39L147.38 511.39L146.9 511.39z" stroke="none" fill="#000000" fill-rule="evenodd" /><path transform="matrix(1 0 0 -1 0 841)" d="M147.38 510.91L544.05 510.91L544.05 510.91L544.05 511.39L544.05 511.39L147.38 511.39z" stroke="none" fill="#000000" fill-rule="evenodd" /><path transform="matrix(1 0 0 -1 0 841)" d="M544.06 510.91L544.54 510.91L544.54 510.91L544.54 511.39L544.54 511.39L544.06 511.39z" stroke="none" fill="#000000" fill-rule="evenodd" /><path transform="matrix(1 0 0 -1 0 841)" d="M56.4 491.95L56.88 491.95L56.88 491.95L56.88 510.91L56.88 510.91L56.4 510.91z" stroke="none" fill="#000000" fill-rule="evenodd" /><path transform="matrix(1 0 0 -1 0 841)" d="M146.9 491.95L147.38 491.95L147.38 491.95L147.38 510.91L147.38 510.91L146.9 510.91z" stroke="none" fill="#000000" fill-rule="evenodd" /><path transform="matrix(1 0 0 -1 0 841)" d="M544.06 491.95L544.54 491.95L544.54 491.95L544.54 510.91L544.54 510.91L544.06 510.91z" stroke="none" fill="#000000" fill-rule="evenodd" /><path transform="matrix(1 0 0 -1 0 841)" d="M57 472.51L147.024 472.51L147.024 472.51L147.024 475.63L147.024 475.63L57 475.63z" stroke="none" fill="#FFFFFF" fill-rule="evenodd" /><path transform="matrix(1 0 0 -1 0 841)" d="M57 475.63L147.024 475.63L147.024 475.63L147.024 491.47L147.024 491.47L57 491.47z" stroke="none" fill="#FFFFFF" fill-rule="evenodd" /><path transform="matrix(1 0 0 -1 0 841)" d="M147.5 472.51L544.05 472.51L544.05 472.51L544.05 475.63L544.05 475.63L147.5 475.63z" stroke="none" fill="#FFFFFF" fill-rule="evenodd" /><path transform="matrix(1 0 0 -1 0 841)" d="M147.5 475.63L544.05 475.63L544.05 475.63L544.05 491.47L544.05 491.47L147.5 491.47z" stroke="none" fill="#FFFFFF" fill-rule="evenodd" /><path transform="matrix(1 0 0 -1 0 841)" d="M56.4 491.47L56.88 491.47L56.88 491.47L56.88 491.95L56.88 491.95L56.4 491.95z" stroke="none" fill="#000000" fill-rule="evenodd" /><path transform="matrix(1 0 0 -1 0 841)" d="M56.88 491.47L146.904 491.47L146.904 491.47L146.904 491.95L146.904 491.95L56.88 491.95z" stroke="none" fill="#000000" fill-rule="evenodd" /><path transform="matrix(1 0 0 -1 0 841)" d="M146.9 491.47L147.38 491.47L147.38 491.47L147.38 491.95L147.38 491.95L146.9 491.95z" stroke="none" fill="#000000" fill-rule="evenodd" /><path transform="matrix(1 0 0 -1 0 841)" d="M147.38 491.47L544.05 491.47L544.05 491.47L544.05 491.95L544.05 491.95L147.38 491.95z" stroke="none" fill="#000000" fill-rule="evenodd" /><path transform="matrix(1 0 0 -1 0 841)" d="M544.06 491.47L544.54 491.47L544.54 491.47L544.54 491.95L544.54 491.95L544.06 491.95z" stroke="none" fill="#000000" fill-rule="evenodd" /><path transform="matrix(1 0 0 -1 0 841)" d="M56.4 472.51L56.88 472.51L56.88 472.51L56.88 491.47L56.88 491.47L56.4 491.47z" stroke="none" fill="#000000" fill-rule="evenodd" /><path transform="matrix(1 0 0 -1 0 841)" d="M146.9 472.51L147.38 472.51L147.38 472.51L147.38 491.47L147.38 491.47L146.9 491.47z" stroke="none" fill="#000000" fill-rule="evenodd" /><path transform="matrix(1 0 0 -1 0 841)" d="M544.06 472.51L544.54 472.51L544.54 472.51L544.54 491.47L544.54 491.47L544.06 491.47z" stroke="none" fill="#000000" fill-rule="evenodd" /><path transform="matrix(1 0 0 -1 0 841)" d="M57 453.31L147.024 453.31L147.024 453.31L147.024 456.19L147.024 456.19L57 456.19z" stroke="none" fill="#FFFFFF" fill-rule="evenodd" /><path transform="matrix(1 0 0 -1 0 841)" d="M57 456.19L147.024 456.19L147.024 456.19L147.024 472.03L147.024 472.03L57 472.03z" stroke="none" fill="#FFFFFF" fill-rule="evenodd" /><path transform="matrix(1 0 0 -1 0 841)" d="M147.5 453.31L544.05 453.31L544.05 453.31L544.05 456.19L544.05 456.19L147.5 456.19z" stroke="none" fill="#FFFFFF" fill-rule="evenodd" /><path transform="matrix(1 0 0 -1 0 841)" d="M147.5 456.19L544.05 456.19L544.05 456.19L544.05 472.03L544.05 472.03L147.5 472.03z" stroke="none" fill="#FFFFFF" fill-rule="evenodd" /><path transform="matrix(1 0 0 -1 0 841)" d="M56.4 472.03L56.88 472.03L56.88 472.03L56.88 472.51L56.88 472.51L56.4 472.51z" stroke="none" fill="#000000" fill-rule="evenodd" /><path transform="matrix(1 0 0 -1 0 841)" d="M56.88 472.03L146.904 472.03L146.904 472.03L146.904 472.51L146.904 472.51L56.88 472.51z" stroke="none" fill="#000000" fill-rule="evenodd" /><path transform="matrix(1 0 0 -1 0 841)" d="M146.9 472.03L147.38 472.03L147.38 472.03L147.38 472.51L147.38 472.51L146.9 472.51z" stroke="none" fill="#000000" fill-rule="evenodd" /><path transform="matrix(1 0 0 -1 0 841)" d="M147.38 472.03L544.05 472.03L544.05 472.03L544.05 472.51L544.05 472.51L147.38 472.51z" stroke="none" fill="#000000" fill-rule="evenodd" /><path transform="matrix(1 0 0 -1 0 841)" d="M544.06 472.03L544.54 472.03L544.54 472.03L544.54 472.51L544.54 472.51L544.06 472.51z" stroke="none" fill="#000000" fill-rule="evenodd" /><path transform="matrix(1 0 0 -1 0 841)" d="M56.4 453.31L56.88 453.31L56.88 453.31L56.88 472.03L56.88 472.03L56.4 472.03z" stroke="none" fill="#000000" fill-rule="evenodd" /><path transform="matrix(1 0 0 -1 0 841)" d="M146.9 453.31L147.38 453.31L147.38 453.31L147.38 472.03L147.38 472.03L146.9 472.03z" stroke="none" fill="#000000" fill-rule="evenodd" /><path transform="matrix(1 0 0 -1 0 841)" d="M544.06 453.31L544.54 453.31L544.54 453.31L544.54 472.03L544.54 472.03L544.06 472.03z" stroke="none" fill="#000000" fill-rule="evenodd" /><path transform="matrix(1 0 0 -1 0 841)" d="M57 433.87L147.024 433.87L147.024 433.87L147.024 436.99L147.024 436.99L57 436.99z" stroke="none" fill="#FFFFFF" fill-rule="evenodd" /><path transform="matrix(1 0 0 -1 0 841)" d="M57 436.99L147.024 436.99L147.024 436.99L147.024 452.83L147.024 452.83L57 452.83z" stroke="none" fill="#FFFFFF" fill-rule="evenodd" /><path transform="matrix(1 0 0 -1 0 841)" d="M147.5 433.87L544.05 433.87L544.05 433.87L544.05 436.99L544.05 436.99L147.5 436.99z" stroke="none" fill="#FFFFFF" fill-rule="evenodd" /><path transform="matrix(1 0 0 -1 0 841)" d="M147.5 436.99L544.05 436.99L544.05 436.99L544.05 452.83L544.05 452.83L147.5 452.83z" stroke="none" fill="#FFFFFF" fill-rule="evenodd" /><path transform="matrix(1 0 0 -1 0 841)" d="M56.4 452.83L56.88 452.83L56.88 452.83L56.88 453.31L56.88 453.31L56.4 453.31z" stroke="none" fill="#000000" fill-rule="evenodd" /><path transform="matrix(1 0 0 -1 0 841)" d="M56.88 452.83L146.904 452.83L146.904 452.83L146.904 453.31L146.904 453.31L56.88 453.31z" stroke="none" fill="#000000" fill-rule="evenodd" /><path transform="matrix(1 0 0 -1 0 841)" d="M146.9 452.83L147.38 452.83L147.38 452.83L147.38 453.31L147.38 453.31L146.9 453.31z" stroke="none" fill="#000000" fill-rule="evenodd" /><path transform="matrix(1 0 0 -1 0 841)" d="M147.38 452.83L544.05 452.83L544.05 452.83L544.05 453.31L544.05 453.31L147.38 453.31z" stroke="none" fill="#000000" fill-rule="evenodd" /><path transform="matrix(1 0 0 -1 0 841)" d="M544.06 452.83L544.54 452.83L544.54 452.83L544.54 453.31L544.54 453.31L544.06 453.31z" stroke="none" fill="#000000" fill-rule="evenodd" /><path transform="matrix(1 0 0 -1 0 841)" d="M56.4 433.87L56.88 433.87L56.88 433.87L56.88 452.83L56.88 452.83L56.4 452.83z" stroke="none" fill="#000000" fill-rule="evenodd" /><path transform="matrix(1 0 0 -1 0 841)" d="M146.9 433.87L147.38 433.87L147.38 433.87L147.38 452.83L147.38 452.83L146.9 452.83z" stroke="none" fill="#000000" fill-rule="evenodd" /><path transform="matrix(1 0 0 -1 0 841)" d="M544.06 433.87L544.54 433.87L544.54 433.87L544.54 452.83L544.54 452.83L544.06 452.83z" stroke="none" fill="#000000" fill-rule="evenodd" /><path transform="matrix(1 0 0 -1 0 841)" d="M57 414.43L147.024 414.43L147.024 414.43L147.024 417.55L147.024 417.55L57 417.55z" stroke="none" fill="#FFFFFF" fill-rule="evenodd" /><path transform="matrix(1 0 0 -1 0 841)" d="M57 417.55L147.024 417.55L147.024 417.55L147.024 433.39L147.024 433.39L57 433.39z" stroke="none" fill="#FFFFFF" fill-rule="evenodd" /><path transform="matrix(1 0 0 -1 0 841)" d="M147.5 414.43L544.05 414.43L544.05 414.43L544.05 417.55L544.05 417.55L147.5 417.55z" stroke="none" fill="#FFFFFF" fill-rule="evenodd" /><path transform="matrix(1 0 0 -1 0 841)" d="M147.5 417.55L544.05 417.55L544.05 417.55L544.05 433.39L544.05 433.39L147.5 433.39z" stroke="none" fill="#FFFFFF" fill-rule="evenodd" /><path transform="matrix(1 0 0 -1 0 841)" d="M56.4 433.39L56.88 433.39L56.88 433.39L56.88 433.87L56.88 433.87L56.4 433.87z" stroke="none" fill="#000000" fill-rule="evenodd" /><path transform="matrix(1 0 0 -1 0 841)" d="M56.88 433.39L146.904 433.39L146.904 433.39L146.904 433.87L146.904 433.87L56.88 433.87z" stroke="none" fill="#000000" fill-rule="evenodd" /><path transform="matrix(1 0 0 -1 0 841)" d="M146.9 433.39L147.38 433.39L147.38 433.39L147.38 433.87L147.38 433.87L146.9 433.87z" stroke="none" fill="#000000" fill-rule="evenodd" /><path transform="matrix(1 0 0 -1 0 841)" d="M147.38 433.39L544.05 433.39L544.05 433.39L544.05 433.87L544.05 433.87L147.38 433.87z" stroke="none" fill="#000000" fill-rule="evenodd" /><path transform="matrix(1 0 0 -1 0 841)" d="M544.06 433.39L544.54 433.39L544.54 433.39L544.54 433.87L544.54 433.87L544.06 433.87z" stroke="none" fill="#000000" fill-rule="evenodd" /><path transform="matrix(1 0 0 -1 0 841)" d="M56.4 414.43L56.88 414.43L56.88 414.43L56.88 433.39L56.88 433.39L56.4 433.39z" stroke="none" fill="#000000" fill-rule="evenodd" /><path transform="matrix(1 0 0 -1 0 841)" d="M146.9 414.43L147.38 414.43L147.38 414.43L147.38 433.39L147.38 433.39L146.9 433.39z" stroke="none" fill="#000000" fill-rule="evenodd" /><path transform="matrix(1 0 0 -1 0 841)" d="M544.06 414.43L544.54 414.43L544.54 414.43L544.54 433.39L544.54 433.39L544.06 433.39z" stroke="none" fill="#000000" fill-rule="evenodd" /><path transform="matrix(1 0 0 -1 0 841)" d="M57 395.21L147.024 395.21L147.024 395.21L147.024 398.114L147.024 398.114L57 398.114z" stroke="none" fill="#FFFFFF" fill-rule="evenodd" /><path transform="matrix(1 0 0 -1 0 841)" d="M57 398.11L147.024 398.11L147.024 398.11L147.024 413.95L147.024 413.95L57 413.95z" stroke="none" fill="#FFFFFF" fill-rule="evenodd" /><path transform="matrix(1 0 0 -1 0 841)" d="M147.5 395.21L544.05 395.21L544.05 395.21L544.05 398.114L544.05 398.114L147.5 398.114z" stroke="none" fill="#FFFFFF" fill-rule="evenodd" /><path transform="matrix(1 0 0 -1 0 841)" d="M147.5 398.11L544.05 398.11L544.05 398.11L544.05 413.95L544.05 413.95L147.5 413.95z" stroke="none" fill="#FFFFFF" fill-rule="evenodd" /><path transform="matrix(1 0 0 -1 0 841)" d="M56.4 413.95L56.88 413.95L56.88 413.95L56.88 414.43L56.88 414.43L56.4 414.43z" stroke="none" fill="#000000" fill-rule="evenodd" /><path transform="matrix(1 0 0 -1 0 841)" d="M56.88 413.95L146.904 413.95L146.904 413.95L146.904 414.43L146.904 414.43L56.88 414.43z" stroke="none" fill="#000000" fill-rule="evenodd" /><path transform="matrix(1 0 0 -1 0 841)" d="M146.9 413.95L147.38 413.95L147.38 413.95L147.38 414.43L147.38 414.43L146.9 414.43z" stroke="none" fill="#000000" fill-rule="evenodd" /><path transform="matrix(1 0 0 -1 0 841)" d="M147.38 413.95L544.05 413.95L544.05 413.95L544.05 414.43L544.05 414.43L147.38 414.43z" stroke="none" fill="#000000" fill-rule="evenodd" /><path transform="matrix(1 0 0 -1 0 841)" d="M544.06 413.95L544.54 413.95L544.54 413.95L544.54 414.43L544.54 414.43L544.06 414.43z" stroke="none" fill="#000000" fill-rule="evenodd" /><path transform="matrix(1 0 0 -1 0 841)" d="M56.4 395.21L56.88 395.21L56.88 395.21L56.88 413.954L56.88 413.954L56.4 413.954z" stroke="none" fill="#000000" fill-rule="evenodd" /><path transform="matrix(1 0 0 -1 0 841)" d="M146.9 395.21L147.38 395.21L147.38 395.21L147.38 413.954L147.38 413.954L146.9 413.954z" stroke="none" fill="#000000" fill-rule="evenodd" /><path transform="matrix(1 0 0 -1 0 841)" d="M544.06 395.21L544.54 395.21L544.54 395.21L544.54 413.954L544.54 413.954L544.06 413.954z" stroke="none" fill="#000000" fill-rule="evenodd" /><path transform="matrix(1 0 0 -1 0 841)" d="M57 375.77L147.024 375.77L147.024 375.77L147.024 378.89L147.024 378.89L57 378.89z" stroke="none" fill="#FFFFFF" fill-rule="evenodd" /><g clip-path="url(#10)"><path transform="matrix(1 0 0 -1 0 841)" d="M57 378.89L147.024 378.89L147.024 378.89L147.024 394.73L147.024 394.73L57 394.73z" stroke="none" fill="#FFFFFF" fill-rule="evenodd" /></g><path transform="matrix(1 0 0 -1 0 841)" d="M147.5 375.77L544.05 375.77L544.05 375.77L544.05 378.89L544.05 378.89L147.5 378.89z" stroke="none" fill="#FFFFFF" fill-rule="evenodd" /><g clip-path="url(#11)"><path transform="matrix(1 0 0 -1 0 841)" d="M147.5 378.89L544.05 378.89L544.05 378.89L544.05 394.73L544.05 394.73L147.5 394.73z" stroke="none" fill="#FFFFFF" fill-rule="evenodd" /></g><path transform="matrix(1 0 0 -1 0 841)" d="M56.4 394.73L56.88 394.73L56.88 394.73L56.88 395.21L56.88 395.21L56.4 395.21z" stroke="none" fill="#000000" fill-rule="evenodd" /><path transform="matrix(1 0 0 -1 0 841)" d="M56.88 394.73L146.904 394.73L146.904 394.73L146.904 395.21L146.904 395.21L56.88 395.21z" stroke="none" fill="#000000" fill-rule="evenodd" /><path transform="matrix(1 0 0 -1 0 841)" d="M146.9 394.73L147.38 394.73L147.38 394.73L147.38 395.21L147.38 395.21L146.9 395.21z" stroke="none" fill="#000000" fill-rule="evenodd" /><path transform="matrix(1 0 0 -1 0 841)" d="M147.38 394.73L544.05 394.73L544.05 394.73L544.05 395.21L544.05 395.21L147.38 395.21z" stroke="none" fill="#000000" fill-rule="evenodd" /><path transform="matrix(1 0 0 -1 0 841)" d="M544.06 394.73L544.54 394.73L544.54 394.73L544.54 395.21L544.54 395.21L544.06 395.21z" stroke="none" fill="#000000" fill-rule="evenodd" /><path transform="matrix(1 0 0 -1 0 841)" d="M56.4 375.77L56.88 375.77L56.88 375.77L56.88 394.73L56.88 394.73L56.4 394.73z" stroke="none" fill="#000000" fill-rule="evenodd" /><path transform="matrix(1 0 0 -1 0 841)" d="M146.9 375.77L147.38 375.77L147.38 375.77L147.38 394.73L147.38 394.73L146.9 394.73z" stroke="none" fill="#000000" fill-rule="evenodd" /><path transform="matrix(1 0 0 -1 0 841)" d="M544.06 375.77L544.54 375.77L544.54 375.77L544.54 394.73L544.54 394.73L544.06 394.73z" stroke="none" fill="#000000" fill-rule="evenodd" /><path transform="matrix(1 0 0 -1 0 841)" d="M57 356.57L147.024 356.57L147.024 356.57L147.024 359.33L147.024 359.33L57 359.33z" stroke="none" fill="#FFFFFF" fill-rule="evenodd" /><path transform="matrix(1 0 0 -1 0 841)" d="M57 359.33L147.024 359.33L147.024 359.33L147.024 375.29L147.024 375.29L57 375.29z" stroke="none" fill="#FFFFFF" fill-rule="evenodd" /><path transform="matrix(1 0 0 -1 0 841)" d="M147.5 356.57L544.05 356.57L544.05 356.57L544.05 359.33L544.05 359.33L147.5 359.33z" stroke="none" fill="#FFFFFF" fill-rule="evenodd" /><path transform="matrix(1 0 0 -1 0 841)" d="M147.5 359.33L544.05 359.33L544.05 359.33L544.05 375.29L544.05 375.29L147.5 375.29z" stroke="none" fill="#FFFFFF" fill-rule="evenodd" /><path transform="matrix(1 0 0 -1 0 841)" d="M56.4 375.29L56.88 375.29L56.88 375.29L56.88 375.77L56.88 375.77L56.4 375.77z" stroke="none" fill="#000000" fill-rule="evenodd" /><path transform="matrix(1 0 0 -1 0 841)" d="M56.88 375.29L146.904 375.29L146.904 375.29L146.904 375.77L146.904 375.77L56.88 375.77z" stroke="none" fill="#000000" fill-rule="evenodd" /><path transform="matrix(1 0 0 -1 0 841)" d="M146.9 375.29L147.38 375.29L147.38 375.29L147.38 375.77L147.38 375.77L146.9 375.77z" stroke="none" fill="#000000" fill-rule="evenodd" /><path transform="matrix(1 0 0 -1 0 841)" d="M147.38 375.29L544.05 375.29L544.05 375.29L544.05 375.77L544.05 375.77L147.38 375.77z" stroke="none" fill="#000000" fill-rule="evenodd" /><path transform="matrix(1 0 0 -1 0 841)" d="M544.06 375.29L544.54 375.29L544.54 375.29L544.54 375.77L544.54 375.77L544.06 375.77z" stroke="none" fill="#000000" fill-rule="evenodd" /><path transform="matrix(1 0 0 -1 0 841)" d="M56.4 356.57L56.88 356.57L56.88 356.57L56.88 375.29L56.88 375.29L56.4 375.29z" stroke="none" fill="#000000" fill-rule="evenodd" /><path transform="matrix(1 0 0 -1 0 841)" d="M146.9 356.57L147.38 356.57L147.38 356.57L147.38 375.29L147.38 375.29L146.9 375.29z" stroke="none" fill="#000000" fill-rule="evenodd" /><path transform="matrix(1 0 0 -1 0 841)" d="M544.06 356.57L544.54 356.57L544.54 356.57L544.54 375.29L544.54 375.29L544.06 375.29z" stroke="none" fill="#000000" fill-rule="evenodd" /><path transform="matrix(1 0 0 -1 0 841)" d="M57 337.13L147.024 337.13L147.024 337.13L147.024 340.13L147.024 340.13L57 340.13z" stroke="none" fill="#FFFFFF" fill-rule="evenodd" /><path transform="matrix(1 0 0 -1 0 841)" d="M57 340.13L147.024 340.13L147.024 340.13L147.024 356.09L147.024 356.09L57 356.09z" stroke="none" fill="#FFFFFF" fill-rule="evenodd" /><path transform="matrix(1 0 0 -1 0 841)" d="M147.5 337.13L544.05 337.13L544.05 337.13L544.05 340.13L544.05 340.13L147.5 340.13z" stroke="none" fill="#FFFFFF" fill-rule="evenodd" /><path transform="matrix(1 0 0 -1 0 841)" d="M147.5 340.13L544.05 340.13L544.05 340.13L544.05 356.09L544.05 356.09L147.5 356.09z" stroke="none" fill="#FFFFFF" fill-rule="evenodd" /><path transform="matrix(1 0 0 -1 0 841)" d="M56.4 356.09L56.88 356.09L56.88 356.09L56.88 356.57L56.88 356.57L56.4 356.57z" stroke="none" fill="#000000" fill-rule="evenodd" /><path transform="matrix(1 0 0 -1 0 841)" d="M56.88 356.09L146.904 356.09L146.904 356.09L146.904 356.57L146.904 356.57L56.88 356.57z" stroke="none" fill="#000000" fill-rule="evenodd" /><path transform="matrix(1 0 0 -1 0 841)" d="M146.9 356.09L147.38 356.09L147.38 356.09L147.38 356.57L147.38 356.57L146.9 356.57z" stroke="none" fill="#000000" fill-rule="evenodd" /><path transform="matrix(1 0 0 -1 0 841)" d="M147.38 356.09L544.05 356.09L544.05 356.09L544.05 356.57L544.05 356.57L147.38 356.57z" stroke="none" fill="#000000" fill-rule="evenodd" /><path transform="matrix(1 0 0 -1 0 841)" d="M544.06 356.09L544.54 356.09L544.54 356.09L544.54 356.57L544.54 356.57L544.06 356.57z" stroke="none" fill="#000000" fill-rule="evenodd" /><path transform="matrix(1 0 0 -1 0 841)" d="M56.4 337.13L56.88 337.13L56.88 337.13L56.88 356.09L56.88 356.09L56.4 356.09z" stroke="none" fill="#000000" fill-rule="evenodd" /><path transform="matrix(1 0 0 -1 0 841)" d="M146.9 337.13L147.38 337.13L147.38 337.13L147.38 356.09L147.38 356.09L146.9 356.09z" stroke="none" fill="#000000" fill-rule="evenodd" /><path transform="matrix(1 0 0 -1 0 841)" d="M544.06 337.13L544.54 337.13L544.54 337.13L544.54 356.09L544.54 356.09L544.06 356.09z" stroke="none" fill="#000000" fill-rule="evenodd" /><path transform="matrix(1 0 0 -1 0 841)" d="M57 317.93L147.024 317.93L147.024 317.93L147.024 320.69L147.024 320.69L57 320.69z" stroke="none" fill="#FFFFFF" fill-rule="evenodd" /><path transform="matrix(1 0 0 -1 0 841)" d="M57 320.69L147.024 320.69L147.024 320.69L147.024 336.65L147.024 336.65L57 336.65z" stroke="none" fill="#FFFFFF" fill-rule="evenodd" /><path transform="matrix(1 0 0 -1 0 841)" d="M147.5 317.93L544.05 317.93L544.05 317.93L544.05 320.69L544.05 320.69L147.5 320.69z" stroke="none" fill="#FFFFFF" fill-rule="evenodd" /><path transform="matrix(1 0 0 -1 0 841)" d="M147.5 320.69L544.05 320.69L544.05 320.69L544.05 336.65L544.05 336.65L147.5 336.65z" stroke="none" fill="#FFFFFF" fill-rule="evenodd" /><path transform="matrix(1 0 0 -1 0 841)" d="M56.4 336.65L56.88 336.65L56.88 336.65L56.88 337.13L56.88 337.13L56.4 337.13z" stroke="none" fill="#000000" fill-rule="evenodd" /><path transform="matrix(1 0 0 -1 0 841)" d="M56.88 336.65L146.904 336.65L146.904 336.65L146.904 337.13L146.904 337.13L56.88 337.13z" stroke="none" fill="#000000" fill-rule="evenodd" /><path transform="matrix(1 0 0 -1 0 841)" d="M146.9 336.65L147.38 336.65L147.38 336.65L147.38 337.13L147.38 337.13L146.9 337.13z" stroke="none" fill="#000000" fill-rule="evenodd" /><path transform="matrix(1 0 0 -1 0 841)" d="M147.38 336.65L544.05 336.65L544.05 336.65L544.05 337.13L544.05 337.13L147.38 337.13z" stroke="none" fill="#000000" fill-rule="evenodd" /><path transform="matrix(1 0 0 -1 0 841)" d="M544.06 336.65L544.54 336.65L544.54 336.65L544.54 337.13L544.54 337.13L544.06 337.13z" stroke="none" fill="#000000" fill-rule="evenodd" /><path transform="matrix(1 0 0 -1 0 841)" d="M56.4 317.93L56.88 317.93L56.88 317.93L56.88 336.65L56.88 336.65L56.4 336.65z" stroke="none" fill="#000000" fill-rule="evenodd" /><path transform="matrix(1 0 0 -1 0 841)" d="M146.9 317.93L147.38 317.93L147.38 317.93L147.38 336.65L147.38 336.65L146.9 336.65z" stroke="none" fill="#000000" fill-rule="evenodd" /><path transform="matrix(1 0 0 -1 0 841)" d="M544.06 317.93L544.54 317.93L544.54 317.93L544.54 336.65L544.54 336.65L544.06 336.65z" stroke="none" fill="#000000" fill-rule="evenodd" /><path transform="matrix(1 0 0 -1 0 841)" d="M57 298.49L147.024 298.49L147.024 298.49L147.024 301.49L147.024 301.49L57 301.49z" stroke="none" fill="#FFFFFF" fill-rule="evenodd" /><path transform="matrix(1 0 0 -1 0 841)" d="M57 301.49L147.024 301.49L147.024 301.49L147.024 317.45L147.024 317.45L57 317.45z" stroke="none" fill="#FFFFFF" fill-rule="evenodd" /><path transform="matrix(1 0 0 -1 0 841)" d="M147.5 298.49L544.05 298.49L544.05 298.49L544.05 301.49L544.05 301.49L147.5 301.49z" stroke="none" fill="#FFFFFF" fill-rule="evenodd" /><path transform="matrix(1 0 0 -1 0 841)" d="M147.5 301.49L544.05 301.49L544.05 301.49L544.05 317.45L544.05 317.45L147.5 317.45z" stroke="none" fill="#FFFFFF" fill-rule="evenodd" /><path transform="matrix(1 0 0 -1 0 841)" d="M56.4 317.45L56.88 317.45L56.88 317.45L56.88 317.93L56.88 317.93L56.4 317.93z" stroke="none" fill="#000000" fill-rule="evenodd" /><path transform="matrix(1 0 0 -1 0 841)" d="M56.88 317.45L146.904 317.45L146.904 317.45L146.904 317.93L146.904 317.93L56.88 317.93z" stroke="none" fill="#000000" fill-rule="evenodd" /><path transform="matrix(1 0 0 -1 0 841)" d="M146.9 317.45L147.38 317.45L147.38 317.45L147.38 317.93L147.38 317.93L146.9 317.93z" stroke="none" fill="#000000" fill-rule="evenodd" /><path transform="matrix(1 0 0 -1 0 841)" d="M147.38 317.45L544.05 317.45L544.05 317.45L544.05 317.93L544.05 317.93L147.38 317.93z" stroke="none" fill="#000000" fill-rule="evenodd" /><path transform="matrix(1 0 0 -1 0 841)" d="M544.06 317.45L544.54 317.45L544.54 317.45L544.54 317.93L544.54 317.93L544.06 317.93z" stroke="none" fill="#000000" fill-rule="evenodd" /><path transform="matrix(1 0 0 -1 0 841)" d="M56.4 298.49L56.88 298.49L56.88 298.49L56.88 317.45L56.88 317.45L56.4 317.45z" stroke="none" fill="#000000" fill-rule="evenodd" /><path transform="matrix(1 0 0 -1 0 841)" d="M146.9 298.49L147.38 298.49L147.38 298.49L147.38 317.45L147.38 317.45L146.9 317.45z" stroke="none" fill="#000000" fill-rule="evenodd" /><path transform="matrix(1 0 0 -1 0 841)" d="M544.06 298.49L544.54 298.49L544.54 298.49L544.54 317.45L544.54 317.45L544.06 317.45z" stroke="none" fill="#000000" fill-rule="evenodd" /><path transform="matrix(1 0 0 -1 0 841)" d="M57 279.05L147.024 279.05L147.024 279.05L147.024 282.05L147.024 282.05L57 282.05z" stroke="none" fill="#FFFFFF" fill-rule="evenodd" /><path transform="matrix(1 0 0 -1 0 841)" d="M57 282.05L147.024 282.05L147.024 282.05L147.024 298.01L147.024 298.01L57 298.01z" stroke="none" fill="#FFFFFF" fill-rule="evenodd" /><path transform="matrix(1 0 0 -1 0 841)" d="M147.5 279.05L544.05 279.05L544.05 279.05L544.05 282.05L544.05 282.05L147.5 282.05z" stroke="none" fill="#FFFFFF" fill-rule="evenodd" /><path transform="matrix(1 0 0 -1 0 841)" d="M147.5 282.05L544.05 282.05L544.05 282.05L544.05 298.01L544.05 298.01L147.5 298.01z" stroke="none" fill="#FFFFFF" fill-rule="evenodd" /><path transform="matrix(1 0 0 -1 0 841)" d="M56.4 298.01L56.88 298.01L56.88 298.01L56.88 298.49L56.88 298.49L56.4 298.49z" stroke="none" fill="#000000" fill-rule="evenodd" /><path transform="matrix(1 0 0 -1 0 841)" d="M56.88 298.01L146.904 298.01L146.904 298.01L146.904 298.49L146.904 298.49L56.88 298.49z" stroke="none" fill="#000000" fill-rule="evenodd" /><path transform="matrix(1 0 0 -1 0 841)" d="M146.9 298.01L147.38 298.01L147.38 298.01L147.38 298.49L147.38 298.49L146.9 298.49z" stroke="none" fill="#000000" fill-rule="evenodd" /><path transform="matrix(1 0 0 -1 0 841)" d="M147.38 298.01L544.05 298.01L544.05 298.01L544.05 298.49L544.05 298.49L147.38 298.49z" stroke="none" fill="#000000" fill-rule="evenodd" /><path transform="matrix(1 0 0 -1 0 841)" d="M544.06 298.01L544.54 298.01L544.54 298.01L544.54 298.49L544.54 298.49L544.06 298.49z" stroke="none" fill="#000000" fill-rule="evenodd" /><path transform="matrix(1 0 0 -1 0 841)" d="M56.4 279.05L56.88 279.05L56.88 279.05L56.88 298.01L56.88 298.01L56.4 298.01z" stroke="none" fill="#000000" fill-rule="evenodd" /><path transform="matrix(1 0 0 -1 0 841)" d="M146.9 279.05L147.38 279.05L147.38 279.05L147.38 298.01L147.38 298.01L146.9 298.01z" stroke="none" fill="#000000" fill-rule="evenodd" /><path transform="matrix(1 0 0 -1 0 841)" d="M544.06 279.05L544.54 279.05L544.54 279.05L544.54 298.01L544.54 298.01L544.06 298.01z" stroke="none" fill="#000000" fill-rule="evenodd" /><path transform="matrix(1 0 0 -1 0 841)" d="M57 259.61L147.024 259.61L147.024 259.61L147.024 262.61L147.024 262.61L57 262.61z" stroke="none" fill="#FFFFFF" fill-rule="evenodd" /><path transform="matrix(1 0 0 -1 0 841)" d="M57 262.61L147.024 262.61L147.024 262.61L147.024 278.45L147.024 278.45L57 278.45z" stroke="none" fill="#FFFFFF" fill-rule="evenodd" /><path transform="matrix(1 0 0 -1 0 841)" d="M147.5 259.61L544.05 259.61L544.05 259.61L544.05 262.61L544.05 262.61L147.5 262.61z" stroke="none" fill="#FFFFFF" fill-rule="evenodd" /><path transform="matrix(1 0 0 -1 0 841)" d="M147.5 262.61L544.05 262.61L544.05 262.61L544.05 278.45L544.05 278.45L147.5 278.45z" stroke="none" fill="#FFFFFF" fill-rule="evenodd" /><path transform="matrix(1 0 0 -1 0 841)" d="M56.4 278.57L56.88 278.57L56.88 278.57L56.88 279.05L56.88 279.05L56.4 279.05z" stroke="none" fill="#000000" fill-rule="evenodd" /><path transform="matrix(1 0 0 -1 0 841)" d="M56.88 278.57L146.904 278.57L146.904 278.57L146.904 279.05L146.904 279.05L56.88 279.05z" stroke="none" fill="#000000" fill-rule="evenodd" /><path transform="matrix(1 0 0 -1 0 841)" d="M146.9 278.57L147.38 278.57L147.38 278.57L147.38 279.05L147.38 279.05L146.9 279.05z" stroke="none" fill="#000000" fill-rule="evenodd" /><path transform="matrix(1 0 0 -1 0 841)" d="M147.38 278.57L544.05 278.57L544.05 278.57L544.05 279.05L544.05 279.05L147.38 279.05z" stroke="none" fill="#000000" fill-rule="evenodd" /><path transform="matrix(1 0 0 -1 0 841)" d="M544.06 278.57L544.54 278.57L544.54 278.57L544.54 279.05L544.54 279.05L544.06 279.05z" stroke="none" fill="#000000" fill-rule="evenodd" /><path transform="matrix(1 0 0 -1 0 841)" d="M56.4 259.61L56.88 259.61L56.88 259.61L56.88 278.57L56.88 278.57L56.4 278.57z" stroke="none" fill="#000000" fill-rule="evenodd" /><path transform="matrix(1 0 0 -1 0 841)" d="M146.9 259.61L147.38 259.61L147.38 259.61L147.38 278.57L147.38 278.57L146.9 278.57z" stroke="none" fill="#000000" fill-rule="evenodd" /><path transform="matrix(1 0 0 -1 0 841)" d="M544.06 259.61L544.54 259.61L544.54 259.61L544.54 278.57L544.54 278.57L544.06 278.57z" stroke="none" fill="#000000" fill-rule="evenodd" /><path transform="matrix(1 0 0 -1 0 841)" d="M57 240.41L147.024 240.41L147.024 240.41L147.024 243.17L147.024 243.17L57 243.17z" stroke="none" fill="#FFFFFF" fill-rule="evenodd" /><path transform="matrix(1 0 0 -1 0 841)" d="M57 243.17L147.024 243.17L147.024 243.17L147.024 259.01L147.024 259.01L57 259.01z" stroke="none" fill="#FFFFFF" fill-rule="evenodd" /><path transform="matrix(1 0 0 -1 0 841)" d="M147.5 240.41L544.05 240.41L544.05 240.41L544.05 243.17L544.05 243.17L147.5 243.17z" stroke="none" fill="#FFFFFF" fill-rule="evenodd" /><path transform="matrix(1 0 0 -1 0 841)" d="M147.5 243.17L544.05 243.17L544.05 243.17L544.05 259.01L544.05 259.01L147.5 259.01z" stroke="none" fill="#FFFFFF" fill-rule="evenodd" /><path transform="matrix(1 0 0 -1 0 841)" d="M56.4 259.13L56.88 259.13L56.88 259.13L56.88 259.61L56.88 259.61L56.4 259.61z" stroke="none" fill="#000000" fill-rule="evenodd" /><path transform="matrix(1 0 0 -1 0 841)" d="M56.88 259.13L146.904 259.13L146.904 259.13L146.904 259.61L146.904 259.61L56.88 259.61z" stroke="none" fill="#000000" fill-rule="evenodd" /><path transform="matrix(1 0 0 -1 0 841)" d="M146.9 259.13L147.38 259.13L147.38 259.13L147.38 259.61L147.38 259.61L146.9 259.61z" stroke="none" fill="#000000" fill-rule="evenodd" /><path transform="matrix(1 0 0 -1 0 841)" d="M147.38 259.13L544.05 259.13L544.05 259.13L544.05 259.61L544.05 259.61L147.38 259.61z" stroke="none" fill="#000000" fill-rule="evenodd" /><path transform="matrix(1 0 0 -1 0 841)" d="M544.06 259.13L544.54 259.13L544.54 259.13L544.54 259.61L544.54 259.61L544.06 259.61z" stroke="none" fill="#000000" fill-rule="evenodd" /><path transform="matrix(1 0 0 -1 0 841)" d="M56.4 240.41L56.88 240.41L56.88 240.41L56.88 259.13L56.88 259.13L56.4 259.13z" stroke="none" fill="#000000" fill-rule="evenodd" /><path transform="matrix(1 0 0 -1 0 841)" d="M146.9 240.41L147.38 240.41L147.38 240.41L147.38 259.13L147.38 259.13L146.9 259.13z" stroke="none" fill="#000000" fill-rule="evenodd" /><path transform="matrix(1 0 0 -1 0 841)" d="M544.06 240.41L544.54 240.41L544.54 240.41L544.54 259.13L544.54 259.13L544.06 259.13z" stroke="none" fill="#000000" fill-rule="evenodd" /><path transform="matrix(1 0 0 -1 0 841)" d="M57 206.78L147.024 206.78L147.024 206.78L147.024 223.964L147.024 223.964L57 223.964z" stroke="none" fill="#FFFFFF" fill-rule="evenodd" /><g clip-path="url(#12)"><path transform="matrix(1 0 0 -1 0 841)" d="M57 223.97L147.024 223.97L147.024 223.97L147.024 239.81L147.024 239.81L57 239.81z" stroke="none" fill="#FFFFFF" fill-rule="evenodd" /></g><path transform="matrix(1 0 0 -1 0 841)" d="M147.5 206.78L544.05 206.78L544.05 206.78L544.05 208.1L544.05 208.1L147.5 208.1z" stroke="none" fill="#FFFFFF" fill-rule="evenodd" /><g clip-path="url(#13)"><path transform="matrix(1 0 0 -1 0 841)" d="M147.5 223.97L544.05 223.97L544.05 223.97L544.05 239.81L544.05 239.81L147.5 239.81z" stroke="none" fill="#FFFFFF" fill-rule="evenodd" /></g><path transform="matrix(1 0 0 -1 0 841)" d="M147.5 208.1L544.05 208.1L544.05 208.1L544.05 223.964L544.05 223.964L147.5 223.964z" stroke="none" fill="#FFFFFF" fill-rule="evenodd" /><path transform="matrix(1 0 0 -1 0 841)" d="M56.4 239.93L56.88 239.93L56.88 239.93L56.88 240.41L56.88 240.41L56.4 240.41z" stroke="none" fill="#000000" fill-rule="evenodd" /><path transform="matrix(1 0 0 -1 0 841)" d="M56.88 239.93L146.904 239.93L146.904 239.93L146.904 240.41L146.904 240.41L56.88 240.41z" stroke="none" fill="#000000" fill-rule="evenodd" /><path transform="matrix(1 0 0 -1 0 841)" d="M146.9 239.93L147.38 239.93L147.38 239.93L147.38 240.41L147.38 240.41L146.9 240.41z" stroke="none" fill="#000000" fill-rule="evenodd" /><path transform="matrix(1 0 0 -1 0 841)" d="M147.38 239.93L544.05 239.93L544.05 239.93L544.05 240.41L544.05 240.41L147.38 240.41z" stroke="none" fill="#000000" fill-rule="evenodd" /><path transform="matrix(1 0 0 -1 0 841)" d="M544.06 239.93L544.54 239.93L544.54 239.93L544.54 240.41L544.54 240.41L544.06 240.41z" stroke="none" fill="#000000" fill-rule="evenodd" /><path transform="matrix(1 0 0 -1 0 841)" d="M56.4 206.78L56.88 206.78L56.88 206.78L56.88 239.924L56.88 239.924L56.4 239.924z" stroke="none" fill="#000000" fill-rule="evenodd" /><path transform="matrix(1 0 0 -1 0 841)" d="M146.9 206.78L147.38 206.78L147.38 206.78L147.38 239.924L147.38 239.924L146.9 239.924z" stroke="none" fill="#000000" fill-rule="evenodd" /><path transform="matrix(1 0 0 -1 0 841)" d="M544.06 206.78L544.54 206.78L544.54 206.78L544.54 239.924L544.54 239.924L544.06 239.924z" stroke="none" fill="#000000" fill-rule="evenodd" /><path transform="matrix(1 0 0 -1 0 841)" d="M57 171.26L147.024 171.26L147.024 171.26L147.024 190.34L147.024 190.34L57 190.34z" stroke="none" fill="#FFFFFF" fill-rule="evenodd" /><path transform="matrix(1 0 0 -1 0 841)" d="M57 190.34L147.024 190.34L147.024 190.34L147.024 206.18L147.024 206.18L57 206.18z" stroke="none" fill="#FFFFFF" fill-rule="evenodd" /><path transform="matrix(1 0 0 -1 0 841)" d="M147.5 171.26L544.05 171.26L544.05 171.26L544.05 174.5L544.05 174.5L147.5 174.5z" stroke="none" fill="#FFFFFF" fill-rule="evenodd" /><path transform="matrix(1 0 0 -1 0 841)" d="M147.5 190.34L544.05 190.34L544.05 190.34L544.05 206.18L544.05 206.18L147.5 206.18z" stroke="none" fill="#FFFFFF" fill-rule="evenodd" /><path transform="matrix(1 0 0 -1 0 841)" d="M147.5 174.5L544.05 174.5L544.05 174.5L544.05 190.34L544.05 190.34L147.5 190.34z" stroke="none" fill="#FFFFFF" fill-rule="evenodd" /><path transform="matrix(1 0 0 -1 0 841)" d="M56.4 206.3L56.88 206.3L56.88 206.3L56.88 206.78L56.88 206.78L56.4 206.78z" stroke="none" fill="#000000" fill-rule="evenodd" /><path transform="matrix(1 0 0 -1 0 841)" d="M56.88 206.3L146.904 206.3L146.904 206.3L146.904 206.78L146.904 206.78L56.88 206.78z" stroke="none" fill="#000000" fill-rule="evenodd" /><path transform="matrix(1 0 0 -1 0 841)" d="M146.9 206.3L147.38 206.3L147.38 206.3L147.38 206.78L147.38 206.78L146.9 206.78z" stroke="none" fill="#000000" fill-rule="evenodd" /><path transform="matrix(1 0 0 -1 0 841)" d="M147.38 206.3L544.05 206.3L544.05 206.3L544.05 206.78L544.05 206.78L147.38 206.78z" stroke="none" fill="#000000" fill-rule="evenodd" /><path transform="matrix(1 0 0 -1 0 841)" d="M544.06 206.3L544.54 206.3L544.54 206.3L544.54 206.78L544.54 206.78L544.06 206.78z" stroke="none" fill="#000000" fill-rule="evenodd" /><path transform="matrix(1 0 0 -1 0 841)" d="M56.4 171.26L56.88 171.26L56.88 171.26L56.88 206.3L56.88 206.3L56.4 206.3z" stroke="none" fill="#000000" fill-rule="evenodd" /><path transform="matrix(1 0 0 -1 0 841)" d="M146.9 171.26L147.38 171.26L147.38 171.26L147.38 206.3L147.38 206.3L146.9 206.3z" stroke="none" fill="#000000" fill-rule="evenodd" /><path transform="matrix(1 0 0 -1 0 841)" d="M544.06 171.26L544.54 171.26L544.54 171.26L544.54 206.3L544.54 206.3L544.06 206.3z" stroke="none" fill="#000000" fill-rule="evenodd" /><path transform="matrix(1 0 0 -1 0 841)" d="M57 151.58L147.024 151.58L147.024 151.58L147.024 154.82L147.024 154.82L57 154.82z" stroke="none" fill="#FFFFFF" fill-rule="evenodd" /><g clip-path="url(#14)"><path transform="matrix(1 0 0 -1 0 841)" d="M57 154.82L147.024 154.82L147.024 154.82L147.024 170.78L147.024 170.78L57 170.78z" stroke="none" fill="#FFFFFF" fill-rule="evenodd" /></g><path transform="matrix(1 0 0 -1 0 841)" d="M147.5 151.58L544.05 151.58L544.05 151.58L544.05 154.82L544.05 154.82L147.5 154.82z" stroke="none" fill="#FFFFFF" fill-rule="evenodd" /><g clip-path="url(#15)"><path transform="matrix(1 0 0 -1 0 841)" d="M147.5 154.82L544.05 154.82L544.05 154.82L544.05 170.78L544.05 170.78L147.5 170.78z" stroke="none" fill="#FFFFFF" fill-rule="evenodd" /></g><path transform="matrix(1 0 0 -1 0 841)" d="M56.4 170.78L56.88 170.78L56.88 170.78L56.88 171.26L56.88 171.26L56.4 171.26z" stroke="none" fill="#000000" fill-rule="evenodd" /><path transform="matrix(1 0 0 -1 0 841)" d="M56.88 170.78L146.904 170.78L146.904 170.78L146.904 171.26L146.904 171.26L56.88 171.26z" stroke="none" fill="#000000" fill-rule="evenodd" /><path transform="matrix(1 0 0 -1 0 841)" d="M146.9 170.78L147.38 170.78L147.38 170.78L147.38 171.26L147.38 171.26L146.9 171.26z" stroke="none" fill="#000000" fill-rule="evenodd" /><path transform="matrix(1 0 0 -1 0 841)" d="M147.38 170.78L544.05 170.78L544.05 170.78L544.05 171.26L544.05 171.26L147.38 171.26z" stroke="none" fill="#000000" fill-rule="evenodd" /><path transform="matrix(1 0 0 -1 0 841)" d="M544.06 170.78L544.54 170.78L544.54 170.78L544.54 171.26L544.54 171.26L544.06 171.26z" stroke="none" fill="#000000" fill-rule="evenodd" /><path transform="matrix(1 0 0 -1 0 841)" d="M56.4 151.46L56.88 151.46L56.88 151.46L56.88 170.78L56.88 170.78L56.4 170.78z" stroke="none" fill="#000000" fill-rule="evenodd" /><path transform="matrix(1 0 0 -1 0 841)" d="M56.4 150.98L56.88 150.98L56.88 150.98L56.88 151.46L56.88 151.46L56.4 151.46z" stroke="none" fill="#000000" fill-rule="evenodd" /><path transform="matrix(1 0 0 -1 0 841)" d="M56.4 150.98L56.88 150.98L56.88 150.98L56.88 151.46L56.88 151.46L56.4 151.46z" stroke="none" fill="#000000" fill-rule="evenodd" /><path transform="matrix(1 0 0 -1 0 841)" d="M56.88 150.98L146.904 150.98L146.904 150.98L146.904 151.46L146.904 151.46L56.88 151.46z" stroke="none" fill="#000000" fill-rule="evenodd" /><path transform="matrix(1 0 0 -1 0 841)" d="M146.9 151.46L147.38 151.46L147.38 151.46L147.38 170.78L147.38 170.78L146.9 170.78z" stroke="none" fill="#000000" fill-rule="evenodd" /><path transform="matrix(1 0 0 -1 0 841)" d="M146.9 150.98L147.38 150.98L147.38 150.98L147.38 151.46L147.38 151.46L146.9 151.46z" stroke="none" fill="#000000" fill-rule="evenodd" /><path transform="matrix(1 0 0 -1 0 841)" d="M147.38 150.98L544.05 150.98L544.05 150.98L544.05 151.46L544.05 151.46L147.38 151.46z" stroke="none" fill="#000000" fill-rule="evenodd" /><path transform="matrix(1 0 0 -1 0 841)" d="M544.06 151.46L544.54 151.46L544.54 151.46L544.54 170.78L544.54 170.78L544.06 170.78z" stroke="none" fill="#000000" fill-rule="evenodd" /><path transform="matrix(1 0 0 -1 0 841)" d="M544.06 150.98L544.54 150.98L544.54 150.98L544.54 151.46L544.54 151.46L544.06 151.46z" stroke="none" fill="#000000" fill-rule="evenodd" /><path transform="matrix(1 0 0 -1 0 841)" d="M544.06 150.98L544.54 150.98L544.54 150.98L544.54 151.46L544.54 151.46L544.06 151.46z" stroke="none" fill="#000000" fill-rule="evenodd" /><g transform="matrix(1 0 0 1 50 23)"><g transform="matrix(1 0 0 1 0 0)"><image x="0" y="0" xlink:href="img_01.png" width="143" height="32" /></g></g></g></g></g><defs><clipPath id="1"><path d="M0 841L0 -0.9199829L0 -0.9199829L595.32 -0.9199829L595.32 -0.9199829L595.32 841L595.32 841L0 841z" /></clipPath><clipPath id="2"><path d="M57 229.74L147.024 229.74L147.024 229.74L147.024 211.26L147.024 211.26L57 211.26z" /></clipPath><clipPath id="3"><path d="M147.5 229.74L544.05 229.74L544.05 229.74L544.05 211.26L544.05 211.26L147.5 211.26z" /></clipPath><clipPath id="4"><path d="M57 268.89L147.024 268.89L147.024 268.89L147.024 249.906L147.024 249.906L57 249.906z" /></clipPath><clipPath id="5"><path d="M147.5 268.89L544.05 268.89L544.05 268.89L544.05 249.906L544.05 249.906L147.5 249.906z" /></clipPath><clipPath id="6"><path d="M57 288.09L147.024 288.09L147.024 288.09L147.024 269.3701L147.024 269.3701L57 269.3701z" /></clipPath><clipPath id="7"><path d="M147.5 288.09L544.05 288.09L544.05 288.09L544.05 269.3701L544.05 269.3701L147.5 269.3701z" /></clipPath><clipPath id="8"><path d="M57 329.61L147.024 329.61L147.024 329.61L147.024 308.13L147.024 308.13L57 308.13z" /></clipPath><clipPath id="9"><path d="M147.5 329.61L544.05 329.61L544.05 329.61L544.05 308.13L544.05 308.13L147.5 308.13z" /></clipPath><clipPath id="10"><path d="M57 465.23L147.024 465.23L147.024 465.23L147.024 446.27L147.024 446.27L57 446.27z" /></clipPath><clipPath id="11"><path d="M147.5 465.23L544.05 465.23L544.05 465.23L544.05 446.27L544.05 446.27L147.5 446.27z" /></clipPath><clipPath id="12"><path d="M57 634.22L147.024 634.22L147.024 634.22L147.024 601.196L147.024 601.196L57 601.196z" /></clipPath><clipPath id="13"><path d="M147.5 634.22L544.05 634.22L544.05 634.22L544.05 601.196L544.05 601.196L147.5 601.196z" /></clipPath><clipPath id="14"><path d="M57 689.42L147.024 689.42L147.024 689.42L147.024 670.22L147.024 670.22L57 670.22z" /></clipPath><clipPath id="15"><path d="M147.5 689.42L544.05 689.42L544.05 689.42L544.05 670.22L544.05 670.22L147.5 670.22z" /></clipPath></defs></svg>