<svg xmlns="http://www.w3.org/2000/svg" xmlns:xlink="http://www.w3.org/1999/xlink" id="body_2" preserveAspectRatio="xMinYMin meet" viewBox="0 0 793 1121"><g transform="matrix(1.333333 0 0 1.333333 0 0)"><g><g clip-path="url(#1)"><path transform="matrix(1 0 0 -1 0 841)" d="M57 665.14L147.384 665.14L147.384 665.14L147.384 666.58L147.384 666.58L57 666.58z" stroke="none" fill="#FFFFFF" fill-rule="evenodd" /><path transform="matrix(1 0 0 -1 0 841)" d="M57 647.86L147.384 647.86L147.384 647.86L147.384 649.3L147.384 649.3L57 649.3z" stroke="none" fill="#FFFFFF" fill-rule="evenodd" /><path transform="matrix(1 0 0 -1 0 841)" d="M57 649.3L147.384 649.3L147.384 649.3L147.384 665.14L147.384 665.14L57 665.14z" stroke="none" fill="#FFFFFF" fill-rule="evenodd" /><path transform="matrix(1 0 0 -1 0 841)" d="M147.86 665.14L542.73 665.14L542.73 665.14L542.73 666.58L542.73 666.58L147.86 666.58z" stroke="none" fill="#FFFFFF" fill-rule="evenodd" /><path transform="matrix(1 0 0 -1 0 841)" d="M147.86 647.86L542.73 647.86L542.73 647.86L542.73 649.3L542.73 649.3L147.86 649.3z" stroke="none" fill="#FFFFFF" fill-rule="evenodd" /><path transform="matrix(1 0 0 -1 0 841)" d="M147.86 649.3L542.73 649.3L542.73 649.3L542.73 665.14L542.73 665.14L147.86 665.14z" stroke="none" fill="#FFFFFF" fill-rule="evenodd" /><path transform="matrix(1 0 0 -1 0 841)" d="M56.4 666.58L56.88 666.58L56.88 666.58L56.88 667.06L56.88 667.06L56.4 667.06z" stroke="none" fill="#000000" fill-rule="evenodd" /><path transform="matrix(1 0 0 -1 0 841)" d="M56.4 666.58L56.88 666.58L56.88 666.58L56.88 667.06L56.88 667.06L56.4 667.06z" stroke="none" fill="#000000" fill-rule="evenodd" /><path transform="matrix(1 0 0 -1 0 841)" d="M56.88 666.58L147.384 666.58L147.384 666.58L147.384 667.06L147.384 667.06L56.88 667.06z" stroke="none" fill="#000000" fill-rule="evenodd" /><path transform="matrix(1 0 0 -1 0 841)" d="M147.38 666.58L147.86 666.58L147.86 666.58L147.86 667.06L147.86 667.06L147.38 667.06z" stroke="none" fill="#000000" fill-rule="evenodd" /><path transform="matrix(1 0 0 -1 0 841)" d="M147.86 666.58L542.73 666.58L542.73 666.58L542.73 667.06L542.73 667.06L147.86 667.06z" stroke="none" fill="#000000" fill-rule="evenodd" /><path transform="matrix(1 0 0 -1 0 841)" d="M542.74 666.58L543.22 666.58L543.22 666.58L543.22 667.06L543.22 667.06L542.74 667.06z" stroke="none" fill="#000000" fill-rule="evenodd" /><path transform="matrix(1 0 0 -1 0 841)" d="M542.74 666.58L543.22 666.58L543.22 666.58L543.22 667.06L543.22 667.06L542.74 667.06z" stroke="none" fill="#000000" fill-rule="evenodd" /><path transform="matrix(1 0 0 -1 0 841)" d="M56.4 647.86L56.88 647.86L56.88 647.86L56.88 666.58L56.88 666.58L56.4 666.58z" stroke="none" fill="#000000" fill-rule="evenodd" /><path transform="matrix(1 0 0 -1 0 841)" d="M147.38 647.86L147.86 647.86L147.86 647.86L147.86 666.58L147.86 666.58L147.38 666.58z" stroke="none" fill="#000000" fill-rule="evenodd" /><path transform="matrix(1 0 0 -1 0 841)" d="M542.74 647.86L543.22 647.86L543.22 647.86L543.22 666.58L543.22 666.58L542.74 666.58z" stroke="none" fill="#000000" fill-rule="evenodd" /><path transform="matrix(1 0 0 -1 0 841)" d="M57 628.18L147.384 628.18L147.384 628.18L147.384 631.54L147.384 631.54L57 631.54z" stroke="none" fill="#FFFFFF" fill-rule="evenodd" /><path transform="matrix(1 0 0 -1 0 841)" d="M57 631.54L147.384 631.54L147.384 631.54L147.384 647.38L147.384 647.38L57 647.38z" stroke="none" fill="#FFFFFF" fill-rule="evenodd" /><path transform="matrix(1 0 0 -1 0 841)" d="M147.86 628.18L542.73 628.18L542.73 628.18L542.73 631.54L542.73 631.54L147.86 631.54z" stroke="none" fill="#FFFFFF" fill-rule="evenodd" /><path transform="matrix(1 0 0 -1 0 841)" d="M147.86 631.54L542.73 631.54L542.73 631.54L542.73 647.38L542.73 647.38L147.86 647.38z" stroke="none" fill="#FFFFFF" fill-rule="evenodd" /><path transform="matrix(1 0 0 -1 0 841)" d="M56.4 647.38L56.88 647.38L56.88 647.38L56.88 647.86L56.88 647.86L56.4 647.86z" stroke="none" fill="#000000" fill-rule="evenodd" /><path transform="matrix(1 0 0 -1 0 841)" d="M56.88 647.38L147.384 647.38L147.384 647.38L147.384 647.86L147.384 647.86L56.88 647.86z" stroke="none" fill="#000000" fill-rule="evenodd" /><path transform="matrix(1 0 0 -1 0 841)" d="M147.38 647.38L147.86 647.38L147.86 647.38L147.86 647.86L147.86 647.86L147.38 647.86z" stroke="none" fill="#000000" fill-rule="evenodd" /><path transform="matrix(1 0 0 -1 0 841)" d="M147.86 647.38L542.73 647.38L542.73 647.38L542.73 647.86L542.73 647.86L147.86 647.86z" stroke="none" fill="#000000" fill-rule="evenodd" /><path transform="matrix(1 0 0 -1 0 841)" d="M542.74 647.38L543.22 647.38L543.22 647.38L543.22 647.86L543.22 647.86L542.74 647.86z" stroke="none" fill="#000000" fill-rule="evenodd" /><path transform="matrix(1 0 0 -1 0 841)" d="M56.4 628.18L56.88 628.18L56.88 628.18L56.88 647.38L56.88 647.38L56.4 647.38z" stroke="none" fill="#000000" fill-rule="evenodd" /><path transform="matrix(1 0 0 -1 0 841)" d="M147.38 628.18L147.86 628.18L147.86 628.18L147.86 647.38L147.86 647.38L147.38 647.38z" stroke="none" fill="#000000" fill-rule="evenodd" /><path transform="matrix(1 0 0 -1 0 841)" d="M542.74 628.18L543.22 628.18L543.22 628.18L543.22 647.38L543.22 647.38L542.74 647.38z" stroke="none" fill="#000000" fill-rule="evenodd" /><path transform="matrix(1 0 0 -1 0 841)" d="M57 608.98L147.384 608.98L147.384 608.98L147.384 611.86L147.384 611.86L57 611.86z" stroke="none" fill="#FFFFFF" fill-rule="evenodd" /><g clip-path="url(#2)"><path transform="matrix(1 0 0 -1 0 841)" d="M57 611.86L147.384 611.86L147.384 611.86L147.384 627.7L147.384 627.7L57 627.7z" stroke="none" fill="#FFFFFF" fill-rule="evenodd" /></g><path transform="matrix(1 0 0 -1 0 841)" d="M147.86 608.98L542.73 608.98L542.73 608.98L542.73 611.86L542.73 611.86L147.86 611.86z" stroke="none" fill="#FFFFFF" fill-rule="evenodd" /><g clip-path="url(#3)"><path transform="matrix(1 0 0 -1 0 841)" d="M147.86 611.86L542.73 611.86L542.73 611.86L542.73 627.7L542.73 627.7L147.86 627.7z" stroke="none" fill="#FFFFFF" fill-rule="evenodd" /></g><path transform="matrix(1 0 0 -1 0 841)" d="M56.4 627.7L56.88 627.7L56.88 627.7L56.88 628.18L56.88 628.18L56.4 628.18z" stroke="none" fill="#000000" fill-rule="evenodd" /><path transform="matrix(1 0 0 -1 0 841)" d="M56.88 627.7L147.384 627.7L147.384 627.7L147.384 628.18L147.384 628.18L56.88 628.18z" stroke="none" fill="#000000" fill-rule="evenodd" /><path transform="matrix(1 0 0 -1 0 841)" d="M147.38 627.7L147.86 627.7L147.86 627.7L147.86 628.18L147.86 628.18L147.38 628.18z" stroke="none" fill="#000000" fill-rule="evenodd" /><path transform="matrix(1 0 0 -1 0 841)" d="M147.86 627.7L542.73 627.7L542.73 627.7L542.73 628.18L542.73 628.18L147.86 628.18z" stroke="none" fill="#000000" fill-rule="evenodd" /><path transform="matrix(1 0 0 -1 0 841)" d="M542.74 627.7L543.22 627.7L543.22 627.7L543.22 628.18L543.22 628.18L542.74 628.18z" stroke="none" fill="#000000" fill-rule="evenodd" /><path transform="matrix(1 0 0 -1 0 841)" d="M56.4 608.98L56.88 608.98L56.88 608.98L56.88 627.7L56.88 627.7L56.4 627.7z" stroke="none" fill="#000000" fill-rule="evenodd" /><path transform="matrix(1 0 0 -1 0 841)" d="M147.38 608.98L147.86 608.98L147.86 608.98L147.86 627.7L147.86 627.7L147.38 627.7z" stroke="none" fill="#000000" fill-rule="evenodd" /><path transform="matrix(1 0 0 -1 0 841)" d="M542.74 608.98L543.22 608.98L543.22 608.98L543.22 627.7L543.22 627.7L542.74 627.7z" stroke="none" fill="#000000" fill-rule="evenodd" /><path transform="matrix(1 0 0 -1 0 841)" d="M57 575.62L147.384 575.62L147.384 575.62L147.384 592.66L147.384 592.66L57 592.66z" stroke="none" fill="#FFFFFF" fill-rule="evenodd" /><path transform="matrix(1 0 0 -1 0 841)" d="M57 592.66L147.384 592.66L147.384 592.66L147.384 608.5L147.384 608.5L57 608.5z" stroke="none" fill="#FFFFFF" fill-rule="evenodd" /><path transform="matrix(1 0 0 -1 0 841)" d="M147.86 575.62L542.73 575.62L542.73 575.62L542.73 576.7L542.73 576.7L147.86 576.7z" stroke="none" fill="#FFFFFF" fill-rule="evenodd" /><path transform="matrix(1 0 0 -1 0 841)" d="M147.86 592.66L542.73 592.66L542.73 592.66L542.73 608.5L542.73 608.5L147.86 608.5z" stroke="none" fill="#FFFFFF" fill-rule="evenodd" /><path transform="matrix(1 0 0 -1 0 841)" d="M147.86 576.7L542.73 576.7L542.73 576.7L542.73 592.66L542.73 592.66L147.86 592.66z" stroke="none" fill="#FFFFFF" fill-rule="evenodd" /><path transform="matrix(1 0 0 -1 0 841)" d="M56.4 608.5L56.88 608.5L56.88 608.5L56.88 608.98L56.88 608.98L56.4 608.98z" stroke="none" fill="#000000" fill-rule="evenodd" /><path transform="matrix(1 0 0 -1 0 841)" d="M56.88 608.5L147.384 608.5L147.384 608.5L147.384 608.98L147.384 608.98L56.88 608.98z" stroke="none" fill="#000000" fill-rule="evenodd" /><path transform="matrix(1 0 0 -1 0 841)" d="M147.38 608.5L147.86 608.5L147.86 608.5L147.86 608.98L147.86 608.98L147.38 608.98z" stroke="none" fill="#000000" fill-rule="evenodd" /><path transform="matrix(1 0 0 -1 0 841)" d="M147.86 608.5L542.73 608.5L542.73 608.5L542.73 608.98L542.73 608.98L147.86 608.98z" stroke="none" fill="#000000" fill-rule="evenodd" /><path transform="matrix(1 0 0 -1 0 841)" d="M542.74 608.5L543.22 608.5L543.22 608.5L543.22 608.98L543.22 608.98L542.74 608.98z" stroke="none" fill="#000000" fill-rule="evenodd" /><path transform="matrix(1 0 0 -1 0 841)" d="M56.4 575.62L56.88 575.62L56.88 575.62L56.88 608.5L56.88 608.5L56.4 608.5z" stroke="none" fill="#000000" fill-rule="evenodd" /><path transform="matrix(1 0 0 -1 0 841)" d="M56.4 575.14L56.88 575.14L56.88 575.14L56.88 575.62L56.88 575.62L56.4 575.62z" stroke="none" fill="#000000" fill-rule="evenodd" /><path transform="matrix(1 0 0 -1 0 841)" d="M56.4 575.14L56.88 575.14L56.88 575.14L56.88 575.62L56.88 575.62L56.4 575.62z" stroke="none" fill="#000000" fill-rule="evenodd" /><path transform="matrix(1 0 0 -1 0 841)" d="M56.88 575.14L147.384 575.14L147.384 575.14L147.384 575.62L147.384 575.62L56.88 575.62z" stroke="none" fill="#000000" fill-rule="evenodd" /><path transform="matrix(1 0 0 -1 0 841)" d="M147.38 575.62L147.86 575.62L147.86 575.62L147.86 608.5L147.86 608.5L147.38 608.5z" stroke="none" fill="#000000" fill-rule="evenodd" /><path transform="matrix(1 0 0 -1 0 841)" d="M147.38 575.14L147.86 575.14L147.86 575.14L147.86 575.62L147.86 575.62L147.38 575.62z" stroke="none" fill="#000000" fill-rule="evenodd" /><path transform="matrix(1 0 0 -1 0 841)" d="M147.86 575.14L542.73 575.14L542.73 575.14L542.73 575.62L542.73 575.62L147.86 575.62z" stroke="none" fill="#000000" fill-rule="evenodd" /><path transform="matrix(1 0 0 -1 0 841)" d="M542.74 575.62L543.22 575.62L543.22 575.62L543.22 608.5L543.22 608.5L542.74 608.5z" stroke="none" fill="#000000" fill-rule="evenodd" /><path transform="matrix(1 0 0 -1 0 841)" d="M542.74 575.14L543.22 575.14L543.22 575.14L543.22 575.62L543.22 575.62L542.74 575.62z" stroke="none" fill="#000000" fill-rule="evenodd" /><path transform="matrix(1 0 0 -1 0 841)" d="M542.74 575.14L543.22 575.14L543.22 575.14L543.22 575.62L543.22 575.62L542.74 575.62z" stroke="none" fill="#000000" fill-rule="evenodd" /><g transform="matrix(1 0 0 1 50 23)"><g transform="matrix(1 0 0 1 0 0)"><image x="0" y="0" xlink:href="img_01.png" width="143" height="32" /></g></g></g></g></g><defs><clipPath id="1"><path d="M0 841L0 -0.9199829L0 -0.9199829L595.32 -0.9199829L595.32 -0.9199829L595.32 841L595.32 841L0 841z" /></clipPath><clipPath id="2"><path d="M57 232.02L147.384 232.02L147.384 232.02L147.384 213.3L147.384 213.3L57 213.3z" /></clipPath><clipPath id="3"><path d="M147.86 232.02L542.73 232.02L542.73 232.02L542.73 213.3L542.73 213.3L147.86 213.3z" /></clipPath></defs></svg>